{"glyphs":{"0":{"ha":836,"x_min":90,"x_max":746,"o":"m 418 1027 q 663 895 580 1027 q 746 504 746 763 q 663 113 746 245 q 418 -20 580 -20 q 173 113 256 -20 q 90 504 90 245 q 173 895 90 763 q 418 1027 256 1027 m 418 89 q 561 191 514 89 q 608 504 608 294 q 595 706 608 616 l 272 201 q 418 89 323 89 m 418 919 q 275 817 322 919 q 228 504 228 714 q 241 325 228 408 l 557 829 q 418 919 505 919 z "},"1":{"ha":836,"x_min":141,"x_max":742,"o":"m 183 115 l 396 115 l 396 880 l 141 757 l 141 888 l 395 1009 l 532 1009 l 532 115 l 742 115 l 742 0 l 183 0 l 183 115 z "},"2":{"ha":836,"x_min":103,"x_max":718,"o":"m 253 115 l 718 115 l 718 0 l 103 0 l 103 115 q 325 351 230 249 q 456 496 420 454 q 547 630 524 578 q 571 734 571 681 q 521 867 571 819 q 385 916 471 916 q 255 893 323 916 q 111 825 187 871 l 111 964 q 249 1014 181 997 q 382 1031 316 1031 q 621 952 530 1031 q 711 745 711 873 q 681 614 711 680 q 583 471 651 549 q 473 349 545 427 q 253 115 401 271 z "},"3":{"ha":836,"x_min":93,"x_max":732,"o":"m 526 542 q 679 448 626 515 q 732 279 732 380 q 638 60 732 140 q 378 -20 544 -20 q 235 -7 308 -20 q 93 31 163 6 l 93 167 q 229 113 162 131 q 363 96 296 96 q 536 146 475 96 q 596 293 596 197 q 536 433 596 381 q 372 485 475 485 l 268 485 l 268 597 l 372 597 q 519 639 467 597 q 572 754 572 680 q 523 874 572 832 q 383 916 474 916 q 258 902 323 916 q 123 861 194 888 l 123 987 q 270 1020 205 1009 q 383 1031 334 1031 q 620 957 531 1031 q 708 760 708 882 q 662 621 708 676 q 526 542 615 565 z "},"4":{"ha":836,"x_min":69,"x_max":770,"o":"m 498 888 l 179 353 l 498 353 l 498 888 m 476 1013 l 635 1013 l 635 353 l 770 353 l 770 241 l 635 241 l 635 0 l 498 0 l 498 241 l 69 241 l 69 371 l 476 1013 z "},"5":{"ha":836,"x_min":97,"x_max":725,"o":"m 140 1013 l 653 1013 l 653 897 l 265 897 l 265 648 q 324 664 294 659 q 383 669 353 669 q 633 576 541 669 q 725 325 725 484 q 628 73 725 165 q 364 -20 532 -20 q 217 -9 283 -20 q 97 24 150 2 l 97 163 q 222 112 159 129 q 351 96 286 96 q 526 155 465 96 q 587 325 587 215 q 524 494 587 433 q 347 554 460 554 q 240 542 292 554 q 140 504 188 529 l 140 1013 z "},"6":{"ha":836,"x_min":90,"x_max":746,"o":"m 672 990 l 672 864 q 581 902 629 889 q 481 916 533 916 q 283 818 351 916 q 216 529 216 720 q 307 633 249 597 q 439 669 364 669 q 666 579 585 669 q 746 325 746 490 q 663 71 746 161 q 431 -20 581 -20 q 172 107 254 -20 q 90 505 90 233 q 189 896 90 762 q 475 1031 288 1031 q 575 1020 525 1031 q 672 990 625 1010 m 428 562 q 290 499 340 562 q 240 325 240 436 q 290 151 240 214 q 428 87 340 87 q 565 148 519 87 q 611 325 611 208 q 565 503 611 443 q 428 562 519 562 z "},"7":{"ha":836,"x_min":94,"x_max":732,"o":"m 94 1013 l 732 1013 l 732 954 l 370 0 l 227 0 l 579 897 l 94 897 l 94 1013 z "},"8":{"ha":836,"x_min":89,"x_max":747,"o":"m 418 481 q 276 430 326 481 q 227 285 227 378 q 277 139 227 191 q 418 87 328 87 q 560 139 510 87 q 610 285 610 190 q 559 429 610 378 q 418 481 509 481 m 298 538 q 162 621 211 560 q 113 768 113 682 q 195 960 113 889 q 418 1031 277 1031 q 642 960 559 1031 q 724 768 724 889 q 674 621 724 682 q 538 538 625 560 q 693 448 640 515 q 747 272 747 380 q 660 58 747 135 q 418 -20 572 -20 q 176 57 263 -20 q 89 271 89 134 q 143 447 89 379 q 298 538 197 515 m 249 755 q 292 631 249 674 q 418 589 336 589 q 544 631 500 589 q 587 755 587 674 q 544 882 587 838 q 418 925 501 925 q 292 881 336 925 q 249 755 249 838 z "},"9":{"ha":836,"x_min":86,"x_max":742,"o":"m 404 449 q 542 512 492 449 q 591 686 591 575 q 542 861 591 798 q 404 924 492 924 q 267 864 313 924 q 221 686 221 804 q 267 509 221 568 q 404 449 313 449 m 160 21 l 160 147 q 251 109 203 122 q 351 96 299 96 q 548 194 481 96 q 615 482 615 292 q 526 378 583 414 q 393 342 468 342 q 166 432 247 342 q 86 688 86 522 q 169 941 86 851 q 401 1031 251 1031 q 660 904 578 1031 q 742 505 742 777 q 643 115 742 250 q 357 -20 545 -20 q 257 -9 307 -20 q 160 21 207 1 z "}," ":{"ha":836,"x_min":0,"x_max":0,"o":""},"!":{"ha":836,"x_min":350,"x_max":528,"o":"m 370 1013 l 508 1013 l 508 568 l 494 360 l 385 360 l 370 568 l 370 1013 m 350 172 l 528 172 l 528 0 l 350 0 l 350 172 z "},"\"":{"ha":836,"x_min":127,"x_max":641,"o":"m 641 1049 l 641 634 l 489 634 l 489 1049 l 641 1049 m 279 1049 l 279 634 l 127 634 l 127 1049 l 279 1049 z "},"#":{"ha":836,"x_min":1,"x_max":843,"o":"m 464 994 l 403 753 l 569 753 l 631 994 l 739 994 l 677 753 l 843 753 l 843 650 l 652 650 l 586 383 l 755 383 l 755 279 l 559 279 l 489 0 l 380 0 l 452 279 l 285 279 l 214 0 l 106 0 l 176 279 l 1 279 l 1 383 l 203 383 l 269 650 l 89 650 l 89 753 l 294 753 l 355 994 l 464 994 m 544 650 l 378 650 l 311 383 l 478 383 l 544 650 z "},"$":{"ha":836,"x_min":129,"x_max":755,"o":"m 469 393 l 469 99 q 586 140 544 101 q 628 248 628 180 q 590 346 628 311 q 469 393 552 380 m 401 522 l 401 802 q 291 762 331 800 q 252 660 252 724 q 289 568 252 602 q 401 522 326 534 m 469 -204 l 401 -204 l 401 0 q 263 19 332 3 q 129 62 195 35 l 129 184 q 266 120 197 142 q 401 96 334 98 l 401 407 q 197 490 266 428 q 129 653 129 551 q 200 823 129 760 q 401 896 272 886 l 401 1055 l 469 1055 l 470 896 q 578 882 524 892 q 690 854 633 872 l 690 737 q 578 782 633 766 q 469 801 524 798 l 469 509 q 682 422 609 488 q 755 252 755 356 q 676 77 755 147 q 470 1 597 7 l 469 -204 z "},"%":{"ha":836,"x_min":22,"x_max":817,"o":"m 472 216 q 508 127 472 163 q 596 92 543 92 q 685 128 648 92 q 721 216 721 164 q 684 305 721 269 q 596 342 648 342 q 508 306 543 342 q 472 216 472 270 m 380 216 q 443 371 380 308 q 596 433 505 433 q 679 417 640 433 q 749 370 718 401 q 797 298 780 338 q 814 216 814 259 q 751 63 814 126 q 596 0 688 0 q 442 62 504 0 q 380 216 380 124 m 56 298 l 26 375 l 783 677 l 817 601 l 56 298 m 114 754 q 150 665 114 701 q 239 629 185 629 q 328 666 291 629 q 364 754 364 702 q 328 843 364 806 q 239 879 291 879 q 150 843 186 879 q 114 754 114 807 m 22 754 q 85 908 22 846 q 239 971 147 971 q 322 955 282 971 q 392 908 361 939 q 439 838 422 878 q 456 754 456 798 q 393 601 456 663 q 239 538 330 538 q 85 600 147 538 q 22 754 22 663 z "},"&":{"ha":836,"x_min":39,"x_max":828,"o":"m 371 615 l 653 236 q 692 320 680 269 q 705 441 705 371 q 703 511 705 463 l 703 515 l 814 515 l 814 489 q 789 297 814 380 q 713 155 764 215 l 828 0 l 684 0 l 631 74 q 511 3 574 26 q 376 -20 448 -20 q 134 72 230 -20 q 39 301 39 163 q 85 473 39 394 q 227 621 132 553 q 176 716 193 669 q 160 811 160 763 q 228 972 160 913 q 412 1031 295 1031 q 501 1023 456 1031 q 593 999 545 1015 l 593 875 q 510 914 553 901 q 421 926 468 926 q 317 896 355 926 q 279 812 279 865 q 299 729 279 772 q 371 615 319 685 m 282 545 q 189 440 220 495 q 158 322 158 385 q 226 152 158 220 q 399 85 294 85 q 458 93 427 85 q 519 117 490 101 q 550 135 538 127 q 572 151 562 142 l 282 545 z "},"'":{"ha":836,"x_min":351,"x_max":503,"o":"m 503 1057 l 503 634 l 351 634 l 351 1057 l 503 1057 z "},"(":{"ha":836,"x_min":269,"x_max":580,"o":"m 580 1122 q 445 813 490 967 q 401 504 401 660 q 445 195 401 349 q 580 -115 490 41 l 471 -115 q 319 199 369 46 q 269 504 269 352 q 319 808 269 655 q 471 1122 369 962 l 580 1122 z "},")":{"ha":836,"x_min":236,"x_max":547,"o":"m 236 1122 l 345 1122 q 497 808 447 962 q 547 504 547 655 q 497 198 547 351 q 345 -115 447 45 l 236 -115 q 371 196 326 42 q 415 504 415 350 q 371 812 415 659 q 236 1122 326 966 z "},"*":{"ha":836,"x_min":41,"x_max":800,"o":"m 800 784 l 498 621 l 800 458 l 752 375 l 469 545 l 469 229 l 372 229 l 372 545 l 88 375 l 41 458 l 342 621 l 41 784 l 88 867 l 372 697 l 372 1013 l 469 1013 l 469 697 l 752 867 l 800 784 z "},"+":{"ha":836,"x_min":73,"x_max":790,"o":"m 488 799 l 488 498 l 790 498 l 790 384 l 488 384 l 488 83 l 374 83 l 374 384 l 73 384 l 73 498 l 374 498 l 374 799 l 488 799 z "},",":{"ha":836,"x_min":225,"x_max":511,"o":"m 300 245 l 511 245 l 511 65 l 361 -227 l 225 -228 l 300 65 l 300 245 z "},"-":{"ha":836,"x_min":69,"x_max":788,"o":"m 69 491 l 788 491 l 788 376 l 69 376 l 69 491 z "},".":{"ha":836,"x_min":264,"x_max":503,"o":"m 264 274 l 503 274 l 503 0 l 264 0 l 264 274 z "},"/":{"ha":836,"x_min":69,"x_max":732,"o":"m 603 1013 l 732 1013 l 199 -129 l 69 -129 l 603 1013 z "},":":{"ha":836,"x_min":291,"x_max":503,"o":"m 291 759 l 503 759 l 503 514 l 291 514 l 291 759 m 291 247 l 503 247 l 503 0 l 291 0 l 291 247 z "},";":{"ha":836,"x_min":233,"x_max":511,"o":"m 300 245 l 511 245 l 511 65 l 378 -194 l 233 -194 l 300 65 l 300 245 m 291 759 l 503 759 l 503 514 l 291 514 l 291 759 z "},"<":{"ha":836,"x_min":60,"x_max":777,"o":"m 777 652 l 200 435 l 777 220 l 777 96 l 60 379 l 60 492 l 777 775 l 777 652 z "},"=":{"ha":836,"x_min":60,"x_max":777,"o":"m 60 339 l 777 339 l 777 224 l 60 224 l 60 339 m 60 659 l 777 659 l 777 544 l 60 544 l 60 659 z "},">":{"ha":836,"x_min":60,"x_max":777,"o":"m 60 652 l 60 775 l 777 492 l 777 379 l 60 96 l 60 220 l 636 435 l 60 652 z "},"?":{"ha":836,"x_min":165,"x_max":705,"o":"m 464 272 l 335 272 l 335 376 q 356 489 335 443 q 433 591 376 536 l 494 652 q 552 722 536 692 q 568 785 568 751 q 524 882 568 845 q 406 920 479 920 q 292 896 353 920 q 165 827 232 873 l 165 954 q 294 1012 229 993 q 429 1031 359 1031 q 630 966 555 1031 q 705 791 705 901 q 683 695 705 740 q 596 589 660 651 l 536 530 q 477 457 490 486 q 464 387 464 429 l 464 355 l 464 272 m 330 172 l 468 172 l 468 0 l 330 0 l 330 172 z "},"@":{"ha":836,"x_min":18,"x_max":799,"o":"m 704 370 q 661 510 704 457 q 545 562 617 562 q 428 510 472 562 q 385 370 385 457 q 428 229 385 281 q 545 176 472 176 q 661 229 617 176 q 704 370 704 281 m 799 92 l 701 92 l 701 167 q 632 101 676 124 q 532 78 587 78 q 351 160 422 78 q 279 370 279 242 q 351 579 279 497 q 532 661 422 661 q 631 637 586 661 q 701 572 677 614 l 701 615 q 642 785 701 721 q 484 850 582 850 q 218 720 317 850 q 119 368 119 590 q 231 13 119 145 q 538 -120 343 -119 q 641 -125 574 -125 q 760 -123 707 -125 l 760 -220 q 646 -224 715 -224 q 538 -218 576 -224 q 160 -58 302 -216 q 18 368 18 100 q 146 789 18 633 q 488 946 273 946 q 714 856 629 946 q 799 614 799 766 l 799 92 z "},"A":{"ha":836,"x_min":25,"x_max":811,"o":"m 418 892 l 273 374 l 562 374 l 418 892 m 335 1013 l 501 1013 l 811 0 l 669 0 l 595 264 l 240 264 l 167 0 l 25 0 l 335 1013 z "},"B":{"ha":836,"x_min":113,"x_max":771,"o":"m 250 511 l 250 113 l 412 113 q 583 154 532 113 q 633 292 633 196 q 580 464 633 418 q 412 511 526 511 l 250 511 m 250 900 l 250 622 l 410 622 q 553 660 509 622 q 597 755 597 698 q 554 866 597 832 q 410 900 510 900 l 250 900 m 113 1013 l 412 1013 q 652 945 568 1013 q 736 755 736 878 q 691 636 736 690 q 558 569 647 583 q 714 484 658 554 q 771 278 771 414 q 681 70 771 140 q 412 0 591 0 l 113 0 l 113 1013 z "},"C":{"ha":836,"x_min":94,"x_max":728,"o":"m 728 36 q 621 -6 675 8 q 504 -20 566 -20 q 202 118 309 -20 q 94 505 94 256 q 202 892 94 753 q 504 1031 311 1031 q 621 1017 566 1031 q 728 975 675 1003 l 728 835 q 620 898 677 876 q 504 920 562 920 q 304 817 370 920 q 237 505 237 713 q 304 195 237 298 q 504 92 370 92 q 621 113 564 92 q 728 176 678 135 l 728 36 z "},"D":{"ha":836,"x_min":93,"x_max":750,"o":"m 296 113 q 537 198 469 113 q 606 505 606 283 q 537 815 606 730 q 296 900 469 900 l 231 900 l 231 113 l 296 113 m 298 1013 q 640 889 530 1013 q 750 505 750 766 q 640 123 750 246 q 298 0 530 0 l 93 0 l 93 1013 l 298 1013 z "},"E":{"ha":836,"x_min":134,"x_max":747,"o":"m 134 1013 l 734 1013 l 734 897 l 271 897 l 271 625 l 714 625 l 714 509 l 271 509 l 271 115 l 747 115 l 747 0 l 134 0 l 134 1013 z "},"F":{"ha":836,"x_min":158,"x_max":754,"o":"m 158 1013 l 754 1013 l 754 897 l 296 897 l 296 626 l 711 626 l 711 511 l 296 511 l 296 0 l 158 0 l 158 1013 z "},"G":{"ha":836,"x_min":69,"x_max":749,"o":"m 749 83 q 625 6 694 33 q 476 -20 556 -20 q 176 118 283 -20 q 69 505 69 256 q 178 892 69 753 q 479 1031 286 1031 q 602 1013 543 1031 q 714 958 660 995 l 714 818 q 602 895 659 870 q 479 920 544 920 q 279 816 346 920 q 212 505 212 713 q 277 193 212 294 q 476 92 342 92 q 556 102 522 92 q 618 135 590 113 l 618 407 l 471 407 l 471 519 l 749 519 l 749 83 z "},"H":{"ha":836,"x_min":93,"x_max":743,"o":"m 93 1013 l 231 1013 l 231 625 l 606 625 l 606 1013 l 743 1013 l 743 0 l 606 0 l 606 509 l 231 509 l 231 0 l 93 0 l 93 1013 z "},"I":{"ha":836,"x_min":136,"x_max":699,"o":"m 136 1013 l 699 1013 l 699 897 l 486 897 l 486 115 l 699 115 l 699 0 l 136 0 l 136 115 l 349 115 l 349 897 l 136 897 l 136 1013 z "},"J":{"ha":836,"x_min":74,"x_max":648,"o":"m 74 41 l 74 201 q 201 119 136 146 q 338 92 267 92 q 473 142 435 92 q 511 330 511 193 l 511 897 l 253 897 l 253 1013 l 648 1013 l 648 330 q 577 60 648 139 q 338 -20 505 -20 q 208 -5 273 -20 q 74 41 144 10 z "},"K":{"ha":836,"x_min":93,"x_max":831,"o":"m 93 1013 l 231 1013 l 231 562 l 659 1013 l 819 1013 l 425 599 l 831 0 l 665 0 l 335 507 l 231 396 l 231 0 l 93 0 l 93 1013 z "},"L":{"ha":836,"x_min":146,"x_max":772,"o":"m 146 1013 l 283 1013 l 283 115 l 772 115 l 772 0 l 146 0 l 146 1013 z "},"M":{"ha":836,"x_min":24,"x_max":743,"o":"m 24 1009 l 208 1009 l 382 495 l 559 1009 l 743 1009 l 743 0 l 616 0 l 616 892 l 435 360 l 332 360 l 151 892 l 151 0 l 24 0 l 24 1009 z "},"N":{"ha":836,"x_min":13,"x_max":742,"o":"m 13 1009 l 200 1009 l 596 178 l 596 1009 l 742 1009 l 742 0 l 555 0 l 159 831 l 159 0 l 13 0 l 13 1009 z "},"O":{"ha":836,"x_min":79,"x_max":757,"o":"m 614 505 q 568 824 614 728 q 418 920 522 920 q 268 824 314 920 q 222 505 222 728 q 268 187 222 283 q 418 92 314 92 q 568 187 522 92 q 614 505 614 282 m 757 505 q 673 111 757 241 q 418 -20 589 -20 q 163 110 246 -20 q 79 505 79 239 q 163 901 79 770 q 418 1031 247 1031 q 673 901 589 1031 q 757 505 757 770 z "},"P":{"ha":836,"x_min":134,"x_max":774,"o":"m 271 900 l 271 519 l 429 519 q 577 570 524 519 q 631 710 631 620 q 578 850 631 800 q 429 900 525 900 l 271 900 m 134 1013 l 429 1013 q 686 936 599 1013 q 774 710 774 859 q 687 484 774 560 q 429 407 600 407 l 271 407 l 271 0 l 134 0 l 134 1013 z "},"Q":{"ha":836,"x_min":79,"x_max":757,"o":"m 444 -18 q 431 -19 439 -18 q 416 -20 422 -20 q 163 111 247 -20 q 79 505 79 241 q 163 901 79 770 q 418 1031 247 1031 q 673 901 589 1031 q 757 505 757 770 q 710 184 757 306 q 570 14 664 62 l 705 -115 l 603 -183 l 444 -18 m 614 505 q 568 824 614 728 q 418 920 522 920 q 268 824 314 920 q 222 505 222 728 q 268 187 222 283 q 418 92 314 92 q 568 187 522 92 q 614 505 614 282 z "},"R":{"ha":836,"x_min":97,"x_max":836,"o":"m 515 478 q 606 427 568 465 q 699 277 643 389 l 836 0 l 689 0 l 568 256 q 474 396 516 365 q 366 428 433 428 l 235 428 l 235 0 l 97 0 l 97 1013 l 379 1013 q 635 937 546 1013 q 724 720 724 862 q 669 556 724 619 q 515 478 614 492 m 235 900 l 235 541 l 385 541 q 531 585 483 541 q 579 720 579 629 q 528 853 579 807 q 379 900 477 900 l 235 900 z "},"S":{"ha":836,"x_min":94,"x_max":745,"o":"m 686 978 l 686 839 q 561 899 624 879 q 435 920 498 920 q 281 874 338 920 q 225 753 225 829 q 262 650 225 686 q 400 591 299 615 l 472 575 q 680 471 614 542 q 745 277 745 399 q 655 56 745 132 q 395 -20 566 -20 q 252 -4 323 -20 q 107 41 180 11 l 107 187 q 255 115 185 138 q 395 92 324 92 q 556 138 498 92 q 614 268 614 184 q 574 384 614 344 q 436 446 534 424 l 363 463 q 158 559 222 494 q 94 732 94 623 q 185 949 94 867 q 428 1031 277 1031 q 551 1018 486 1031 q 686 978 615 1004 z "},"T":{"ha":836,"x_min":32,"x_max":804,"o":"m 32 1013 l 804 1013 l 804 897 l 488 897 l 488 0 l 350 0 l 350 897 l 32 897 l 32 1013 z "},"U":{"ha":836,"x_min":100,"x_max":736,"o":"m 100 389 l 100 1013 l 237 1013 l 237 326 q 241 221 237 252 q 256 172 245 189 q 318 112 277 132 q 418 92 359 92 q 517 112 477 92 q 581 172 558 132 q 595 220 591 189 q 599 325 599 252 l 599 1013 l 736 1013 l 736 389 q 716 168 736 233 q 650 60 697 102 q 547 0 605 20 q 418 -20 490 -20 q 289 0 347 -20 q 186 60 231 20 q 119 169 139 102 q 100 389 100 235 z "},"V":{"ha":836,"x_min":39,"x_max":798,"o":"m 418 115 l 656 1013 l 798 1013 l 501 0 l 335 0 l 39 1013 l 180 1013 l 418 115 z "},"W":{"ha":836,"x_min":0,"x_max":836,"o":"m 0 1013 l 134 1013 l 231 191 l 346 734 l 489 734 l 606 189 l 703 1013 l 836 1013 l 685 0 l 555 0 l 418 602 l 281 0 l 151 0 l 0 1013 z "},"X":{"ha":836,"x_min":12,"x_max":823,"o":"m 58 1013 l 205 1013 l 428 631 l 654 1013 l 802 1013 l 498 536 l 823 0 l 676 0 l 428 436 l 160 0 l 12 0 l 351 536 l 58 1013 z "},"Y":{"ha":836,"x_min":25,"x_max":811,"o":"m 25 1013 l 171 1013 l 418 566 l 664 1013 l 811 1013 l 486 454 l 486 0 l 349 0 l 349 454 l 25 1013 z "},"Z":{"ha":836,"x_min":106,"x_max":793,"o":"m 121 1013 l 778 1013 l 778 908 l 249 115 l 793 115 l 793 0 l 106 0 l 106 104 l 621 897 l 121 897 l 121 1013 z "},"[":{"ha":836,"x_min":382,"x_max":669,"o":"m 382 1123 l 669 1123 l 669 1026 l 507 1026 l 507 -18 l 669 -18 l 669 -115 l 382 -115 l 382 1123 z "},"\\":{"ha":836,"x_min":69,"x_max":732,"o":"m 199 1013 l 732 -129 l 603 -129 l 69 1013 l 199 1013 z "},"]":{"ha":836,"x_min":201,"x_max":488,"o":"m 488 1123 l 488 -115 l 201 -115 l 201 -18 l 363 -18 l 363 1026 l 201 1026 l 201 1123 l 488 1123 z "},"^":{"ha":836,"x_min":24,"x_max":811,"o":"m 478 1009 l 811 605 l 667 606 l 418 872 l 170 606 l 24 605 l 358 1009 l 478 1009 z "},"_":{"ha":836,"x_min":0,"x_max":830,"o":"m 830 -129 l 830 -244 l 0 -244 l 0 -129 l 830 -129 z "},"`":{"ha":836,"x_min":189,"x_max":514,"o":"m 323 1111 l 514 856 l 410 856 l 189 1111 l 323 1111 z "},"a":{"ha":836,"x_min":90,"x_max":718,"o":"m 476 382 l 435 382 q 270 343 326 382 q 215 229 215 305 q 256 123 215 161 q 371 85 298 85 q 533 156 474 85 q 593 354 592 228 l 593 382 l 476 382 m 718 433 l 718 0 l 593 0 l 593 113 q 492 13 553 45 q 345 -20 431 -20 q 159 46 229 -20 q 90 221 90 111 q 175 414 90 348 q 425 479 260 479 l 593 479 l 593 499 q 547 631 592 590 q 401 672 501 672 q 273 654 338 672 q 146 600 208 635 l 146 725 q 278 765 215 751 q 401 778 342 778 q 563 750 496 778 q 671 667 629 722 q 707 583 696 633 q 718 433 718 533 z "},"b":{"ha":836,"x_min":131,"x_max":754,"o":"m 623 379 q 576 598 623 524 q 440 672 530 672 q 302 598 349 672 q 256 379 256 524 q 302 161 256 235 q 440 86 349 86 q 576 160 530 86 q 623 379 623 234 m 256 663 q 338 748 286 718 q 460 778 391 778 q 675 672 597 778 q 754 382 754 567 q 675 87 754 194 q 458 -20 596 -20 q 339 10 391 -20 q 256 96 287 39 l 256 0 l 131 0 l 131 1055 l 256 1055 l 256 663 z "},"c":{"ha":836,"x_min":132,"x_max":720,"o":"m 720 39 q 616 -5 669 9 q 507 -20 563 -20 q 232 86 331 -20 q 132 379 132 192 q 232 672 132 566 q 507 778 331 778 q 614 764 562 778 q 720 720 667 749 l 720 589 q 620 652 670 633 q 507 672 570 672 q 327 596 390 672 q 264 379 264 520 q 327 162 264 239 q 507 86 391 86 q 624 106 572 86 q 720 168 675 126 l 720 39 z "},"d":{"ha":836,"x_min":83,"x_max":707,"o":"m 582 663 l 582 1055 l 707 1055 l 707 0 l 582 0 l 582 96 q 499 10 551 39 q 379 -20 447 -20 q 162 87 241 -20 q 83 382 83 194 q 163 672 83 567 q 379 778 242 778 q 500 748 448 778 q 582 663 552 719 m 215 379 q 261 160 215 234 q 397 86 307 86 q 535 161 488 86 q 582 379 582 235 q 535 598 582 524 q 397 672 488 672 q 261 598 307 672 q 215 379 215 524 z "},"e":{"ha":836,"x_min":83,"x_max":760,"o":"m 760 442 l 760 381 l 219 381 l 219 377 q 278 154 214 222 q 461 86 343 86 q 586 105 521 86 q 725 163 651 124 l 725 39 q 588 -5 654 9 q 460 -20 522 -20 q 183 86 283 -20 q 83 379 83 193 q 181 669 83 561 q 441 778 279 778 q 670 680 587 778 q 760 442 754 581 m 635 479 q 577 615 627 557 q 436 672 528 672 q 288 612 346 672 q 224 478 229 553 l 635 479 z "},"f":{"ha":836,"x_min":132,"x_max":721,"o":"m 721 1055 l 721 951 l 579 951 q 486 924 512 951 q 460 827 460 897 l 460 760 l 721 760 l 721 663 l 460 663 l 460 0 l 335 0 l 335 663 l 132 663 l 132 760 l 335 760 l 335 812 q 392 996 335 937 q 571 1055 450 1055 l 721 1055 z "},"g":{"ha":836,"x_min":83,"x_max":707,"o":"m 582 386 q 536 599 582 526 q 403 672 490 672 q 263 599 311 672 q 215 386 215 526 q 263 172 215 245 q 404 98 312 98 q 536 172 490 98 q 582 386 582 246 m 707 49 q 626 -210 707 -122 q 389 -298 545 -298 q 281 -289 337 -298 q 168 -261 224 -279 l 168 -138 q 289 -184 235 -169 q 389 -199 343 -199 q 536 -144 490 -199 q 582 31 582 -89 l 582 36 l 582 121 q 500 26 552 57 q 375 -5 449 -5 q 163 101 242 -5 q 83 386 83 208 q 163 671 83 565 q 375 778 242 778 q 499 749 448 778 q 582 659 550 720 l 582 757 l 707 757 l 707 49 z "},"h":{"ha":836,"x_min":132,"x_max":713,"o":"m 713 471 l 713 0 l 587 0 l 587 471 q 551 621 587 573 q 439 669 515 669 q 304 607 351 669 q 257 429 257 545 l 257 0 l 132 0 l 132 1055 l 257 1055 l 257 646 q 347 744 290 711 q 482 778 404 778 q 655 702 598 778 q 713 471 713 625 z "},"i":{"ha":836,"x_min":161,"x_max":781,"o":"m 214 757 l 534 757 l 534 97 l 781 97 l 781 0 l 161 0 l 161 97 l 409 97 l 409 660 l 214 660 l 214 757 m 409 1052 l 534 1052 l 534 895 l 409 895 l 409 1052 z "},"j":{"ha":836,"x_min":126,"x_max":532,"o":"m 407 -14 l 407 663 l 192 663 l 192 760 l 532 760 l 532 -14 q 471 -217 532 -146 q 298 -289 410 -289 l 126 -289 l 126 -183 l 285 -183 q 376 -141 346 -183 q 407 -14 407 -98 m 407 1055 l 532 1055 l 532 897 l 407 897 l 407 1055 z "},"k":{"ha":836,"x_min":160,"x_max":815,"o":"m 160 1055 l 289 1055 l 289 444 l 616 760 l 768 760 l 469 473 l 815 0 l 663 0 l 382 392 l 289 304 l 289 0 l 160 0 l 160 1055 z "},"l":{"ha":836,"x_min":163,"x_max":755,"o":"m 488 275 q 518 148 488 191 q 610 105 549 105 l 755 105 l 755 0 l 597 0 q 424 72 486 0 q 363 275 363 143 l 363 962 l 163 962 l 163 1059 l 488 1059 l 488 275 z "},"m":{"ha":836,"x_min":74,"x_max":770,"o":"m 458 682 q 517 754 481 731 q 603 778 553 778 q 732 707 694 778 q 770 440 770 636 l 770 0 l 656 0 l 656 435 q 638 634 656 595 q 572 673 620 673 q 498 632 518 673 q 478 435 478 590 l 478 0 l 364 0 l 364 435 q 345 635 364 597 q 275 673 326 673 q 207 632 226 673 q 187 435 187 590 l 187 0 l 74 0 l 74 760 l 187 760 l 187 694 q 243 756 210 735 q 319 778 277 778 q 405 754 371 778 q 458 682 439 730 z "},"n":{"ha":836,"x_min":132,"x_max":713,"o":"m 713 471 l 713 0 l 587 0 l 587 471 q 551 621 587 573 q 439 669 515 669 q 304 607 351 669 q 257 429 257 545 l 257 0 l 132 0 l 132 760 l 257 760 l 257 646 q 347 744 290 711 q 482 778 404 778 q 655 702 598 778 q 713 471 713 625 z "},"o":{"ha":836,"x_min":93,"x_max":743,"o":"m 418 672 q 274 598 323 672 q 225 379 225 524 q 274 160 225 235 q 418 86 323 86 q 562 160 513 86 q 611 379 611 235 q 562 598 611 524 q 418 672 513 672 m 418 778 q 660 675 576 778 q 743 379 743 573 q 660 82 743 184 q 418 -20 576 -20 q 176 82 260 -20 q 93 379 93 184 q 176 675 93 573 q 418 778 260 778 z "},"p":{"ha":836,"x_min":129,"x_max":751,"o":"m 254 96 l 254 -289 l 129 -289 l 129 760 l 254 760 l 254 663 q 337 748 286 719 q 457 778 389 778 q 673 671 595 778 q 751 376 751 565 q 673 86 751 191 q 457 -20 594 -20 q 336 10 388 -20 q 254 96 284 39 m 621 379 q 575 598 621 524 q 439 672 529 672 q 301 598 348 672 q 254 379 254 524 q 301 161 254 235 q 439 86 348 86 q 575 160 529 86 q 621 379 621 234 z "},"q":{"ha":836,"x_min":93,"x_max":715,"o":"m 225 376 q 271 157 225 231 q 407 83 317 83 q 544 158 497 83 q 590 376 590 232 q 544 595 590 521 q 407 669 497 669 q 271 595 317 669 q 225 376 225 522 m 590 94 q 508 8 559 38 q 387 -22 456 -22 q 172 83 251 -22 q 93 374 93 189 q 172 669 93 562 q 387 775 250 775 q 507 746 455 775 q 590 660 559 716 l 590 757 l 715 757 l 715 -292 l 590 -292 l 590 94 z "},"r":{"ha":836,"x_min":245,"x_max":783,"o":"m 783 603 q 702 648 743 634 q 611 663 661 663 q 433 589 494 663 q 371 378 371 516 l 371 0 l 245 0 l 245 760 l 371 760 l 371 611 q 467 735 402 692 q 621 778 532 778 q 707 766 667 778 q 783 730 747 755 l 783 603 z "},"s":{"ha":836,"x_min":144,"x_max":699,"o":"m 660 733 l 660 611 q 552 658 606 642 q 441 673 498 673 q 315 646 357 673 q 273 562 273 618 q 304 486 273 511 q 460 437 336 461 l 510 428 q 651 357 603 410 q 699 220 699 304 q 618 44 699 107 q 396 -20 538 -20 q 278 -8 340 -20 q 144 28 216 4 l 144 157 q 278 103 214 121 q 399 85 342 85 q 527 118 481 85 q 572 212 572 152 q 406 332 572 299 l 401 334 l 354 343 q 197 414 246 364 q 147 550 147 464 q 221 719 147 659 q 432 778 295 778 q 549 767 493 778 q 660 733 606 755 z "},"t":{"ha":836,"x_min":89,"x_max":700,"o":"m 416 975 l 416 760 l 700 760 l 700 663 l 416 663 l 416 250 q 448 133 416 166 q 559 100 480 100 l 700 100 l 700 0 l 547 0 q 349 56 407 0 q 292 250 292 113 l 292 663 l 89 663 l 89 760 l 292 760 l 292 975 l 416 975 z "},"u":{"ha":836,"x_min":132,"x_max":713,"o":"m 132 288 l 132 758 l 257 758 l 257 288 q 293 137 257 185 q 406 89 330 89 q 541 151 494 89 q 587 329 587 213 l 587 758 l 713 758 l 713 0 l 587 0 l 587 114 q 497 14 554 48 q 363 -20 439 -20 q 189 57 246 -20 q 132 288 132 133 z "},"v":{"ha":836,"x_min":68,"x_max":768,"o":"m 68 760 l 197 760 l 418 122 l 639 760 l 768 760 l 498 0 l 338 0 l 68 760 z "},"w":{"ha":836,"x_min":0,"x_max":836,"o":"m 0 760 l 123 760 l 256 146 l 364 538 l 471 538 l 581 146 l 713 760 l 836 760 l 659 0 l 539 0 l 418 416 l 297 0 l 178 0 l 0 760 z "},"x":{"ha":836,"x_min":52,"x_max":785,"o":"m 758 760 l 486 396 l 785 0 l 640 0 l 418 304 l 196 0 l 52 0 l 350 396 l 78 760 l 216 760 l 418 485 l 618 760 l 758 760 z "},"y":{"ha":836,"x_min":71,"x_max":782,"o":"m 582 244 q 503 35 551 165 q 412 -183 435 -144 q 334 -262 381 -236 q 225 -289 288 -289 l 125 -289 l 125 -184 l 199 -184 q 285 -153 254 -184 q 364 12 316 -121 l 71 760 l 203 760 l 428 165 l 650 760 l 782 760 l 582 244 z "},"z":{"ha":836,"x_min":138,"x_max":705,"o":"m 154 761 l 705 761 l 705 647 l 269 102 l 705 102 l 705 0 l 138 0 l 138 115 l 574 661 l 154 661 l 154 761 z "},"{":{"ha":836,"x_min":119,"x_max":700,"o":"m 700 -35 l 700 -132 l 656 -132 q 430 -82 488 -132 q 373 118 373 -32 l 373 254 q 331 381 373 328 q 202 435 290 435 l 119 435 l 119 532 l 202 532 q 335 577 298 532 q 373 711 373 623 l 373 887 q 430 1087 373 1037 q 656 1137 488 1137 l 700 1137 l 700 1040 l 652 1040 q 529 1010 557 1040 q 500 884 500 981 l 500 703 q 453 542 500 583 q 271 483 406 501 q 451 423 402 467 q 500 262 500 378 l 500 121 q 529 -5 500 24 q 652 -35 557 -35 l 700 -35 z "},"|":{"ha":836,"x_min":387,"x_max":503,"o":"m 503 1061 l 503 -328 l 387 -328 l 387 1061 l 503 1061 z "},"}":{"ha":836,"x_min":149,"x_max":729,"o":"m 196 -35 q 320 -5 291 -35 q 349 121 349 24 l 349 262 q 397 423 349 378 q 578 483 446 467 q 395 542 442 501 q 349 703 349 583 l 349 884 q 320 1010 349 981 q 196 1040 291 1040 l 149 1040 l 149 1137 l 192 1137 q 418 1087 361 1137 q 475 887 475 1037 l 475 711 q 513 577 475 623 q 646 532 551 532 l 729 532 l 729 435 l 646 435 q 517 381 559 435 q 475 254 475 328 l 475 118 q 418 -82 475 -32 q 192 -132 361 -132 l 149 -132 l 149 -35 l 196 -35 z "},"~":{"ha":836,"x_min":9,"x_max":825,"o":"m 737 532 l 825 472 q 711 291 767 339 q 595 242 654 242 q 424 341 500 248 q 316 473 347 434 q 235 511 285 512 q 156 462 183 511 q 99 337 129 413 l 9 389 q 111 574 48 514 q 236 633 173 633 q 441 498 351 635 q 595 361 532 361 q 682 419 648 361 q 737 532 716 478 z "}," ":{"ha":836,"x_min":0,"x_max":0,"o":""},"¡":{"ha":836,"x_min":350,"x_max":488,"o":"m 350 840 l 350 1013 l 488 1013 l 488 840 l 350 840 m 350 0 l 350 444 l 364 686 l 473 686 l 488 444 l 488 0 l 350 0 z "},"¢":{"ha":836,"x_min":144,"x_max":720,"o":"m 720 730 l 720 614 q 630 656 674 641 q 557 673 586 671 l 557 83 q 630 102 586 87 q 720 144 675 117 l 720 28 q 626 -5 670 7 q 557 -18 582 -16 l 557 -212 l 473 -212 l 473 -18 q 233 103 321 -3 q 144 379 144 209 q 234 656 144 549 q 473 777 323 764 l 473 971 l 557 971 l 557 777 q 626 763 582 774 q 720 730 670 751 m 473 86 l 473 672 q 330 584 384 664 q 275 379 275 504 q 330 175 275 254 q 473 86 384 95 z "},"£":{"ha":836,"x_min":94,"x_max":754,"o":"m 741 991 l 741 867 q 655 911 699 897 q 567 926 612 926 q 433 866 476 926 q 390 675 390 805 l 390 528 l 642 528 l 642 431 l 390 431 l 390 115 l 754 115 l 754 0 l 94 0 l 94 115 l 254 115 l 254 431 l 119 431 l 119 528 l 254 528 l 254 689 q 329 946 254 861 q 554 1031 403 1031 q 645 1021 598 1031 q 741 991 691 1011 z "},"¤":{"ha":836,"x_min":139,"x_max":746,"o":"m 587 437 q 546 539 587 498 q 442 581 504 581 q 339 539 381 581 q 297 437 297 498 q 339 332 297 374 q 442 290 381 290 q 546 333 504 290 q 587 437 587 375 m 571 627 l 685 739 l 746 676 l 633 564 q 664 499 654 530 q 673 435 673 468 q 663 371 673 401 q 631 310 653 340 l 746 196 l 682 132 l 568 246 q 507 214 537 224 q 442 204 476 204 q 377 214 410 204 q 313 243 345 224 l 201 132 l 139 193 l 252 307 q 221 373 231 342 q 211 435 211 404 q 221 500 211 469 q 253 562 232 532 l 139 675 l 203 739 l 315 625 q 377 656 347 646 q 442 667 408 667 q 505 657 473 667 q 571 627 536 647 z "},"¥":{"ha":836,"x_min":25,"x_max":811,"o":"m 25 1013 l 171 1013 l 418 566 l 664 1013 l 811 1013 l 587 632 l 758 632 l 758 557 l 545 557 l 486 454 l 486 431 l 758 431 l 758 355 l 486 355 l 486 0 l 349 0 l 349 355 l 78 355 l 78 431 l 349 431 l 349 454 l 288 557 l 78 557 l 78 632 l 243 632 l 25 1013 z "},"¦":{"ha":836,"x_min":359,"x_max":475,"o":"m 475 971 l 475 457 l 359 457 l 359 971 l 475 971 m 475 277 l 475 -237 l 359 -237 l 359 277 l 475 277 z "},"§":{"ha":836,"x_min":135,"x_max":703,"o":"m 635 991 l 635 880 q 530 920 578 907 q 443 933 481 933 q 341 906 377 933 q 304 831 304 879 q 444 692 304 770 q 471 676 461 682 q 659 543 614 595 q 703 422 703 491 q 672 314 703 361 q 578 231 641 267 q 639 158 619 195 q 659 78 659 121 q 589 -75 659 -18 q 403 -132 520 -132 q 301 -122 353 -132 q 189 -93 248 -113 l 189 18 q 298 -21 248 -8 q 387 -35 349 -35 q 495 -6 456 -35 q 533 74 533 22 q 383 227 533 143 l 367 236 q 178 369 222 317 q 135 490 135 421 q 166 601 135 552 q 260 682 198 649 q 199 750 219 712 q 179 835 179 788 q 247 977 179 923 q 428 1031 315 1031 q 529 1021 477 1031 q 635 991 581 1011 m 329 635 q 266 574 287 604 q 245 511 245 543 q 293 414 245 460 q 509 278 341 368 q 571 339 551 309 q 591 401 591 370 q 543 499 591 453 q 329 635 494 545 z "},"¨":{"ha":836,"x_min":216,"x_max":619,"o":"m 216 1053 l 354 1053 l 354 916 l 216 916 l 216 1053 m 482 1053 l 619 1053 l 619 916 l 482 916 l 482 1053 z "},"©":{"ha":836,"x_min":0,"x_max":836,"o":"m 586 726 l 586 653 q 509 681 547 672 q 432 690 471 690 q 307 640 353 690 q 261 503 261 589 q 309 365 261 413 q 444 317 356 317 q 517 325 482 317 q 586 351 552 334 l 586 281 q 512 258 551 265 q 432 250 473 250 q 240 318 310 250 q 170 503 170 386 q 240 688 170 620 q 432 757 311 757 q 512 749 473 757 q 586 726 551 742 m 418 851 q 284 826 346 851 q 172 750 223 801 q 95 637 121 699 q 69 503 69 574 q 95 370 69 432 q 172 257 121 308 q 285 180 224 205 q 418 154 347 154 q 551 180 490 154 q 664 257 612 205 q 741 370 715 309 q 766 503 766 431 q 741 637 766 574 q 664 750 715 699 q 552 826 613 801 q 418 851 490 851 m 418 921 q 578 890 504 921 q 713 799 652 860 q 805 663 774 737 q 836 503 836 588 q 805 344 836 418 q 713 208 774 270 q 577 116 651 146 q 418 85 503 85 q 259 116 333 85 q 123 208 185 146 q 31 344 62 270 q 0 503 0 418 q 31 663 0 588 q 123 799 62 737 q 258 890 184 860 q 418 921 332 921 z "},"ª":{"ha":836,"x_min":183,"x_max":652,"o":"m 464 749 q 324 726 366 749 q 282 650 282 703 q 312 580 282 606 q 390 554 341 554 q 506 603 461 554 q 550 729 550 651 l 550 749 l 464 749 m 647 790 l 647 486 l 550 486 l 550 562 q 472 496 517 518 q 372 473 428 473 q 234 519 285 473 q 183 644 183 566 q 247 779 183 732 q 427 827 310 827 l 550 827 l 550 829 q 510 922 550 890 q 390 953 469 953 q 313 941 355 953 q 225 907 271 929 l 225 993 q 317 1021 271 1012 q 406 1031 363 1031 q 589 972 530 1031 q 647 790 647 914 m 199 401 l 652 401 l 652 318 l 199 318 l 199 401 z "},"«":{"ha":836,"x_min":81,"x_max":707,"o":"m 399 718 l 399 589 l 195 407 l 399 225 l 399 96 l 81 379 l 81 435 l 399 718 m 707 718 l 707 589 l 503 407 l 707 225 l 707 96 l 389 379 l 389 435 l 707 718 z "},"¬":{"ha":836,"x_min":60,"x_max":777,"o":"m 60 585 l 777 585 l 777 252 l 663 252 l 663 468 l 60 468 l 60 585 z "},"­":{"ha":836,"x_min":90,"x_max":761,"o":"m 90 505 l 761 505 l 761 376 l 90 376 l 90 505 z "},"®":{"ha":836,"x_min":0,"x_max":836,"o":"m 407 746 q 555 713 507 746 q 604 611 604 680 q 574 531 604 563 q 490 490 545 500 q 523 464 503 487 q 568 401 543 441 l 646 275 l 549 275 l 476 393 q 422 462 443 448 q 371 476 401 476 l 334 476 l 334 275 l 245 275 l 245 746 l 407 746 m 403 689 l 334 689 l 334 532 l 403 532 q 489 550 464 532 q 514 611 514 568 q 489 671 514 653 q 403 689 464 689 m 418 921 q 578 890 504 921 q 713 799 652 860 q 805 663 774 737 q 836 503 836 588 q 805 344 836 418 q 713 208 774 270 q 577 116 651 146 q 418 85 503 85 q 259 116 333 85 q 123 208 185 146 q 31 344 62 270 q 0 503 0 418 q 31 663 0 588 q 123 799 62 737 q 258 890 184 860 q 418 921 332 921 m 418 851 q 284 826 346 851 q 172 750 223 801 q 95 637 121 699 q 69 503 69 574 q 95 370 69 432 q 172 257 121 308 q 285 180 224 205 q 418 154 347 154 q 551 180 490 154 q 664 257 612 205 q 741 370 715 309 q 766 503 766 431 q 741 637 766 574 q 664 750 715 699 q 552 826 613 801 q 418 851 490 851 z "},"¯":{"ha":836,"x_min":79,"x_max":756,"o":"m 79 1035 l 756 1035 l 756 935 l 79 935 l 79 1035 z "},"°":{"ha":836,"x_min":203,"x_max":633,"o":"m 418 1031 q 502 1014 462 1031 q 571 966 541 998 q 617 897 602 936 q 633 814 633 859 q 570 662 633 724 q 416 600 507 600 q 264 661 325 600 q 203 814 203 722 q 265 968 203 905 q 418 1031 328 1031 m 418 943 q 327 906 364 943 q 289 814 289 868 q 326 723 289 760 q 416 686 363 686 q 509 724 471 686 q 547 814 547 761 q 509 905 547 867 q 418 943 471 943 z "},"±":{"ha":836,"x_min":60,"x_max":777,"o":"m 60 115 l 777 115 l 777 0 l 60 0 l 60 115 m 475 876 l 475 625 l 777 625 l 777 510 l 475 510 l 475 258 l 361 258 l 361 510 l 60 510 l 60 625 l 361 625 l 361 876 l 475 876 z "},"²":{"ha":836,"x_min":218,"x_max":606,"o":"m 328 530 l 606 530 l 606 453 l 218 453 l 218 528 l 375 681 q 471 788 444 747 q 498 864 498 829 q 465 931 498 905 q 375 957 431 957 q 303 945 342 957 q 222 908 265 932 l 222 993 q 308 1021 267 1012 q 389 1031 349 1031 q 543 986 485 1031 q 602 868 602 941 q 576 789 602 829 q 471 669 551 749 l 328 530 z "},"³":{"ha":836,"x_min":221,"x_max":627,"o":"m 496 760 q 593 709 559 745 q 627 618 627 672 q 562 488 627 534 q 378 443 498 443 q 300 450 338 443 q 221 471 261 457 l 221 553 q 306 526 268 534 q 375 517 345 517 q 484 544 444 517 q 524 618 524 572 q 486 694 524 668 q 375 720 449 720 l 330 720 l 330 793 l 380 793 q 477 814 444 793 q 510 876 510 836 q 477 936 510 914 q 386 957 445 957 q 318 949 356 957 q 240 925 280 941 l 240 1007 q 327 1025 287 1019 q 400 1031 366 1031 q 555 991 498 1031 q 612 884 612 951 q 583 804 612 836 q 496 760 553 772 z "},"´":{"ha":836,"x_min":322,"x_max":647,"o":"m 513 1111 l 647 1111 l 427 856 l 322 856 l 513 1111 z "},"µ":{"ha":836,"x_min":132,"x_max":802,"o":"m 132 -290 l 132 760 l 257 760 l 257 288 q 298 140 257 191 q 414 89 338 89 q 544 146 500 89 q 587 317 587 204 l 587 760 l 713 760 l 713 174 q 724 115 713 134 q 757 96 734 96 q 773 99 763 96 q 802 111 783 102 l 802 11 q 753 -12 776 -5 q 707 -20 730 -20 q 639 7 665 -20 q 606 87 614 34 q 529 7 574 33 q 424 -20 484 -20 q 318 6 361 -20 q 245 86 275 32 l 245 -290 l 132 -290 z "},"¶":{"ha":836,"x_min":72,"x_max":699,"o":"m 395 1013 l 699 1013 l 699 -134 l 603 -134 l 603 929 l 473 929 l 473 -134 l 378 -134 l 378 440 q 152 527 232 452 q 72 726 72 602 q 160 934 72 855 q 395 1013 249 1013 z "},"·":{"ha":836,"x_min":332,"x_max":503,"o":"m 332 586 l 503 586 l 503 379 l 332 379 l 332 586 z "},"¸":{"ha":836,"x_min":268,"x_max":549,"o":"m 475 0 q 531 -78 513 -42 q 549 -146 549 -113 q 508 -237 549 -206 q 387 -268 467 -268 q 327 -264 357 -268 q 268 -252 298 -260 l 268 -163 q 316 -179 291 -174 q 374 -184 342 -184 q 434 -168 413 -184 q 454 -121 454 -152 q 439 -71 454 -100 q 395 0 425 -41 l 475 0 z "},"¹":{"ha":836,"x_min":233,"x_max":621,"o":"m 245 528 l 385 528 l 385 942 l 233 914 l 233 993 l 389 1019 l 482 1019 l 482 528 l 621 528 l 621 453 l 245 453 l 245 528 z "},"º":{"ha":836,"x_min":165,"x_max":671,"o":"m 418 951 q 310 899 349 951 q 271 751 271 846 q 310 605 271 657 q 418 553 349 553 q 526 606 486 553 q 566 751 566 659 q 527 899 566 846 q 418 951 488 951 m 418 1031 q 602 955 533 1031 q 671 751 671 879 q 602 549 671 625 q 418 473 534 473 q 234 549 302 473 q 165 751 165 625 q 234 955 165 879 q 418 1031 303 1031 m 187 401 l 646 401 l 646 318 l 187 318 l 187 401 z "},"»":{"ha":836,"x_min":131,"x_max":757,"o":"m 439 718 l 757 435 l 757 379 l 439 96 l 439 225 l 643 407 l 439 589 l 439 718 m 131 718 l 449 435 l 449 379 l 131 96 l 131 225 l 335 407 l 131 589 l 131 718 z "},"¼":{"ha":836,"x_min":18,"x_max":755,"o":"m 553 384 l 663 384 l 663 19 l 741 19 l 741 -56 l 663 -56 l 663 -182 l 569 -182 l 569 -56 l 307 -56 l 307 26 l 553 384 m 569 299 l 383 19 l 569 19 l 569 299 m 71 633 l 210 633 l 210 1048 l 59 1020 l 59 1099 l 214 1125 l 308 1125 l 308 633 l 446 633 l 446 559 l 71 559 l 71 633 m 35 342 l 18 415 l 737 593 l 755 519 l 35 342 z "},"½":{"ha":836,"x_min":18,"x_max":755,"o":"m 71 633 l 210 633 l 210 1048 l 59 1020 l 59 1099 l 214 1125 l 308 1125 l 308 633 l 446 633 l 446 559 l 71 559 l 71 633 m 35 342 l 18 415 l 737 593 l 755 519 l 35 342 m 464 -105 l 742 -105 l 742 -182 l 355 -182 l 355 -108 l 511 45 q 607 153 580 111 q 635 229 635 194 q 601 296 635 270 q 511 321 567 321 q 440 309 478 321 q 359 273 401 297 l 359 357 q 444 386 403 376 q 525 395 485 395 q 680 350 621 395 q 738 233 738 305 q 713 154 738 194 q 607 34 688 113 l 464 -105 z "},"¾":{"ha":836,"x_min":18,"x_max":755,"o":"m 553 384 l 663 384 l 663 19 l 741 19 l 741 -56 l 663 -56 l 663 -182 l 569 -182 l 569 -56 l 307 -56 l 307 26 l 553 384 m 569 299 l 383 19 l 569 19 l 569 299 m 342 865 q 440 814 406 851 q 473 724 473 778 q 409 594 473 640 q 224 549 345 549 q 146 556 185 549 q 68 576 108 563 l 68 659 q 153 631 115 640 q 222 623 191 623 q 330 650 290 623 q 370 724 370 677 q 333 800 370 774 q 222 825 296 825 l 177 825 l 177 899 l 227 899 q 323 920 290 899 q 357 982 357 941 q 324 1041 357 1020 q 233 1063 292 1063 q 165 1055 203 1063 q 87 1031 127 1046 l 87 1113 q 173 1131 134 1124 q 247 1137 213 1137 q 402 1097 345 1137 q 459 989 459 1057 q 429 910 459 941 q 342 865 399 878 m 35 342 l 18 415 l 737 593 l 755 519 l 35 342 z "},"¿":{"ha":836,"x_min":131,"x_max":671,"o":"m 372 741 l 501 741 l 501 636 q 480 523 501 570 q 403 421 460 477 l 342 361 q 284 291 300 321 q 268 228 268 261 q 312 130 268 168 q 431 93 357 93 q 544 116 484 93 q 671 186 604 140 l 671 58 q 542 1 607 20 q 407 -18 477 -18 q 206 47 281 -18 q 131 221 131 112 q 154 317 131 273 q 240 424 176 361 l 300 482 q 358 554 345 526 q 371 625 371 583 q 371 629 371 626 q 372 657 372 644 l 372 741 m 505 840 l 368 840 l 368 1013 l 505 1013 l 505 840 z "},"À":{"ha":836,"x_min":25,"x_max":811,"o":"m 418 892 l 273 374 l 562 374 l 418 892 m 335 1013 l 501 1013 l 811 0 l 669 0 l 595 264 l 240 264 l 167 0 l 25 0 l 335 1013 m 380 1288 l 514 1109 l 410 1109 l 256 1288 l 380 1288 z "},"Á":{"ha":836,"x_min":25,"x_max":811,"o":"m 418 892 l 273 374 l 562 374 l 418 892 m 335 1013 l 501 1013 l 811 0 l 669 0 l 595 264 l 240 264 l 167 0 l 25 0 l 335 1013 m 456 1288 l 582 1288 l 427 1109 l 322 1109 l 456 1288 z "},"Â":{"ha":836,"x_min":25,"x_max":811,"o":"m 418 892 l 273 374 l 562 374 l 418 892 m 335 1013 l 501 1013 l 811 0 l 669 0 l 595 264 l 240 264 l 167 0 l 25 0 l 335 1013 m 354 1289 l 482 1289 l 625 1109 l 530 1109 l 418 1230 l 306 1109 l 211 1109 l 354 1289 z "},"Ã":{"ha":836,"x_min":25,"x_max":811,"o":"m 418 892 l 273 374 l 562 374 l 418 892 m 335 1013 l 501 1013 l 811 0 l 669 0 l 595 264 l 240 264 l 167 0 l 25 0 l 335 1013 m 415 1160 l 376 1182 q 349 1195 359 1192 q 330 1199 338 1199 q 293 1182 307 1199 q 279 1135 279 1165 l 279 1131 l 195 1131 q 230 1239 195 1199 q 322 1279 264 1279 q 367 1274 347 1279 q 421 1250 388 1268 l 460 1230 q 487 1217 475 1221 q 509 1213 498 1213 q 543 1230 530 1213 q 557 1275 557 1247 l 557 1279 l 642 1279 q 606 1171 640 1211 q 514 1131 571 1131 q 471 1136 491 1131 q 415 1160 450 1141 z "},"Ä":{"ha":836,"x_min":25,"x_max":811,"o":"m 418 892 l 273 374 l 562 374 l 418 892 m 335 1013 l 501 1013 l 811 0 l 669 0 l 595 264 l 240 264 l 167 0 l 25 0 l 335 1013 m 217 1268 l 355 1268 l 355 1131 l 217 1131 l 217 1268 m 482 1268 l 619 1268 l 619 1131 l 482 1131 l 482 1268 z "},"Å":{"ha":836,"x_min":25,"x_max":811,"o":"m 521 1103 q 491 1176 521 1145 q 418 1206 460 1206 q 345 1176 374 1206 q 315 1103 315 1147 q 345 1030 315 1060 q 418 1000 375 1000 q 491 1030 460 1000 q 521 1103 521 1060 m 418 889 l 273 374 l 562 374 l 418 889 m 315 949 q 254 1012 276 971 q 232 1103 232 1053 q 286 1235 232 1180 q 418 1289 340 1289 q 550 1235 495 1289 q 604 1103 604 1180 q 583 1013 604 1053 q 521 949 561 973 l 811 0 l 669 0 l 595 264 l 240 264 l 167 0 l 25 0 l 315 949 z "},"Æ":{"ha":836,"x_min":0,"x_max":800,"o":"m 787 1013 l 787 897 l 558 897 l 558 597 l 766 597 l 766 482 l 558 482 l 558 115 l 800 115 l 800 0 l 432 0 l 432 260 l 193 260 l 125 0 l 0 0 l 278 1013 l 787 1013 m 359 897 l 222 374 l 432 374 l 432 897 l 359 897 z "},"Ç":{"ha":836,"x_min":94,"x_max":728,"o":"m 543 0 q 598 -78 581 -42 q 616 -146 616 -113 q 576 -237 616 -206 q 455 -268 535 -268 q 395 -264 425 -268 q 336 -252 366 -260 l 336 -163 q 384 -179 359 -174 q 441 -184 410 -184 q 502 -168 481 -184 q 522 -121 522 -152 q 507 -71 522 -100 q 463 0 492 -41 l 543 0 m 728 36 q 621 -6 675 8 q 504 -20 566 -20 q 202 118 309 -20 q 94 505 94 256 q 202 892 94 753 q 504 1031 311 1031 q 621 1017 566 1031 q 728 975 675 1003 l 728 835 q 620 898 677 876 q 504 920 562 920 q 304 817 370 920 q 237 505 237 713 q 304 195 237 298 q 504 92 370 92 q 621 113 564 92 q 728 176 678 135 l 728 36 z "},"È":{"ha":836,"x_min":134,"x_max":747,"o":"m 134 1013 l 734 1013 l 734 897 l 271 897 l 271 625 l 714 625 l 714 509 l 271 509 l 271 115 l 747 115 l 747 0 l 134 0 l 134 1013 m 393 1288 l 526 1109 l 422 1109 l 268 1288 l 393 1288 z "},"É":{"ha":836,"x_min":134,"x_max":747,"o":"m 134 1013 l 734 1013 l 734 897 l 271 897 l 271 625 l 714 625 l 714 509 l 271 509 l 271 115 l 747 115 l 747 0 l 134 0 l 134 1013 m 468 1288 l 594 1288 l 439 1109 l 334 1109 l 468 1288 z "},"Ê":{"ha":836,"x_min":134,"x_max":747,"o":"m 134 1013 l 734 1013 l 734 897 l 271 897 l 271 625 l 714 625 l 714 509 l 271 509 l 271 115 l 747 115 l 747 0 l 134 0 l 134 1013 m 366 1289 l 494 1289 l 637 1109 l 543 1109 l 430 1230 l 318 1109 l 223 1109 l 366 1289 z "},"Ë":{"ha":836,"x_min":134,"x_max":747,"o":"m 134 1013 l 734 1013 l 734 897 l 271 897 l 271 625 l 714 625 l 714 509 l 271 509 l 271 115 l 747 115 l 747 0 l 134 0 l 134 1013 m 229 1268 l 366 1268 l 366 1131 l 229 1131 l 229 1268 m 494 1268 l 631 1268 l 631 1131 l 494 1131 l 494 1268 z "},"Ì":{"ha":836,"x_min":136,"x_max":699,"o":"m 136 1013 l 699 1013 l 699 897 l 486 897 l 486 115 l 699 115 l 699 0 l 136 0 l 136 115 l 349 115 l 349 897 l 136 897 l 136 1013 m 380 1288 l 514 1109 l 410 1109 l 256 1288 l 380 1288 z "},"Í":{"ha":836,"x_min":136,"x_max":699,"o":"m 136 1013 l 699 1013 l 699 897 l 486 897 l 486 115 l 699 115 l 699 0 l 136 0 l 136 115 l 349 115 l 349 897 l 136 897 l 136 1013 m 456 1288 l 582 1288 l 427 1109 l 322 1109 l 456 1288 z "},"Î":{"ha":836,"x_min":136,"x_max":699,"o":"m 136 1013 l 699 1013 l 699 897 l 486 897 l 486 115 l 699 115 l 699 0 l 136 0 l 136 115 l 349 115 l 349 897 l 136 897 l 136 1013 m 354 1289 l 482 1289 l 625 1109 l 530 1109 l 418 1230 l 306 1109 l 211 1109 l 354 1289 z "},"Ï":{"ha":836,"x_min":136,"x_max":699,"o":"m 136 1013 l 699 1013 l 699 897 l 486 897 l 486 115 l 699 115 l 699 0 l 136 0 l 136 115 l 349 115 l 349 897 l 136 897 l 136 1013 m 216 1268 l 354 1268 l 354 1131 l 216 1131 l 216 1268 m 481 1268 l 618 1268 l 618 1131 l 481 1131 l 481 1268 z "},"Ð":{"ha":836,"x_min":5,"x_max":747,"o":"m 296 1013 q 637 889 528 1013 q 747 505 747 766 q 637 123 747 246 q 296 0 527 0 l 90 0 l 90 481 l 5 481 l 5 582 l 90 582 l 90 1013 l 296 1013 m 296 113 q 537 198 469 113 q 606 505 606 283 q 537 815 606 730 q 296 900 469 900 l 231 900 l 231 582 l 410 582 l 410 481 l 231 481 l 231 113 l 296 113 z "},"Ñ":{"ha":836,"x_min":13,"x_max":742,"o":"m 13 1009 l 200 1009 l 596 178 l 596 1009 l 742 1009 l 742 0 l 555 0 l 159 831 l 159 0 l 13 0 l 13 1009 m 374 1162 l 336 1185 q 308 1198 319 1194 q 290 1202 298 1202 q 252 1185 266 1202 q 239 1137 239 1168 l 239 1133 l 154 1133 q 189 1242 154 1202 q 281 1282 224 1282 q 327 1276 306 1282 q 380 1253 347 1271 l 419 1232 q 446 1219 434 1223 q 468 1215 458 1215 q 503 1233 489 1215 q 516 1278 516 1250 l 516 1282 l 601 1282 q 565 1174 600 1214 q 473 1133 530 1133 q 430 1139 450 1133 q 374 1162 410 1144 z "},"Ò":{"ha":836,"x_min":79,"x_max":757,"o":"m 614 505 q 568 824 614 728 q 418 920 522 920 q 268 824 314 920 q 222 505 222 728 q 268 187 222 283 q 418 92 314 92 q 568 187 522 92 q 614 505 614 282 m 757 505 q 673 111 757 241 q 418 -20 589 -20 q 163 110 246 -20 q 79 505 79 239 q 163 901 79 770 q 418 1031 247 1031 q 673 901 589 1031 q 757 505 757 770 m 380 1288 l 514 1109 l 410 1109 l 256 1288 l 380 1288 z "},"Ó":{"ha":836,"x_min":79,"x_max":757,"o":"m 614 505 q 568 824 614 728 q 418 920 522 920 q 268 824 314 920 q 222 505 222 728 q 268 187 222 283 q 418 92 314 92 q 568 187 522 92 q 614 505 614 282 m 757 505 q 673 111 757 241 q 418 -20 589 -20 q 163 110 246 -20 q 79 505 79 239 q 163 901 79 770 q 418 1031 247 1031 q 673 901 589 1031 q 757 505 757 770 m 456 1288 l 582 1288 l 427 1109 l 322 1109 l 456 1288 z "},"Ô":{"ha":836,"x_min":79,"x_max":757,"o":"m 614 505 q 568 824 614 728 q 418 920 522 920 q 268 824 314 920 q 222 505 222 728 q 268 187 222 283 q 418 92 314 92 q 568 187 522 92 q 614 505 614 282 m 757 505 q 673 111 757 241 q 418 -20 589 -20 q 163 110 246 -20 q 79 505 79 239 q 163 901 79 770 q 418 1031 247 1031 q 673 901 589 1031 q 757 505 757 770 m 354 1289 l 482 1289 l 625 1109 l 530 1109 l 418 1230 l 306 1109 l 211 1109 l 354 1289 z "},"Õ":{"ha":836,"x_min":79,"x_max":757,"o":"m 614 505 q 568 824 614 728 q 418 920 522 920 q 268 824 314 920 q 222 505 222 728 q 268 187 222 283 q 418 92 314 92 q 568 187 522 92 q 614 505 614 282 m 757 505 q 673 111 757 241 q 418 -20 589 -20 q 163 110 246 -20 q 79 505 79 239 q 163 901 79 770 q 418 1031 247 1031 q 673 901 589 1031 q 757 505 757 770 m 415 1160 l 376 1182 q 349 1195 359 1192 q 330 1199 338 1199 q 293 1182 307 1199 q 279 1135 279 1165 l 279 1131 l 195 1131 q 230 1239 195 1199 q 322 1279 264 1279 q 367 1274 347 1279 q 421 1250 388 1268 l 460 1230 q 487 1217 475 1221 q 509 1213 498 1213 q 543 1230 530 1213 q 557 1275 557 1247 l 557 1279 l 642 1279 q 606 1171 640 1211 q 514 1131 571 1131 q 471 1136 491 1131 q 415 1160 450 1141 z "},"Ö":{"ha":836,"x_min":79,"x_max":757,"o":"m 614 505 q 568 824 614 728 q 418 920 522 920 q 268 824 314 920 q 222 505 222 728 q 268 187 222 283 q 418 92 314 92 q 568 187 522 92 q 614 505 614 282 m 757 505 q 673 111 757 241 q 418 -20 589 -20 q 163 110 246 -20 q 79 505 79 239 q 163 901 79 770 q 418 1031 247 1031 q 673 901 589 1031 q 757 505 757 770 m 217 1268 l 355 1268 l 355 1131 l 217 1131 l 217 1268 m 482 1268 l 619 1268 l 619 1131 l 482 1131 l 482 1268 z "},"×":{"ha":836,"x_min":102,"x_max":734,"o":"m 102 199 l 339 435 l 102 672 l 180 751 l 418 514 l 656 751 l 734 672 l 497 435 l 733 199 l 654 118 l 418 355 l 182 118 l 102 199 z "},"Ø":{"ha":836,"x_min":5,"x_max":814,"o":"m 252 205 q 316 122 272 153 q 418 92 361 92 q 568 187 522 92 q 614 505 614 282 q 610 626 614 580 q 600 703 607 672 l 252 205 m 229 319 l 571 807 q 515 891 554 862 q 418 920 476 920 q 267 821 311 920 q 222 465 222 722 q 224 377 222 411 q 229 319 226 342 m 700 846 q 742 703 728 791 q 757 505 757 616 q 673 111 757 241 q 418 -20 589 -20 q 275 8 336 -20 q 172 90 214 35 l 75 -47 l 5 0 l 126 171 q 92 309 104 220 q 79 505 79 398 q 163 901 79 770 q 418 1031 247 1031 q 554 1003 496 1031 q 652 921 613 975 l 746 1057 l 814 1007 l 700 846 z "},"Ù":{"ha":836,"x_min":100,"x_max":736,"o":"m 100 389 l 100 1013 l 237 1013 l 237 326 q 241 221 237 252 q 256 172 245 189 q 318 112 277 132 q 418 92 359 92 q 517 112 477 92 q 581 172 558 132 q 595 220 591 189 q 599 325 599 252 l 599 1013 l 736 1013 l 736 389 q 716 168 736 233 q 650 60 697 102 q 547 0 605 20 q 418 -20 490 -20 q 289 0 347 -20 q 186 60 231 20 q 119 169 139 102 q 100 389 100 235 m 380 1288 l 514 1109 l 410 1109 l 256 1288 l 380 1288 z "},"Ú":{"ha":836,"x_min":100,"x_max":736,"o":"m 100 389 l 100 1013 l 237 1013 l 237 326 q 241 221 237 252 q 256 172 245 189 q 318 112 277 132 q 418 92 359 92 q 517 112 477 92 q 581 172 558 132 q 595 220 591 189 q 599 325 599 252 l 599 1013 l 736 1013 l 736 389 q 716 168 736 233 q 650 60 697 102 q 547 0 605 20 q 418 -20 490 -20 q 289 0 347 -20 q 186 60 231 20 q 119 169 139 102 q 100 389 100 235 m 456 1288 l 582 1288 l 427 1109 l 322 1109 l 456 1288 z "},"Û":{"ha":836,"x_min":100,"x_max":736,"o":"m 100 389 l 100 1013 l 237 1013 l 237 326 q 241 221 237 252 q 256 172 245 189 q 318 112 277 132 q 418 92 359 92 q 517 112 477 92 q 581 172 558 132 q 595 220 591 189 q 599 325 599 252 l 599 1013 l 736 1013 l 736 389 q 716 168 736 233 q 650 60 697 102 q 547 0 605 20 q 418 -20 490 -20 q 289 0 347 -20 q 186 60 231 20 q 119 169 139 102 q 100 389 100 235 m 354 1289 l 481 1289 l 625 1109 l 530 1109 l 418 1230 l 306 1109 l 211 1109 l 354 1289 z "},"Ü":{"ha":836,"x_min":100,"x_max":736,"o":"m 100 389 l 100 1013 l 237 1013 l 237 326 q 241 221 237 252 q 256 172 245 189 q 318 112 277 132 q 418 92 359 92 q 517 112 477 92 q 581 172 558 132 q 595 220 591 189 q 599 325 599 252 l 599 1013 l 736 1013 l 736 389 q 716 168 736 233 q 650 60 697 102 q 547 0 605 20 q 418 -20 490 -20 q 289 0 347 -20 q 186 60 231 20 q 119 169 139 102 q 100 389 100 235 m 216 1268 l 354 1268 l 354 1131 l 216 1131 l 216 1268 m 482 1268 l 619 1268 l 619 1131 l 482 1131 l 482 1268 z "},"Ý":{"ha":836,"x_min":25,"x_max":811,"o":"m 25 1013 l 171 1013 l 418 566 l 664 1013 l 811 1013 l 486 454 l 486 0 l 349 0 l 349 454 l 25 1013 m 456 1288 l 582 1288 l 427 1109 l 322 1109 l 456 1288 z "},"Þ":{"ha":836,"x_min":136,"x_max":790,"o":"m 273 717 l 273 361 l 432 361 q 592 406 539 361 q 646 539 646 450 q 592 672 646 628 q 432 717 539 717 l 273 717 m 136 1013 l 273 1013 l 273 829 l 446 829 q 706 758 622 829 q 790 539 790 687 q 706 320 790 391 q 446 249 622 249 l 273 249 l 273 0 l 136 0 l 136 1013 z "},"ß":{"ha":836,"x_min":127,"x_max":779,"o":"m 127 771 q 199 985 127 916 q 416 1055 270 1055 q 626 980 555 1055 q 699 759 697 905 q 536 707 593 749 q 479 597 479 665 q 498 538 479 564 q 562 484 517 512 l 602 458 q 742 340 704 395 q 779 205 779 284 q 703 41 779 101 q 494 -20 627 -20 q 402 -11 448 -20 q 311 14 356 -3 l 311 125 q 408 94 363 104 q 493 83 453 83 q 610 116 566 83 q 653 204 653 149 q 631 284 653 252 q 528 367 609 317 l 482 393 q 389 476 420 431 q 358 575 358 522 q 413 720 358 662 q 574 802 468 778 q 531 913 572 874 q 414 951 490 951 q 293 907 332 951 q 254 768 254 863 l 254 0 l 127 0 l 127 771 z "},"à":{"ha":836,"x_min":90,"x_max":718,"o":"m 476 382 l 435 382 q 270 343 326 382 q 215 229 215 305 q 256 123 215 161 q 371 85 298 85 q 533 156 474 85 q 593 354 592 228 l 593 382 l 476 382 m 718 433 l 718 0 l 593 0 l 593 113 q 492 13 553 45 q 345 -20 431 -20 q 159 46 229 -20 q 90 221 90 111 q 175 414 90 348 q 425 479 260 479 l 593 479 l 593 499 q 547 631 592 590 q 401 672 501 672 q 273 654 338 672 q 146 600 208 635 l 146 725 q 278 765 215 751 q 401 778 342 778 q 563 750 496 778 q 671 667 629 722 q 707 583 696 633 q 718 433 718 533 m 323 1111 l 514 856 l 410 856 l 189 1111 l 323 1111 z "},"á":{"ha":836,"x_min":90,"x_max":718,"o":"m 476 382 l 435 382 q 270 343 326 382 q 215 229 215 305 q 256 123 215 161 q 371 85 298 85 q 533 156 474 85 q 593 354 592 228 l 593 382 l 476 382 m 718 433 l 718 0 l 593 0 l 593 113 q 492 13 553 45 q 345 -20 431 -20 q 159 46 229 -20 q 90 221 90 111 q 175 414 90 348 q 425 479 260 479 l 593 479 l 593 499 q 547 631 592 590 q 401 672 501 672 q 273 654 338 672 q 146 600 208 635 l 146 725 q 278 765 215 751 q 401 778 342 778 q 563 750 496 778 q 671 667 629 722 q 707 583 696 633 q 718 433 718 533 m 513 1111 l 647 1111 l 427 856 l 322 856 l 513 1111 z "},"â":{"ha":836,"x_min":90,"x_max":718,"o":"m 476 382 l 435 382 q 270 343 326 382 q 215 229 215 305 q 256 123 215 161 q 371 85 298 85 q 533 156 474 85 q 593 354 592 228 l 593 382 l 476 382 m 718 433 l 718 0 l 593 0 l 593 113 q 492 13 553 45 q 345 -20 431 -20 q 159 46 229 -20 q 90 221 90 111 q 175 414 90 348 q 425 479 260 479 l 593 479 l 593 499 q 547 631 592 590 q 401 672 501 672 q 273 654 338 672 q 146 600 208 635 l 146 725 q 278 765 215 751 q 401 778 342 778 q 563 750 496 778 q 671 667 629 722 q 707 583 696 633 q 718 433 718 533 m 368 1111 l 468 1111 l 635 856 l 541 856 l 418 1022 l 296 856 l 201 856 l 368 1111 z "},"ã":{"ha":836,"x_min":90,"x_max":718,"o":"m 476 382 l 435 382 q 270 343 326 382 q 215 229 215 305 q 256 123 215 161 q 371 85 298 85 q 533 156 474 85 q 593 354 592 228 l 593 382 l 476 382 m 718 433 l 718 0 l 593 0 l 593 113 q 492 13 553 45 q 345 -20 431 -20 q 159 46 229 -20 q 90 221 90 111 q 175 414 90 348 q 425 479 260 479 l 593 479 l 593 499 q 547 631 592 590 q 401 672 501 672 q 273 654 338 672 q 146 600 208 635 l 146 725 q 278 765 215 751 q 401 778 342 778 q 563 750 496 778 q 671 667 629 722 q 707 583 696 633 q 718 433 718 533 m 415 929 l 376 966 q 351 986 362 980 q 330 993 340 993 q 292 968 304 993 q 279 888 280 943 l 195 888 q 230 1029 195 979 q 326 1079 264 1079 q 374 1069 353 1079 q 421 1038 396 1060 l 460 1000 q 485 980 474 987 q 505 974 496 974 q 544 999 532 974 q 557 1079 556 1024 l 642 1079 q 606 938 641 988 q 510 888 572 888 q 462 897 484 888 q 415 929 440 907 z "},"ä":{"ha":836,"x_min":90,"x_max":718,"o":"m 476 382 l 435 382 q 270 343 326 382 q 215 229 215 305 q 256 123 215 161 q 371 85 298 85 q 533 156 474 85 q 593 354 592 228 l 593 382 l 476 382 m 718 433 l 718 0 l 593 0 l 593 113 q 492 13 553 45 q 345 -20 431 -20 q 159 46 229 -20 q 90 221 90 111 q 175 414 90 348 q 425 479 260 479 l 593 479 l 593 499 q 547 631 592 590 q 401 672 501 672 q 273 654 338 672 q 146 600 208 635 l 146 725 q 278 765 215 751 q 401 778 342 778 q 563 750 496 778 q 671 667 629 722 q 707 583 696 633 q 718 433 718 533 m 216 1053 l 354 1053 l 354 916 l 216 916 l 216 1053 m 482 1053 l 619 1053 l 619 916 l 482 916 l 482 1053 z "},"å":{"ha":836,"x_min":90,"x_max":718,"o":"m 476 382 l 435 382 q 270 343 326 382 q 215 229 215 305 q 256 123 215 161 q 371 85 298 85 q 533 156 474 85 q 593 354 592 228 l 593 382 l 476 382 m 718 433 l 718 0 l 593 0 l 593 113 q 492 13 553 45 q 345 -20 431 -20 q 159 46 229 -20 q 90 221 90 111 q 175 414 90 348 q 425 479 260 479 l 593 479 l 593 499 q 547 631 592 590 q 401 672 501 672 q 273 654 338 672 q 146 600 208 635 l 146 725 q 278 765 215 751 q 401 778 342 778 q 563 750 496 778 q 671 667 629 722 q 707 583 696 633 q 718 433 718 533 m 604 1034 q 550 901 604 956 q 418 847 496 847 q 286 901 340 847 q 232 1034 232 956 q 286 1165 232 1112 q 418 1219 340 1219 q 550 1165 496 1219 q 604 1034 604 1112 m 521 1034 q 491 1106 521 1076 q 418 1136 461 1136 q 345 1106 374 1136 q 315 1034 315 1077 q 345 960 315 989 q 418 930 374 930 q 491 960 461 930 q 521 1034 521 990 z "},"æ":{"ha":836,"x_min":28,"x_max":814,"o":"m 368 300 l 368 349 l 335 349 q 180 318 220 349 q 139 211 139 288 q 169 118 139 151 q 256 85 199 85 q 343 130 318 85 q 368 300 368 175 m 703 446 l 703 481 q 676 628 703 583 q 591 673 650 673 q 507 627 532 673 q 481 475 481 581 l 481 446 l 703 446 m 814 349 l 481 349 q 480 327 480 338 q 479 292 479 315 q 514 134 479 182 q 624 85 548 85 q 721 102 677 85 q 799 154 765 119 l 799 37 q 717 -5 762 9 q 624 -20 672 -20 q 499 8 549 -20 q 427 89 448 36 q 355 7 400 35 q 244 -20 310 -20 q 83 39 138 -20 q 28 208 28 97 q 96 385 28 324 q 293 446 163 446 l 372 446 l 372 505 q 339 630 372 587 q 241 673 305 673 q 159 659 203 673 q 72 618 114 644 l 72 732 q 169 767 124 755 q 254 778 214 778 q 358 756 316 778 q 425 692 400 735 q 492 755 448 733 q 597 778 537 778 q 765 697 715 778 q 814 410 814 617 l 814 349 z "},"ç":{"ha":836,"x_min":132,"x_max":720,"o":"m 545 0 q 601 -78 583 -42 q 619 -146 619 -113 q 578 -237 619 -206 q 458 -268 538 -268 q 398 -264 427 -268 q 338 -252 368 -260 l 338 -163 q 387 -179 361 -174 q 444 -184 412 -184 q 504 -168 484 -184 q 525 -121 525 -152 q 510 -71 525 -100 q 465 0 495 -41 l 545 0 m 720 39 q 616 -5 669 9 q 507 -20 563 -20 q 232 86 331 -20 q 132 379 132 192 q 232 672 132 566 q 507 778 331 778 q 614 764 562 778 q 720 720 667 749 l 720 589 q 620 652 670 633 q 507 672 570 672 q 327 596 390 672 q 264 379 264 520 q 327 162 264 239 q 507 86 391 86 q 624 106 572 86 q 720 168 675 126 l 720 39 z "},"è":{"ha":836,"x_min":83,"x_max":760,"o":"m 760 442 l 760 381 l 219 381 l 219 377 q 278 154 214 222 q 461 86 343 86 q 586 105 521 86 q 725 163 651 124 l 725 39 q 588 -5 654 9 q 460 -20 522 -20 q 183 86 283 -20 q 83 379 83 193 q 181 669 83 561 q 441 778 279 778 q 670 680 587 778 q 760 442 754 581 m 635 479 q 577 615 627 557 q 436 672 528 672 q 288 612 346 672 q 224 478 229 553 l 635 479 m 333 1111 l 524 856 l 419 856 l 199 1111 l 333 1111 z "},"é":{"ha":836,"x_min":83,"x_max":760,"o":"m 760 442 l 760 381 l 219 381 l 219 377 q 278 154 214 222 q 461 86 343 86 q 586 105 521 86 q 725 163 651 124 l 725 39 q 588 -5 654 9 q 460 -20 522 -20 q 183 86 283 -20 q 83 379 83 193 q 181 669 83 561 q 441 778 279 778 q 670 680 587 778 q 760 442 754 581 m 635 479 q 577 615 627 557 q 436 672 528 672 q 288 612 346 672 q 224 478 229 553 l 635 479 m 522 1111 l 656 1111 l 436 856 l 332 856 l 522 1111 z "},"ê":{"ha":836,"x_min":83,"x_max":760,"o":"m 760 442 l 760 381 l 219 381 l 219 377 q 278 154 214 222 q 461 86 343 86 q 586 105 521 86 q 725 163 651 124 l 725 39 q 588 -5 654 9 q 460 -20 522 -20 q 183 86 283 -20 q 83 379 83 193 q 181 669 83 561 q 441 778 279 778 q 670 680 587 778 q 760 442 754 581 m 635 479 q 577 615 627 557 q 436 672 528 672 q 288 612 346 672 q 224 478 229 553 l 635 479 m 378 1111 l 477 1111 l 644 856 l 550 856 l 427 1022 l 305 856 l 211 856 l 378 1111 z "},"ë":{"ha":836,"x_min":83,"x_max":760,"o":"m 760 442 l 760 381 l 219 381 l 219 377 q 278 154 214 222 q 461 86 343 86 q 586 105 521 86 q 725 163 651 124 l 725 39 q 588 -5 654 9 q 460 -20 522 -20 q 183 86 283 -20 q 83 379 83 193 q 181 669 83 561 q 441 778 279 778 q 670 680 587 778 q 760 442 754 581 m 635 479 q 577 615 627 557 q 436 672 528 672 q 288 612 346 672 q 224 478 229 553 l 635 479 m 226 1053 l 363 1053 l 363 916 l 226 916 l 226 1053 m 492 1053 l 629 1053 l 629 916 l 492 916 l 492 1053 z "},"ì":{"ha":836,"x_min":121,"x_max":741,"o":"m 174 760 l 493 760 l 493 97 l 741 97 l 741 0 l 121 0 l 121 97 l 368 97 l 368 663 l 174 663 l 174 760 m 323 1111 l 514 856 l 410 856 l 189 1111 l 323 1111 z "},"í":{"ha":836,"x_min":121,"x_max":741,"o":"m 174 760 l 493 760 l 493 97 l 741 97 l 741 0 l 121 0 l 121 97 l 368 97 l 368 663 l 174 663 l 174 760 m 513 1111 l 647 1111 l 427 856 l 322 856 l 513 1111 z "},"î":{"ha":836,"x_min":121,"x_max":741,"o":"m 174 760 l 493 760 l 493 97 l 741 97 l 741 0 l 121 0 l 121 97 l 368 97 l 368 663 l 174 663 l 174 760 m 368 1111 l 468 1111 l 635 856 l 541 856 l 418 1022 l 296 856 l 201 856 l 368 1111 z "},"ï":{"ha":836,"x_min":121,"x_max":741,"o":"m 174 760 l 493 760 l 493 97 l 741 97 l 741 0 l 121 0 l 121 97 l 368 97 l 368 663 l 174 663 l 174 760 m 229 1053 l 367 1053 l 367 916 l 229 916 l 229 1053 m 495 1053 l 632 1053 l 632 916 l 495 916 l 495 1053 z "},"ð":{"ha":836,"x_min":93,"x_max":743,"o":"m 486 900 q 682 627 620 756 q 743 363 743 498 q 658 81 743 181 q 418 -20 573 -20 q 178 81 263 -20 q 93 363 93 181 q 178 643 93 543 q 415 743 263 743 q 450 743 438 743 q 472 741 462 742 q 425 801 450 771 q 375 861 401 831 l 186 799 l 165 865 l 326 920 l 203 1055 l 351 1055 l 437 957 l 633 1021 l 656 954 l 486 900 m 538 623 q 486 636 514 631 q 428 640 458 640 q 277 569 329 640 q 225 363 225 498 q 275 158 225 230 q 418 86 326 86 q 561 158 511 86 q 611 363 611 230 q 591 506 611 437 q 538 623 572 575 z "},"ñ":{"ha":836,"x_min":132,"x_max":713,"o":"m 713 471 l 713 0 l 587 0 l 587 471 q 551 621 587 573 q 439 669 515 669 q 304 607 351 669 q 257 429 257 545 l 257 0 l 132 0 l 132 760 l 257 760 l 257 646 q 347 744 290 711 q 482 778 404 778 q 655 702 598 778 q 713 471 713 625 m 415 929 l 376 966 q 351 986 362 980 q 330 993 340 993 q 292 968 304 993 q 279 888 280 943 l 195 888 q 230 1029 195 979 q 326 1079 264 1079 q 374 1069 353 1079 q 421 1038 396 1060 l 460 1000 q 485 980 474 987 q 505 974 496 974 q 544 999 532 974 q 557 1079 556 1024 l 642 1079 q 606 938 641 988 q 510 888 572 888 q 462 897 484 888 q 415 929 440 907 z "},"ò":{"ha":836,"x_min":93,"x_max":743,"o":"m 418 672 q 274 598 323 672 q 225 379 225 524 q 274 160 225 235 q 418 86 323 86 q 562 160 513 86 q 611 379 611 235 q 562 598 611 524 q 418 672 513 672 m 418 778 q 660 675 576 778 q 743 379 743 573 q 660 82 743 184 q 418 -20 576 -20 q 176 82 260 -20 q 93 379 93 184 q 176 675 93 573 q 418 778 260 778 m 323 1111 l 514 856 l 410 856 l 189 1111 l 323 1111 z "},"ó":{"ha":836,"x_min":93,"x_max":743,"o":"m 418 672 q 274 598 323 672 q 225 379 225 524 q 274 160 225 235 q 418 86 323 86 q 562 160 513 86 q 611 379 611 235 q 562 598 611 524 q 418 672 513 672 m 418 778 q 660 675 576 778 q 743 379 743 573 q 660 82 743 184 q 418 -20 576 -20 q 176 82 260 -20 q 93 379 93 184 q 176 675 93 573 q 418 778 260 778 m 513 1111 l 647 1111 l 427 856 l 322 856 l 513 1111 z "},"ô":{"ha":836,"x_min":93,"x_max":743,"o":"m 418 672 q 274 598 323 672 q 225 379 225 524 q 274 160 225 235 q 418 86 323 86 q 562 160 513 86 q 611 379 611 235 q 562 598 611 524 q 418 672 513 672 m 418 778 q 660 675 576 778 q 743 379 743 573 q 660 82 743 184 q 418 -20 576 -20 q 176 82 260 -20 q 93 379 93 184 q 176 675 93 573 q 418 778 260 778 m 368 1111 l 468 1111 l 635 856 l 541 856 l 418 1022 l 296 856 l 201 856 l 368 1111 z "},"õ":{"ha":836,"x_min":93,"x_max":743,"o":"m 418 672 q 274 598 323 672 q 225 379 225 524 q 274 160 225 235 q 418 86 323 86 q 562 160 513 86 q 611 379 611 235 q 562 598 611 524 q 418 672 513 672 m 418 778 q 660 675 576 778 q 743 379 743 573 q 660 82 743 184 q 418 -20 576 -20 q 176 82 260 -20 q 93 379 93 184 q 176 675 93 573 q 418 778 260 778 m 415 929 l 376 966 q 351 986 362 980 q 330 993 340 993 q 292 968 304 993 q 279 888 280 943 l 195 888 q 230 1029 195 979 q 326 1079 264 1079 q 374 1069 353 1079 q 421 1038 396 1060 l 460 1000 q 485 980 474 987 q 505 974 496 974 q 544 999 532 974 q 557 1079 556 1024 l 642 1079 q 606 938 641 988 q 510 888 572 888 q 462 897 484 888 q 415 929 440 907 z "},"ö":{"ha":836,"x_min":93,"x_max":743,"o":"m 418 672 q 274 598 323 672 q 225 379 225 524 q 274 160 225 235 q 418 86 323 86 q 562 160 513 86 q 611 379 611 235 q 562 598 611 524 q 418 672 513 672 m 418 778 q 660 675 576 778 q 743 379 743 573 q 660 82 743 184 q 418 -20 576 -20 q 176 82 260 -20 q 93 379 93 184 q 176 675 93 573 q 418 778 260 778 m 216 1053 l 354 1053 l 354 916 l 216 916 l 216 1053 m 483 1053 l 620 1053 l 620 916 l 483 916 l 483 1053 z "},"÷":{"ha":836,"x_min":60,"x_max":777,"o":"m 335 268 l 501 268 l 501 102 l 335 102 l 335 268 m 335 770 l 501 770 l 501 603 l 335 603 l 335 770 m 60 493 l 777 493 l 777 378 l 60 378 l 60 493 z "},"ø":{"ha":836,"x_min":32,"x_max":796,"o":"m 595 529 l 281 150 q 339 102 305 118 q 418 86 374 86 q 562 160 513 86 q 611 379 611 235 q 607 452 611 414 q 595 529 603 490 m 554 608 q 497 656 530 641 q 418 672 463 672 q 273 600 323 672 q 222 390 222 527 q 227 318 222 357 q 241 231 232 279 l 554 608 m 147 122 q 107 236 121 170 q 93 379 93 302 q 176 675 93 573 q 418 778 260 778 q 539 759 486 778 q 633 703 593 741 l 733 822 l 796 770 l 685 637 q 728 527 713 593 q 743 379 743 462 q 660 82 743 184 q 418 -20 576 -20 q 295 0 348 -20 q 203 61 241 20 l 94 -65 l 32 -14 l 147 122 z "},"ù":{"ha":836,"x_min":132,"x_max":713,"o":"m 132 288 l 132 758 l 257 758 l 257 288 q 293 137 257 185 q 406 89 330 89 q 541 151 494 89 q 587 329 587 213 l 587 758 l 713 758 l 713 0 l 587 0 l 587 114 q 497 14 554 48 q 363 -20 439 -20 q 189 57 246 -20 q 132 288 132 133 m 323 1111 l 514 856 l 410 856 l 189 1111 l 323 1111 z "},"ú":{"ha":836,"x_min":132,"x_max":713,"o":"m 132 288 l 132 758 l 257 758 l 257 288 q 293 137 257 185 q 406 89 330 89 q 541 151 494 89 q 587 329 587 213 l 587 758 l 713 758 l 713 0 l 587 0 l 587 114 q 497 14 554 48 q 363 -20 439 -20 q 189 57 246 -20 q 132 288 132 133 m 513 1111 l 647 1111 l 427 856 l 322 856 l 513 1111 z "},"û":{"ha":836,"x_min":132,"x_max":713,"o":"m 132 288 l 132 758 l 257 758 l 257 288 q 293 137 257 185 q 406 89 330 89 q 541 151 494 89 q 587 329 587 213 l 587 758 l 713 758 l 713 0 l 587 0 l 587 114 q 497 14 554 48 q 363 -20 439 -20 q 189 57 246 -20 q 132 288 132 133 m 373 1111 l 472 1111 l 639 856 l 545 856 l 422 1022 l 300 856 l 206 856 l 373 1111 z "},"ü":{"ha":836,"x_min":132,"x_max":713,"o":"m 132 288 l 132 758 l 257 758 l 257 288 q 293 137 257 185 q 406 89 330 89 q 541 151 494 89 q 587 329 587 213 l 587 758 l 713 758 l 713 0 l 587 0 l 587 114 q 497 14 554 48 q 363 -20 439 -20 q 189 57 246 -20 q 132 288 132 133 m 220 1053 l 358 1053 l 358 916 l 220 916 l 220 1053 m 487 1053 l 624 1053 l 624 916 l 487 916 l 487 1053 z "},"ý":{"ha":836,"x_min":71,"x_max":782,"o":"m 582 244 q 503 35 551 165 q 412 -183 435 -144 q 334 -262 381 -236 q 225 -289 288 -289 l 125 -289 l 125 -184 l 199 -184 q 285 -153 254 -184 q 364 12 316 -121 l 71 760 l 203 760 l 428 165 l 650 760 l 782 760 l 582 244 m 513 1111 l 647 1111 l 427 856 l 322 856 l 513 1111 z "},"þ":{"ha":836,"x_min":129,"x_max":751,"o":"m 254 96 l 254 -289 l 129 -289 l 129 1063 l 254 1063 l 254 663 q 337 748 286 719 q 457 778 389 778 q 673 671 595 778 q 751 376 751 565 q 673 86 751 191 q 457 -20 594 -20 q 336 10 388 -20 q 254 96 284 39 m 621 379 q 575 598 621 524 q 439 672 529 672 q 301 598 348 672 q 254 379 254 524 q 301 161 254 235 q 439 86 348 86 q 575 160 529 86 q 621 379 621 234 z "},"ÿ":{"ha":836,"x_min":71,"x_max":782,"o":"m 582 244 q 503 35 551 165 q 412 -183 435 -144 q 334 -262 381 -236 q 225 -289 288 -289 l 125 -289 l 125 -184 l 199 -184 q 285 -153 254 -184 q 364 12 316 -121 l 71 760 l 203 760 l 428 165 l 650 760 l 782 760 l 582 244 m 216 1053 l 354 1053 l 354 916 l 216 916 l 216 1053 m 482 1053 l 619 1053 l 619 916 l 482 916 l 482 1053 z "},"Ā":{"ha":836,"x_min":25,"x_max":811,"o":"m 216 1248 l 621 1248 l 621 1147 l 216 1147 l 216 1248 m 418 892 l 273 374 l 562 374 l 418 892 m 335 1013 l 501 1013 l 811 0 l 669 0 l 595 264 l 240 264 l 167 0 l 25 0 l 335 1013 z "},"ā":{"ha":836,"x_min":90,"x_max":718,"o":"m 215 1035 l 621 1035 l 621 935 l 215 935 l 215 1035 m 476 382 l 435 382 q 270 343 326 382 q 215 229 215 305 q 256 123 215 161 q 371 85 298 85 q 533 156 474 85 q 593 354 592 228 l 593 382 l 476 382 m 718 433 l 718 0 l 593 0 l 593 113 q 492 13 553 45 q 345 -20 431 -20 q 159 46 229 -20 q 90 221 90 111 q 175 414 90 348 q 425 479 260 479 l 593 479 l 593 499 q 547 631 592 590 q 401 672 501 672 q 273 654 338 672 q 146 600 208 635 l 146 725 q 278 765 215 751 q 401 778 342 778 q 563 750 496 778 q 671 667 629 722 q 707 583 696 633 q 718 433 718 533 z "},"Ă":{"ha":836,"x_min":25,"x_max":811,"o":"m 205 1289 l 286 1289 q 328 1233 294 1253 q 418 1214 362 1214 q 507 1233 474 1214 q 550 1289 540 1251 l 631 1289 q 569 1167 623 1208 q 418 1125 515 1125 q 267 1166 320 1125 q 205 1289 213 1208 m 418 892 l 273 374 l 562 374 l 418 892 m 335 1013 l 501 1013 l 811 0 l 669 0 l 595 264 l 240 264 l 167 0 l 25 0 l 335 1013 z "},"ă":{"ha":836,"x_min":90,"x_max":718,"o":"m 205 1090 l 286 1090 q 326 1014 294 1039 q 418 989 359 989 q 508 1014 475 989 q 550 1090 541 1039 l 631 1090 q 570 945 623 994 q 418 896 516 896 q 267 945 320 896 q 205 1090 213 994 m 476 382 l 435 382 q 270 343 326 382 q 215 229 215 305 q 256 123 215 161 q 371 85 298 85 q 533 156 474 85 q 593 354 592 228 l 593 382 l 476 382 m 718 433 l 718 0 l 593 0 l 593 113 q 492 13 553 45 q 345 -20 431 -20 q 159 46 229 -20 q 90 221 90 111 q 175 414 90 348 q 425 479 260 479 l 593 479 l 593 499 q 547 631 592 590 q 401 672 501 672 q 273 654 338 672 q 146 600 208 635 l 146 725 q 278 765 215 751 q 401 778 342 778 q 563 750 496 778 q 671 667 629 722 q 707 583 696 633 q 718 433 718 533 z "},"Ą":{"ha":836,"x_min":25,"x_max":846,"o":"m 667 0 l 747 0 q 702 -71 717 -41 q 688 -122 688 -101 q 706 -169 688 -153 q 762 -184 725 -184 q 804 -179 783 -184 q 846 -164 825 -174 l 846 -254 q 798 -264 821 -261 q 754 -268 774 -268 q 632 -238 671 -268 q 593 -146 593 -209 q 611 -78 593 -113 q 667 0 629 -42 m 418 892 l 273 374 l 562 374 l 418 892 m 335 1013 l 501 1013 l 811 0 l 669 0 l 595 264 l 240 264 l 167 0 l 25 0 l 335 1013 z "},"ą":{"ha":836,"x_min":90,"x_max":772,"o":"m 592 0 l 673 0 q 628 -71 642 -41 q 613 -122 613 -101 q 632 -169 613 -153 q 687 -184 650 -184 q 730 -179 709 -184 q 772 -164 751 -174 l 772 -254 q 723 -264 746 -261 q 680 -268 700 -268 q 558 -238 597 -268 q 519 -146 519 -209 q 537 -78 519 -113 q 592 0 555 -42 m 476 382 l 435 382 q 270 343 326 382 q 215 229 215 305 q 256 123 215 161 q 371 85 298 85 q 533 156 474 85 q 593 354 592 228 l 593 382 l 476 382 m 718 433 l 718 0 l 593 0 l 593 113 q 492 13 553 45 q 345 -20 431 -20 q 159 46 229 -20 q 90 221 90 111 q 175 414 90 348 q 425 479 260 479 l 593 479 l 593 499 q 547 631 592 590 q 401 672 501 672 q 273 654 338 672 q 146 600 208 635 l 146 725 q 278 765 215 751 q 401 778 342 778 q 563 750 496 778 q 671 667 629 722 q 707 583 696 633 q 718 433 718 533 z "},"Ć":{"ha":836,"x_min":94,"x_max":728,"o":"m 728 36 q 621 -6 675 8 q 504 -20 566 -20 q 202 118 309 -20 q 94 505 94 256 q 202 892 94 753 q 504 1031 311 1031 q 621 1017 566 1031 q 728 975 675 1003 l 728 835 q 620 898 677 876 q 504 920 562 920 q 304 817 370 920 q 237 505 237 713 q 304 195 237 298 q 504 92 370 92 q 621 113 564 92 q 728 176 678 135 l 728 36 m 517 1288 l 643 1288 l 488 1109 l 383 1109 l 517 1288 z "},"ć":{"ha":836,"x_min":132,"x_max":720,"o":"m 720 39 q 616 -5 669 9 q 507 -20 563 -20 q 232 86 331 -20 q 132 379 132 192 q 232 672 132 566 q 507 778 331 778 q 614 764 562 778 q 720 720 667 749 l 720 589 q 620 652 670 633 q 507 672 570 672 q 327 596 390 672 q 264 379 264 520 q 327 162 264 239 q 507 86 391 86 q 624 106 572 86 q 720 168 675 126 l 720 39 m 574 1111 l 708 1111 l 488 856 l 383 856 l 574 1111 z "},"Ĉ":{"ha":836,"x_min":94,"x_max":728,"o":"m 439 1294 l 568 1294 l 711 1114 l 616 1114 l 503 1234 l 391 1114 l 296 1114 l 439 1294 m 728 36 q 621 -6 675 8 q 504 -20 566 -20 q 202 118 309 -20 q 94 505 94 256 q 202 892 94 753 q 504 1031 311 1031 q 621 1017 566 1031 q 728 975 675 1003 l 728 835 q 620 898 677 876 q 504 920 562 920 q 304 817 370 920 q 237 505 237 713 q 304 195 237 298 q 504 92 370 92 q 621 113 564 92 q 728 176 678 135 l 728 36 z "},"ĉ":{"ha":836,"x_min":132,"x_max":720,"o":"m 429 1111 l 529 1111 l 696 856 l 602 856 l 479 1022 l 357 856 l 262 856 l 429 1111 m 720 39 q 616 -5 669 9 q 507 -20 563 -20 q 232 86 331 -20 q 132 379 132 192 q 232 672 132 566 q 507 778 331 778 q 614 764 562 778 q 720 720 667 749 l 720 589 q 620 652 670 633 q 507 672 570 672 q 327 596 390 672 q 264 379 264 520 q 327 162 264 239 q 507 86 391 86 q 624 106 572 86 q 720 168 675 126 l 720 39 z "},"Ċ":{"ha":836,"x_min":94,"x_max":728,"o":"m 399 1270 l 538 1270 l 538 1131 l 399 1131 l 399 1270 m 728 36 q 621 -6 675 8 q 504 -20 566 -20 q 202 118 309 -20 q 94 505 94 256 q 202 892 94 753 q 504 1031 311 1031 q 621 1017 566 1031 q 728 975 675 1003 l 728 835 q 620 898 677 876 q 504 920 562 920 q 304 817 370 920 q 237 505 237 713 q 304 195 237 298 q 504 92 370 92 q 621 113 564 92 q 728 176 678 135 l 728 36 z "},"ċ":{"ha":836,"x_min":132,"x_max":720,"o":"m 399 1053 l 538 1053 l 538 914 l 399 914 l 399 1053 m 720 39 q 616 -5 669 9 q 507 -20 563 -20 q 232 86 331 -20 q 132 379 132 192 q 232 672 132 566 q 507 778 331 778 q 614 764 562 778 q 720 720 667 749 l 720 589 q 620 652 670 633 q 507 672 570 672 q 327 596 390 672 q 264 379 264 520 q 327 162 264 239 q 507 86 391 86 q 624 106 572 86 q 720 168 675 126 l 720 39 z "},"Č":{"ha":836,"x_min":94,"x_max":728,"o":"m 728 36 q 621 -6 675 8 q 504 -20 566 -20 q 202 118 309 -20 q 94 505 94 256 q 202 892 94 753 q 504 1031 311 1031 q 621 1017 566 1031 q 728 975 675 1003 l 728 835 q 620 898 677 876 q 504 920 562 920 q 304 817 370 920 q 237 505 237 713 q 304 195 237 298 q 504 92 370 92 q 621 113 564 92 q 728 176 678 135 l 728 36 m 415 1109 l 272 1289 l 367 1289 l 479 1168 l 591 1289 l 686 1289 l 543 1109 l 415 1109 z "},"č":{"ha":836,"x_min":132,"x_max":720,"o":"m 720 39 q 616 -5 669 9 q 507 -20 563 -20 q 232 86 331 -20 q 132 379 132 192 q 232 672 132 566 q 507 778 331 778 q 614 764 562 778 q 720 720 667 749 l 720 589 q 620 652 670 633 q 507 672 570 672 q 327 596 390 672 q 264 379 264 520 q 327 162 264 239 q 507 86 391 86 q 624 106 572 86 q 720 168 675 126 l 720 39 m 429 856 l 262 1111 l 357 1111 l 479 945 l 602 1111 l 696 1111 l 529 856 l 429 856 z "},"Ď":{"ha":836,"x_min":93,"x_max":750,"o":"m 296 113 q 537 198 469 113 q 606 505 606 283 q 537 815 606 730 q 296 900 469 900 l 231 900 l 231 113 l 296 113 m 298 1013 q 640 889 530 1013 q 750 505 750 766 q 640 123 750 246 q 298 0 530 0 l 93 0 l 93 1013 l 298 1013 m 302 1105 l 159 1285 l 254 1285 l 366 1164 l 478 1285 l 573 1285 l 430 1105 l 302 1105 z "},"ď":{"ha":836,"x_min":83,"x_max":890,"o":"m 756 1057 l 890 1057 l 814 802 l 709 802 l 756 1057 m 582 663 l 582 1055 l 707 1055 l 707 0 l 582 0 l 582 96 q 499 10 551 39 q 379 -20 447 -20 q 162 87 241 -20 q 83 382 83 194 q 163 672 83 567 q 379 778 242 778 q 500 748 448 778 q 582 663 552 719 m 215 379 q 261 160 215 234 q 397 86 307 86 q 535 161 488 86 q 582 379 582 235 q 535 598 582 524 q 397 672 488 672 q 261 598 307 672 q 215 379 215 524 z "},"Đ":{"ha":836,"x_min":5,"x_max":747,"o":"m 296 1013 q 637 889 528 1013 q 747 505 747 766 q 637 123 747 246 q 296 0 527 0 l 90 0 l 90 481 l 5 481 l 5 582 l 90 582 l 90 1013 l 296 1013 m 296 113 q 537 198 469 113 q 606 505 606 283 q 537 815 606 730 q 296 900 469 900 l 231 900 l 231 582 l 410 582 l 410 481 l 231 481 l 231 113 l 296 113 z "},"đ":{"ha":836,"x_min":83,"x_max":836,"o":"m 582 663 l 582 872 l 375 872 l 375 954 l 582 954 l 582 1055 l 707 1055 l 707 954 l 836 954 l 836 872 l 707 872 l 707 0 l 582 0 l 582 96 q 499 10 551 39 q 379 -20 447 -20 q 162 87 241 -20 q 83 382 83 194 q 163 672 83 567 q 379 778 242 778 q 500 748 448 778 q 582 663 552 719 m 215 379 q 261 160 215 234 q 397 86 307 86 q 535 161 488 86 q 582 379 582 235 q 535 598 582 524 q 397 672 488 672 q 261 598 307 672 q 215 379 215 524 z "},"Ē":{"ha":836,"x_min":134,"x_max":747,"o":"m 227 1248 l 633 1248 l 633 1147 l 227 1147 l 227 1248 m 134 1013 l 734 1013 l 734 897 l 271 897 l 271 625 l 714 625 l 714 509 l 271 509 l 271 115 l 747 115 l 747 0 l 134 0 l 134 1013 z "},"ē":{"ha":836,"x_min":83,"x_max":760,"o":"m 239 1035 l 644 1035 l 644 935 l 239 935 l 239 1035 m 760 442 l 760 381 l 219 381 l 219 377 q 278 154 214 222 q 461 86 343 86 q 586 105 521 86 q 725 163 651 124 l 725 39 q 588 -5 654 9 q 460 -20 522 -20 q 183 86 283 -20 q 83 379 83 193 q 181 669 83 561 q 441 778 279 778 q 670 680 587 778 q 760 442 754 581 m 635 479 q 577 615 627 557 q 436 672 528 672 q 288 612 346 672 q 224 478 229 553 l 635 479 z "},"Ĕ":{"ha":836,"x_min":134,"x_max":747,"o":"m 218 1289 l 298 1289 q 340 1233 307 1253 q 430 1214 374 1214 q 519 1233 486 1214 q 562 1289 552 1251 l 643 1289 q 582 1167 635 1208 q 430 1125 528 1125 q 279 1166 332 1125 q 218 1289 225 1208 m 134 1013 l 734 1013 l 734 897 l 271 897 l 271 625 l 714 625 l 714 509 l 271 509 l 271 115 l 747 115 l 747 0 l 134 0 l 134 1013 z "},"ĕ":{"ha":836,"x_min":83,"x_max":760,"o":"m 215 1090 l 296 1090 q 336 1014 303 1039 q 427 989 368 989 q 517 1014 485 989 q 559 1090 550 1039 l 640 1090 q 579 945 633 994 q 427 896 526 896 q 276 945 330 896 q 215 1090 222 994 m 760 442 l 760 381 l 219 381 l 219 377 q 278 154 214 222 q 461 86 343 86 q 586 105 521 86 q 725 163 651 124 l 725 39 q 588 -5 654 9 q 460 -20 522 -20 q 183 86 283 -20 q 83 379 83 193 q 181 669 83 561 q 441 778 279 778 q 670 680 587 778 q 760 442 754 581 m 635 479 q 577 615 627 557 q 436 672 528 672 q 288 612 346 672 q 224 478 229 553 l 635 479 z "},"Ė":{"ha":836,"x_min":134,"x_max":747,"o":"m 360 1270 l 499 1270 l 499 1131 l 360 1131 l 360 1270 m 134 1013 l 734 1013 l 734 897 l 271 897 l 271 625 l 714 625 l 714 509 l 271 509 l 271 115 l 747 115 l 747 0 l 134 0 l 134 1013 z "},"ė":{"ha":836,"x_min":83,"x_max":760,"o":"m 357 1053 l 496 1053 l 496 914 l 357 914 l 357 1053 m 760 442 l 760 381 l 219 381 l 219 377 q 278 154 214 222 q 461 86 343 86 q 586 105 521 86 q 725 163 651 124 l 725 39 q 588 -5 654 9 q 460 -20 522 -20 q 183 86 283 -20 q 83 379 83 193 q 181 669 83 561 q 441 778 279 778 q 670 680 587 778 q 760 442 754 581 m 635 479 q 577 615 627 557 q 436 672 528 672 q 288 612 346 672 q 224 478 229 553 l 635 479 z "},"Ę":{"ha":836,"x_min":134,"x_max":747,"o":"m 565 0 l 646 0 q 601 -71 615 -41 q 586 -122 586 -101 q 605 -169 586 -153 q 660 -184 623 -184 q 703 -179 682 -184 q 745 -164 724 -174 l 745 -254 q 696 -264 719 -261 q 652 -268 673 -268 q 531 -238 570 -268 q 492 -146 492 -209 q 510 -78 492 -113 q 565 0 528 -42 m 134 1013 l 734 1013 l 734 897 l 271 897 l 271 625 l 714 625 l 714 509 l 271 509 l 271 115 l 747 115 l 747 0 l 134 0 l 134 1013 z "},"ę":{"ha":836,"x_min":83,"x_max":760,"o":"m 525 0 l 606 0 q 561 -71 575 -41 q 546 -122 546 -101 q 565 -169 546 -153 q 620 -184 583 -184 q 663 -179 642 -184 q 705 -164 684 -174 l 705 -254 q 656 -264 679 -261 q 612 -268 633 -268 q 491 -238 530 -268 q 452 -146 452 -209 q 470 -78 452 -113 q 525 0 488 -42 m 760 442 l 760 381 l 219 381 l 219 377 q 278 154 214 222 q 461 86 343 86 q 586 105 521 86 q 725 163 651 124 l 725 39 q 588 -5 654 9 q 460 -20 522 -20 q 183 86 283 -20 q 83 379 83 193 q 181 669 83 561 q 441 778 279 778 q 670 680 587 778 q 760 442 754 581 m 635 479 q 577 615 627 557 q 436 672 528 672 q 288 612 346 672 q 224 478 229 553 l 635 479 z "},"Ě":{"ha":836,"x_min":134,"x_max":747,"o":"m 134 1013 l 734 1013 l 734 897 l 271 897 l 271 625 l 714 625 l 714 509 l 271 509 l 271 115 l 747 115 l 747 0 l 134 0 l 134 1013 m 378 1105 l 235 1285 l 330 1285 l 442 1164 l 555 1285 l 650 1285 l 507 1105 l 378 1105 z "},"ě":{"ha":836,"x_min":83,"x_max":760,"o":"m 760 442 l 760 381 l 219 381 l 219 377 q 278 154 214 222 q 461 86 343 86 q 586 105 521 86 q 725 163 651 124 l 725 39 q 588 -5 654 9 q 460 -20 522 -20 q 183 86 283 -20 q 83 379 83 193 q 181 669 83 561 q 441 778 279 778 q 670 680 587 778 q 760 442 754 581 m 635 479 q 577 615 627 557 q 436 672 528 672 q 288 612 346 672 q 224 478 229 553 l 635 479 m 392 853 l 225 1108 l 319 1108 l 441 942 l 564 1108 l 659 1108 l 492 853 l 392 853 z "},"Ĝ":{"ha":836,"x_min":69,"x_max":749,"o":"m 354 1289 l 482 1289 l 625 1109 l 530 1109 l 418 1230 l 306 1109 l 211 1109 l 354 1289 m 749 83 q 625 6 694 33 q 476 -20 556 -20 q 176 118 283 -20 q 69 505 69 256 q 178 892 69 753 q 479 1031 286 1031 q 602 1013 543 1031 q 714 958 660 995 l 714 818 q 602 895 659 870 q 479 920 544 920 q 279 816 346 920 q 212 505 212 713 q 277 193 212 294 q 476 92 342 92 q 556 102 522 92 q 618 135 590 113 l 618 407 l 471 407 l 471 519 l 749 519 l 749 83 z "},"ĝ":{"ha":836,"x_min":83,"x_max":707,"o":"m 368 1111 l 468 1111 l 635 856 l 541 856 l 418 1022 l 296 856 l 201 856 l 368 1111 m 582 386 q 536 599 582 526 q 403 672 490 672 q 263 599 311 672 q 215 386 215 526 q 263 172 215 245 q 404 98 312 98 q 536 172 490 98 q 582 386 582 246 m 707 49 q 626 -210 707 -122 q 389 -298 545 -298 q 281 -289 337 -298 q 168 -261 224 -279 l 168 -138 q 289 -184 235 -169 q 389 -199 343 -199 q 536 -144 490 -199 q 582 31 582 -89 l 582 36 l 582 121 q 500 26 552 57 q 375 -5 449 -5 q 163 101 242 -5 q 83 386 83 208 q 163 671 83 565 q 375 778 242 778 q 499 749 448 778 q 582 659 550 720 l 582 757 l 707 757 l 707 49 z "},"Ğ":{"ha":836,"x_min":69,"x_max":749,"o":"m 239 1289 l 320 1289 q 362 1233 328 1253 q 452 1214 396 1214 q 541 1233 508 1214 q 584 1289 574 1251 l 665 1289 q 603 1167 657 1208 q 452 1125 549 1125 q 300 1166 354 1125 q 239 1289 247 1208 m 749 83 q 625 6 694 33 q 476 -20 556 -20 q 176 118 283 -20 q 69 505 69 256 q 178 892 69 753 q 479 1031 286 1031 q 602 1013 543 1031 q 714 958 660 995 l 714 818 q 602 895 659 870 q 479 920 544 920 q 279 816 346 920 q 212 505 212 713 q 277 193 212 294 q 476 92 342 92 q 556 102 522 92 q 618 135 590 113 l 618 407 l 471 407 l 471 519 l 749 519 l 749 83 z "},"ğ":{"ha":836,"x_min":83,"x_max":707,"o":"m 205 1090 l 286 1090 q 326 1014 294 1039 q 418 989 359 989 q 508 1014 475 989 q 550 1090 541 1039 l 631 1090 q 570 945 623 994 q 418 896 516 896 q 267 945 320 896 q 205 1090 213 994 m 582 386 q 536 599 582 526 q 403 672 490 672 q 263 599 311 672 q 215 386 215 526 q 263 172 215 245 q 404 98 312 98 q 536 172 490 98 q 582 386 582 246 m 707 49 q 626 -210 707 -122 q 389 -298 545 -298 q 281 -289 337 -298 q 168 -261 224 -279 l 168 -138 q 289 -184 235 -169 q 389 -199 343 -199 q 536 -144 490 -199 q 582 31 582 -89 l 582 36 l 582 121 q 500 26 552 57 q 375 -5 449 -5 q 163 101 242 -5 q 83 386 83 208 q 163 671 83 565 q 375 778 242 778 q 499 749 448 778 q 582 659 550 720 l 582 757 l 707 757 l 707 49 z "},"Ġ":{"ha":836,"x_min":69,"x_max":749,"o":"m 382 1270 l 521 1270 l 521 1131 l 382 1131 l 382 1270 m 749 83 q 625 6 694 33 q 476 -20 556 -20 q 176 118 283 -20 q 69 505 69 256 q 178 892 69 753 q 479 1031 286 1031 q 602 1013 543 1031 q 714 958 660 995 l 714 818 q 602 895 659 870 q 479 920 544 920 q 279 816 346 920 q 212 505 212 713 q 277 193 212 294 q 476 92 342 92 q 556 102 522 92 q 618 135 590 113 l 618 407 l 471 407 l 471 519 l 749 519 l 749 83 z "},"ġ":{"ha":836,"x_min":83,"x_max":707,"o":"m 348 1053 l 487 1053 l 487 914 l 348 914 l 348 1053 m 582 386 q 536 599 582 526 q 403 672 490 672 q 263 599 311 672 q 215 386 215 526 q 263 172 215 245 q 404 98 312 98 q 536 172 490 98 q 582 386 582 246 m 707 49 q 626 -210 707 -122 q 389 -298 545 -298 q 281 -289 337 -298 q 168 -261 224 -279 l 168 -138 q 289 -184 235 -169 q 389 -199 343 -199 q 536 -144 490 -199 q 582 31 582 -89 l 582 36 l 582 121 q 500 26 552 57 q 375 -5 449 -5 q 163 101 242 -5 q 83 386 83 208 q 163 671 83 565 q 375 778 242 778 q 499 749 448 778 q 582 659 550 720 l 582 757 l 707 757 l 707 49 z "},"Ģ":{"ha":836,"x_min":69,"x_max":749,"o":"m 427 -154 l 589 -154 l 463 -388 l 363 -388 l 427 -154 m 749 83 q 625 6 694 33 q 476 -20 556 -20 q 176 118 283 -20 q 69 505 69 256 q 178 892 69 753 q 479 1031 286 1031 q 602 1013 543 1031 q 714 958 660 995 l 714 818 q 602 895 659 870 q 479 920 544 920 q 279 816 346 920 q 212 505 212 713 q 277 193 212 294 q 476 92 342 92 q 556 102 522 92 q 618 135 590 113 l 618 407 l 471 407 l 471 519 l 749 519 l 749 83 z "},"ģ":{"ha":836,"x_min":83,"x_max":707,"o":"m 492 861 l 330 861 l 456 1095 l 555 1095 l 492 861 m 582 386 q 536 599 582 526 q 403 672 490 672 q 263 599 311 672 q 215 386 215 526 q 263 172 215 245 q 404 98 312 98 q 536 172 490 98 q 582 386 582 246 m 707 49 q 626 -210 707 -122 q 389 -298 545 -298 q 281 -289 337 -298 q 168 -261 224 -279 l 168 -138 q 289 -184 235 -169 q 389 -199 343 -199 q 536 -144 490 -199 q 582 31 582 -89 l 582 36 l 582 121 q 500 26 552 57 q 375 -5 449 -5 q 163 101 242 -5 q 83 386 83 208 q 163 671 83 565 q 375 778 242 778 q 499 749 448 778 q 582 659 550 720 l 582 757 l 707 757 l 707 49 z "},"Ĥ":{"ha":836,"x_min":93,"x_max":743,"o":"m 354 1289 l 482 1289 l 625 1109 l 530 1109 l 418 1230 l 306 1109 l 211 1109 l 354 1289 m 93 1013 l 231 1013 l 231 625 l 606 625 l 606 1013 l 743 1013 l 743 0 l 606 0 l 606 509 l 231 509 l 231 0 l 93 0 l 93 1013 z "},"ĥ":{"ha":836,"x_min":132,"x_max":713,"o":"m 354 1289 l 482 1289 l 625 1109 l 530 1109 l 418 1230 l 306 1109 l 211 1109 l 354 1289 m 713 471 l 713 0 l 587 0 l 587 471 q 551 621 587 573 q 439 669 515 669 q 304 607 351 669 q 257 429 257 545 l 257 0 l 132 0 l 132 1055 l 257 1055 l 257 646 q 347 744 290 711 q 482 778 404 778 q 655 702 598 778 q 713 471 713 625 z "},"Ħ":{"ha":836,"x_min":2,"x_max":834,"o":"m 93 1013 l 230 1013 l 230 861 l 606 861 l 606 1013 l 743 1013 l 743 861 l 834 861 l 834 749 l 743 749 l 743 0 l 606 0 l 606 482 l 230 482 l 230 0 l 93 0 l 93 749 l 2 749 l 2 861 l 93 861 l 93 1013 m 230 749 l 230 597 l 606 597 l 606 749 l 230 749 z "},"ħ":{"ha":836,"x_min":47,"x_max":713,"o":"m 713 471 l 713 0 l 587 0 l 587 471 q 551 621 587 573 q 439 669 515 669 q 304 607 351 669 q 257 429 257 545 l 257 0 l 132 0 l 132 861 l 47 861 l 47 972 l 132 972 l 132 1055 l 257 1055 l 257 972 l 496 972 l 496 861 l 257 861 l 257 646 q 347 744 290 711 q 482 778 404 778 q 655 702 598 778 q 713 471 713 625 z "},"Ĩ":{"ha":836,"x_min":136,"x_max":699,"o":"m 414 1160 l 376 1182 q 348 1195 359 1192 q 330 1199 338 1199 q 292 1182 306 1199 q 279 1135 279 1165 l 279 1131 l 194 1131 q 229 1239 194 1199 q 321 1279 264 1279 q 367 1274 346 1279 q 420 1250 387 1268 l 459 1230 q 486 1217 474 1221 q 508 1213 498 1213 q 543 1230 529 1213 q 556 1275 556 1247 l 556 1279 l 641 1279 q 605 1171 640 1211 q 513 1131 570 1131 q 470 1136 490 1131 q 414 1160 450 1141 m 136 1013 l 699 1013 l 699 897 l 486 897 l 486 115 l 699 115 l 699 0 l 136 0 l 136 115 l 349 115 l 349 897 l 136 897 l 136 1013 z "},"ĩ":{"ha":836,"x_min":121,"x_max":741,"o":"m 415 929 l 376 966 q 351 986 362 980 q 330 993 340 993 q 292 968 304 993 q 279 888 280 943 l 195 888 q 230 1029 195 979 q 326 1079 264 1079 q 374 1069 353 1079 q 421 1038 396 1060 l 460 1000 q 485 980 474 987 q 505 974 496 974 q 544 999 532 974 q 557 1079 556 1024 l 642 1079 q 606 938 641 988 q 510 888 572 888 q 462 897 484 888 q 415 929 440 907 m 174 760 l 493 760 l 493 97 l 741 97 l 741 0 l 121 0 l 121 97 l 368 97 l 368 663 l 174 663 l 174 760 z "},"Ī":{"ha":836,"x_min":136,"x_max":699,"o":"m 215 1248 l 620 1248 l 620 1147 l 215 1147 l 215 1248 m 136 1013 l 699 1013 l 699 897 l 486 897 l 486 115 l 699 115 l 699 0 l 136 0 l 136 115 l 349 115 l 349 897 l 136 897 l 136 1013 z "},"ī":{"ha":836,"x_min":121,"x_max":741,"o":"m 215 1035 l 621 1035 l 621 935 l 215 935 l 215 1035 m 174 760 l 493 760 l 493 97 l 741 97 l 741 0 l 121 0 l 121 97 l 368 97 l 368 663 l 174 663 l 174 760 z "},"Ĭ":{"ha":836,"x_min":136,"x_max":699,"o":"m 205 1289 l 286 1289 q 328 1233 294 1253 q 417 1214 361 1214 q 506 1233 473 1214 q 549 1289 539 1251 l 630 1289 q 569 1167 623 1208 q 417 1125 515 1125 q 266 1166 319 1125 q 205 1289 212 1208 m 136 1013 l 699 1013 l 699 897 l 486 897 l 486 115 l 699 115 l 699 0 l 136 0 l 136 115 l 349 115 l 349 897 l 136 897 l 136 1013 z "},"ĭ":{"ha":836,"x_min":121,"x_max":741,"o":"m 205 1090 l 286 1090 q 326 1014 294 1039 q 418 989 359 989 q 508 1014 475 989 q 550 1090 541 1039 l 631 1090 q 570 945 623 994 q 418 896 516 896 q 267 945 320 896 q 205 1090 213 994 m 174 760 l 493 760 l 493 97 l 741 97 l 741 0 l 121 0 l 121 97 l 368 97 l 368 663 l 174 663 l 174 760 z "},"Į":{"ha":836,"x_min":136,"x_max":699,"o":"m 136 1013 l 699 1013 l 699 897 l 486 897 l 486 115 l 699 115 l 699 0 l 136 0 l 136 115 l 349 115 l 349 897 l 136 897 l 136 1013 m 406 0 l 486 0 q 441 -71 456 -41 q 427 -122 427 -101 q 445 -169 427 -153 q 500 -184 464 -184 q 543 -179 522 -184 q 585 -164 564 -174 l 585 -254 q 536 -264 559 -261 q 493 -268 513 -268 q 371 -238 410 -268 q 332 -146 332 -209 q 350 -78 332 -113 q 406 0 368 -42 z "},"į":{"ha":836,"x_min":161,"x_max":781,"o":"m 214 757 l 534 757 l 534 97 l 781 97 l 781 0 l 161 0 l 161 97 l 409 97 l 409 660 l 214 660 l 214 757 m 409 1052 l 534 1052 l 534 895 l 409 895 l 409 1052 m 412 0 l 493 0 q 448 -71 463 -41 q 433 -122 433 -101 q 452 -169 433 -153 q 507 -184 471 -184 q 550 -179 529 -184 q 592 -164 571 -174 l 592 -254 q 543 -264 566 -261 q 500 -268 520 -268 q 378 -238 417 -268 q 339 -146 339 -209 q 357 -78 339 -113 q 412 0 375 -42 z "},"İ":{"ha":836,"x_min":136,"x_max":699,"o":"m 348 1270 l 487 1270 l 487 1131 l 348 1131 l 348 1270 m 136 1013 l 699 1013 l 699 897 l 486 897 l 486 115 l 699 115 l 699 0 l 136 0 l 136 115 l 349 115 l 349 897 l 136 897 l 136 1013 z "},"ı":{"ha":836,"x_min":121,"x_max":741,"o":"m 174 760 l 493 760 l 493 97 l 741 97 l 741 0 l 121 0 l 121 97 l 368 97 l 368 663 l 174 663 l 174 760 z "},"Ĳ":{"ha":836,"x_min":-1,"x_max":833,"o":"m 442 43 l 442 203 q 528 121 484 149 q 621 94 573 94 q 713 144 687 94 q 739 332 739 195 l 739 899 l 564 899 l 564 1013 l 833 1013 l 833 332 q 784 62 833 141 q 621 -18 735 -18 q 533 -3 577 -18 q 442 43 490 12 m -1 1013 l 410 1013 l 410 897 l 255 897 l 255 115 l 410 115 l 410 0 l -1 0 l -1 115 l 154 115 l 154 897 l -1 897 l -1 1013 z "},"ĳ":{"ha":836,"x_min":-3,"x_max":788,"o":"m 663 -21 l 663 655 l 448 655 l 448 752 l 788 752 l 788 -21 q 727 -225 788 -153 q 555 -296 667 -296 l 382 -296 l 382 -191 l 541 -191 q 633 -148 602 -191 q 663 -21 663 -106 m 663 1055 l 788 1055 l 788 890 l 663 890 l 663 1055 m 40 760 l 302 760 l 302 97 l 505 97 l 505 0 l -3 0 l -3 97 l 199 97 l 199 663 l 40 663 l 40 760 m 199 1055 l 302 1055 l 302 897 l 199 897 l 199 1055 z "},"Ĵ":{"ha":836,"x_min":74,"x_max":658,"o":"m 387 1289 l 515 1289 l 658 1109 l 563 1109 l 450 1230 l 338 1109 l 243 1109 l 387 1289 m 74 41 l 74 201 q 201 119 136 146 q 338 92 267 92 q 473 142 435 92 q 511 330 511 193 l 511 897 l 253 897 l 253 1013 l 648 1013 l 648 330 q 577 60 648 139 q 338 -20 505 -20 q 208 -5 273 -20 q 74 41 144 10 z "},"ĵ":{"ha":836,"x_min":126,"x_max":635,"o":"m 368 1111 l 468 1111 l 635 856 l 541 856 l 418 1022 l 296 856 l 201 856 l 368 1111 m 407 -14 l 407 663 l 192 663 l 192 760 l 532 760 l 532 -14 q 471 -217 532 -146 q 298 -289 410 -289 l 126 -289 l 126 -183 l 285 -183 q 376 -141 346 -183 q 407 -14 407 -98 z "},"Ķ":{"ha":836,"x_min":93,"x_max":831,"o":"m 412 -134 l 574 -134 l 448 -368 l 349 -368 l 412 -134 m 93 1013 l 231 1013 l 231 562 l 659 1013 l 819 1013 l 425 599 l 831 0 l 665 0 l 335 507 l 231 396 l 231 0 l 93 0 l 93 1013 z "},"ķ":{"ha":836,"x_min":160,"x_max":815,"o":"m 438 -134 l 600 -134 l 473 -368 l 374 -368 l 438 -134 m 160 1055 l 289 1055 l 289 444 l 616 760 l 768 760 l 469 473 l 815 0 l 663 0 l 382 392 l 289 304 l 289 0 l 160 0 l 160 1055 z "},"ĸ":{"ha":836,"x_min":160,"x_max":815,"o":"m 160 760 l 289 760 l 289 444 l 616 760 l 768 760 l 469 473 l 815 0 l 663 0 l 382 392 l 289 304 l 289 0 l 160 0 l 160 760 z "},"Ĺ":{"ha":836,"x_min":136,"x_max":772,"o":"m 270 1289 l 396 1289 l 241 1109 l 136 1109 l 270 1289 m 146 1013 l 283 1013 l 283 115 l 772 115 l 772 0 l 146 0 l 146 1013 z "},"ĺ":{"ha":836,"x_min":163,"x_max":755,"o":"m 392 1289 l 518 1289 l 363 1109 l 258 1109 l 392 1289 m 488 275 q 518 148 488 191 q 610 105 549 105 l 755 105 l 755 0 l 597 0 q 424 72 486 0 q 363 275 363 143 l 363 962 l 163 962 l 163 1059 l 488 1059 l 488 275 z "},"Ļ":{"ha":836,"x_min":146,"x_max":772,"o":"m 410 -134 l 572 -134 l 445 -368 l 346 -368 l 410 -134 m 146 1013 l 283 1013 l 283 115 l 772 115 l 772 0 l 146 0 l 146 1013 z "},"ļ":{"ha":836,"x_min":163,"x_max":755,"o":"m 338 -134 l 500 -134 l 373 -368 l 274 -368 l 338 -134 m 488 275 q 518 148 488 191 q 610 105 549 105 l 755 105 l 755 0 l 597 0 q 424 72 486 0 q 363 275 363 143 l 363 962 l 163 962 l 163 1059 l 488 1059 l 488 275 z "},"Ľ":{"ha":836,"x_min":146,"x_max":772,"o":"m 487 1012 l 621 1012 l 545 757 l 440 757 l 487 1012 m 146 1013 l 283 1013 l 283 115 l 772 115 l 772 0 l 146 0 l 146 1013 z "},"ľ":{"ha":836,"x_min":163,"x_max":785,"o":"m 651 1063 l 785 1063 l 709 808 l 604 808 l 651 1063 m 488 275 q 518 148 488 191 q 610 105 549 105 l 755 105 l 755 0 l 597 0 q 424 72 486 0 q 363 275 363 143 l 363 962 l 163 962 l 163 1059 l 488 1059 l 488 275 z "},"Ŀ":{"ha":836,"x_min":146,"x_max":772,"o":"m 570 677 l 741 677 l 741 470 l 570 470 l 570 677 m 146 1013 l 283 1013 l 283 115 l 772 115 l 772 0 l 146 0 l 146 1013 z "},"ŀ":{"ha":836,"x_min":163,"x_max":822,"o":"m 651 684 l 822 684 l 822 477 l 651 477 l 651 684 m 488 275 q 518 148 488 191 q 610 105 549 105 l 755 105 l 755 0 l 597 0 q 424 72 486 0 q 363 275 363 143 l 363 962 l 163 962 l 163 1059 l 488 1059 l 488 275 z "},"Ł":{"ha":836,"x_min":-7,"x_max":772,"o":"m 146 1013 l 283 1013 l 283 595 l 497 743 l 550 668 l 283 482 l 283 115 l 772 115 l 772 0 l 146 0 l 146 387 l 47 315 l -7 390 l 146 497 l 146 1013 z "},"ł":{"ha":836,"x_min":52,"x_max":701,"o":"m 433 275 q 464 149 433 191 q 555 106 495 106 l 701 106 l 701 0 l 543 0 q 370 72 431 0 q 309 275 309 144 l 309 473 l 106 332 l 52 407 l 309 586 l 309 965 l 109 965 l 109 1063 l 433 1063 l 433 671 l 647 819 l 701 745 l 433 558 l 433 275 z "},"Ń":{"ha":836,"x_min":13,"x_max":742,"o":"m 478 1288 l 604 1288 l 449 1109 l 345 1109 l 478 1288 m 13 1009 l 200 1009 l 596 178 l 596 1009 l 742 1009 l 742 0 l 555 0 l 159 831 l 159 0 l 13 0 l 13 1009 z "},"ń":{"ha":836,"x_min":132,"x_max":713,"o":"m 526 1116 l 661 1116 l 440 861 l 336 861 l 526 1116 m 713 471 l 713 0 l 587 0 l 587 471 q 551 621 587 573 q 439 669 515 669 q 304 607 351 669 q 257 429 257 545 l 257 0 l 132 0 l 132 760 l 257 760 l 257 646 q 347 744 290 711 q 482 778 404 778 q 655 702 598 778 q 713 471 713 625 z "},"Ņ":{"ha":836,"x_min":13,"x_max":742,"o":"m 369 -134 l 531 -134 l 404 -368 l 305 -368 l 369 -134 m 13 1009 l 200 1009 l 596 178 l 596 1009 l 742 1009 l 742 0 l 555 0 l 159 831 l 159 0 l 13 0 l 13 1009 z "},"ņ":{"ha":836,"x_min":132,"x_max":713,"o":"m 373 -134 l 535 -134 l 408 -368 l 309 -368 l 373 -134 m 713 471 l 713 0 l 587 0 l 587 471 q 551 621 587 573 q 439 669 515 669 q 304 607 351 669 q 257 429 257 545 l 257 0 l 132 0 l 132 760 l 257 760 l 257 646 q 347 744 290 711 q 482 778 404 778 q 655 702 598 778 q 713 471 713 625 z "},"Ň":{"ha":836,"x_min":13,"x_max":742,"o":"m 13 1009 l 200 1009 l 596 178 l 596 1009 l 742 1009 l 742 0 l 555 0 l 159 831 l 159 0 l 13 0 l 13 1009 m 382 1109 l 239 1289 l 334 1289 l 446 1168 l 559 1289 l 654 1289 l 511 1109 l 382 1109 z "},"ň":{"ha":836,"x_min":132,"x_max":713,"o":"m 713 471 l 713 0 l 587 0 l 587 471 q 551 621 587 573 q 439 669 515 669 q 304 607 351 669 q 257 429 257 545 l 257 0 l 132 0 l 132 760 l 257 760 l 257 646 q 347 744 290 711 q 482 778 404 778 q 655 702 598 778 q 713 471 713 625 m 361 856 l 194 1111 l 288 1111 l 410 945 l 533 1111 l 627 1111 l 460 856 l 361 856 z "},"ŉ":{"ha":836,"x_min":17,"x_max":796,"o":"m 796 471 l 796 0 l 671 0 l 671 471 q 635 621 671 573 q 522 669 599 669 q 388 607 435 669 q 340 429 340 545 l 340 0 l 216 0 l 216 760 l 340 760 l 340 646 q 431 744 374 711 q 566 778 488 778 q 739 702 682 778 q 796 471 796 625 m 83 1055 l 254 1055 l 254 916 l 121 656 l 17 656 l 83 916 l 83 1055 z "},"Ŋ":{"ha":836,"x_min":100,"x_max":736,"o":"m 736 677 l 736 -14 q 675 -217 736 -146 q 503 -289 614 -289 l 363 -289 l 363 -183 l 477 -183 q 568 -141 538 -183 q 598 0 598 -99 l 598 684 q 559 864 598 806 q 435 921 519 921 q 288 847 340 921 q 237 635 237 773 l 237 0 l 100 0 l 100 1013 l 237 1013 l 237 878 q 336 993 273 954 q 484 1032 398 1032 q 673 944 610 1032 q 736 677 736 855 z "},"ŋ":{"ha":836,"x_min":132,"x_max":713,"o":"m 713 471 l 713 -14 q 652 -217 713 -146 q 479 -289 591 -289 l 340 -289 l 340 -183 l 466 -183 q 557 -141 527 -183 q 587 -14 587 -99 l 587 471 q 551 621 587 573 q 439 669 515 669 q 304 608 351 669 q 257 429 257 545 l 257 0 l 132 0 l 132 760 l 257 760 l 257 646 q 347 745 290 711 q 482 778 404 778 q 655 701 598 778 q 713 471 713 625 z "},"Ō":{"ha":836,"x_min":79,"x_max":757,"o":"m 216 1248 l 621 1248 l 621 1147 l 216 1147 l 216 1248 m 614 505 q 568 824 614 728 q 418 920 522 920 q 268 824 314 920 q 222 505 222 728 q 268 187 222 283 q 418 92 314 92 q 568 187 522 92 q 614 505 614 282 m 757 505 q 673 111 757 241 q 418 -20 589 -20 q 163 110 246 -20 q 79 505 79 239 q 163 901 79 770 q 418 1031 247 1031 q 673 901 589 1031 q 757 505 757 770 z "},"ō":{"ha":836,"x_min":93,"x_max":743,"o":"m 216 1035 l 621 1035 l 621 935 l 216 935 l 216 1035 m 418 672 q 274 598 323 672 q 225 379 225 524 q 274 160 225 235 q 418 86 323 86 q 562 160 513 86 q 611 379 611 235 q 562 598 611 524 q 418 672 513 672 m 418 778 q 660 675 576 778 q 743 379 743 573 q 660 82 743 184 q 418 -20 576 -20 q 176 82 260 -20 q 93 379 93 184 q 176 675 93 573 q 418 778 260 778 z "},"Ŏ":{"ha":836,"x_min":79,"x_max":757,"o":"m 205 1289 l 286 1289 q 328 1233 294 1253 q 418 1214 362 1214 q 507 1233 474 1214 q 550 1289 540 1251 l 631 1289 q 569 1167 623 1208 q 418 1125 515 1125 q 267 1166 320 1125 q 205 1289 213 1208 m 614 505 q 568 824 614 728 q 418 920 522 920 q 268 824 314 920 q 222 505 222 728 q 268 187 222 283 q 418 92 314 92 q 568 187 522 92 q 614 505 614 282 m 757 505 q 673 111 757 241 q 418 -20 589 -20 q 163 110 246 -20 q 79 505 79 239 q 163 901 79 770 q 418 1031 247 1031 q 673 901 589 1031 q 757 505 757 770 z "},"ŏ":{"ha":836,"x_min":93,"x_max":743,"o":"m 205 1090 l 286 1090 q 326 1014 294 1039 q 418 989 359 989 q 508 1014 475 989 q 550 1090 541 1039 l 631 1090 q 570 945 623 994 q 418 896 516 896 q 267 945 320 896 q 205 1090 213 994 m 418 672 q 274 598 323 672 q 225 379 225 524 q 274 160 225 235 q 418 86 323 86 q 562 160 513 86 q 611 379 611 235 q 562 598 611 524 q 418 672 513 672 m 418 778 q 660 675 576 778 q 743 379 743 573 q 660 82 743 184 q 418 -20 576 -20 q 176 82 260 -20 q 93 379 93 184 q 176 675 93 573 q 418 778 260 778 z "},"Ő":{"ha":836,"x_min":79,"x_max":757,"o":"m 583 1288 l 709 1288 l 554 1109 l 450 1109 l 583 1288 m 367 1288 l 493 1288 l 338 1109 l 233 1109 l 367 1288 m 614 505 q 568 824 614 728 q 418 920 522 920 q 268 824 314 920 q 222 505 222 728 q 268 187 222 283 q 418 92 314 92 q 568 187 522 92 q 614 505 614 282 m 757 505 q 673 111 757 241 q 418 -20 589 -20 q 163 110 246 -20 q 79 505 79 239 q 163 901 79 770 q 418 1031 247 1031 q 673 901 589 1031 q 757 505 757 770 z "},"ő":{"ha":836,"x_min":93,"x_max":743,"o":"m 363 1111 l 478 1111 l 326 856 l 233 856 l 363 1111 m 589 1111 l 710 1111 l 542 856 l 450 856 l 589 1111 m 418 672 q 274 598 323 672 q 225 379 225 524 q 274 160 225 235 q 418 86 323 86 q 562 160 513 86 q 611 379 611 235 q 562 598 611 524 q 418 672 513 672 m 418 778 q 660 675 576 778 q 743 379 743 573 q 660 82 743 184 q 418 -20 576 -20 q 176 82 260 -20 q 93 379 93 184 q 176 675 93 573 q 418 778 260 778 z "},"Œ":{"ha":836,"x_min":49,"x_max":825,"o":"m 825 115 l 825 0 l 415 0 q 132 113 215 0 q 49 505 49 226 q 132 900 49 788 q 415 1013 214 1013 l 818 1013 l 818 897 l 575 897 l 575 597 l 798 597 l 798 482 l 575 482 l 575 115 l 825 115 m 400 897 q 233 819 280 897 q 186 505 186 741 q 233 193 186 271 q 400 115 280 115 l 441 115 l 441 897 l 400 897 z "},"œ":{"ha":836,"x_min":9,"x_max":821,"o":"m 710 446 q 711 466 710 453 q 711 485 711 479 q 684 629 711 583 q 599 675 657 675 q 514 628 540 675 q 488 475 488 582 l 488 446 l 710 446 m 253 83 q 350 140 322 83 q 378 359 378 197 q 351 616 378 557 q 253 675 323 675 q 156 618 183 675 q 129 379 129 562 q 156 140 129 197 q 253 83 183 83 m 821 349 l 488 349 l 488 292 q 521 132 488 181 q 631 83 555 83 q 729 101 685 83 q 806 154 774 119 l 806 37 q 723 -6 766 8 q 631 -20 681 -20 q 514 3 564 -20 q 432 71 465 26 q 353 2 397 24 q 253 -20 310 -20 q 67 74 125 -20 q 9 379 9 168 q 67 684 9 591 q 253 778 125 778 q 357 757 313 778 q 432 692 400 736 q 501 756 457 734 q 604 778 545 778 q 772 697 723 778 q 821 410 821 617 l 821 349 z "},"Ŕ":{"ha":836,"x_min":97,"x_max":836,"o":"m 406 1288 l 532 1288 l 376 1109 l 272 1109 l 406 1288 m 515 478 q 606 427 568 465 q 699 277 643 389 l 836 0 l 689 0 l 568 256 q 474 396 516 365 q 366 428 433 428 l 235 428 l 235 0 l 97 0 l 97 1013 l 379 1013 q 635 937 546 1013 q 724 720 724 862 q 669 556 724 619 q 515 478 614 492 m 235 900 l 235 541 l 385 541 q 531 585 483 541 q 579 720 579 629 q 528 853 579 807 q 379 900 477 900 l 235 900 z "},"ŕ":{"ha":836,"x_min":245,"x_max":787,"o":"m 652 1116 l 787 1116 l 566 861 l 462 861 l 652 1116 m 783 603 q 702 648 743 634 q 611 663 661 663 q 433 589 494 663 q 371 378 371 516 l 371 0 l 245 0 l 245 760 l 371 760 l 371 611 q 467 735 402 692 q 621 778 532 778 q 707 766 667 778 q 783 730 747 755 l 783 603 z "},"Ŗ":{"ha":836,"x_min":97,"x_max":836,"o":"m 418 -134 l 580 -134 l 453 -368 l 354 -368 l 418 -134 m 515 478 q 606 427 568 465 q 699 277 643 389 l 836 0 l 689 0 l 568 256 q 474 396 516 365 q 366 428 433 428 l 235 428 l 235 0 l 97 0 l 97 1013 l 379 1013 q 635 937 546 1013 q 724 720 724 862 q 669 556 724 619 q 515 478 614 492 m 235 900 l 235 541 l 385 541 q 531 585 483 541 q 579 720 579 629 q 528 853 579 807 q 379 900 477 900 l 235 900 z "},"ŗ":{"ha":836,"x_min":196,"x_max":783,"o":"m 260 -134 l 422 -134 l 295 -368 l 196 -368 l 260 -134 m 783 603 q 702 648 743 634 q 611 663 661 663 q 433 589 494 663 q 371 378 371 516 l 371 0 l 245 0 l 245 760 l 371 760 l 371 611 q 467 735 402 692 q 621 778 532 778 q 707 766 667 778 q 783 730 747 755 l 783 603 z "},"Ř":{"ha":836,"x_min":97,"x_max":836,"o":"m 515 478 q 606 427 568 465 q 699 277 643 389 l 836 0 l 689 0 l 568 256 q 474 396 516 365 q 366 428 433 428 l 235 428 l 235 0 l 97 0 l 97 1013 l 379 1013 q 635 937 546 1013 q 724 720 724 862 q 669 556 724 619 q 515 478 614 492 m 235 900 l 235 541 l 385 541 q 531 585 483 541 q 579 720 579 629 q 528 853 579 807 q 379 900 477 900 l 235 900 m 314 1105 l 171 1285 l 266 1285 l 378 1164 l 490 1285 l 585 1285 l 442 1105 l 314 1105 z "},"ř":{"ha":836,"x_min":245,"x_max":783,"o":"m 783 603 q 702 648 743 634 q 611 663 661 663 q 433 589 494 663 q 371 378 371 516 l 371 0 l 245 0 l 245 760 l 371 760 l 371 611 q 467 735 402 692 q 621 778 532 778 q 707 766 667 778 q 783 730 747 755 l 783 603 m 429 856 l 262 1111 l 357 1111 l 479 945 l 602 1111 l 696 1111 l 529 856 l 429 856 z "},"Ś":{"ha":836,"x_min":94,"x_max":745,"o":"m 473 1288 l 599 1288 l 444 1109 l 339 1109 l 473 1288 m 686 978 l 686 839 q 561 899 624 879 q 435 920 498 920 q 281 874 338 920 q 225 753 225 829 q 262 650 225 686 q 400 591 299 615 l 472 575 q 680 471 614 542 q 745 277 745 399 q 655 56 745 132 q 395 -20 566 -20 q 252 -4 323 -20 q 107 41 180 11 l 107 187 q 255 115 185 138 q 395 92 324 92 q 556 138 498 92 q 614 268 614 184 q 574 384 614 344 q 436 446 534 424 l 363 463 q 158 559 222 494 q 94 732 94 623 q 185 949 94 867 q 428 1031 277 1031 q 551 1018 486 1031 q 686 978 615 1004 z "},"ś":{"ha":836,"x_min":144,"x_max":699,"o":"m 530 1116 l 665 1116 l 444 861 l 340 861 l 530 1116 m 660 733 l 660 611 q 552 658 606 642 q 441 673 498 673 q 315 646 357 673 q 273 562 273 618 q 304 486 273 511 q 460 437 336 461 l 510 428 q 651 357 603 410 q 699 220 699 304 q 618 44 699 107 q 396 -20 538 -20 q 278 -8 340 -20 q 144 28 216 4 l 144 157 q 278 103 214 121 q 399 85 342 85 q 527 118 481 85 q 572 212 572 152 q 406 332 572 299 l 401 334 l 354 343 q 197 414 246 364 q 147 550 147 464 q 221 719 147 659 q 432 778 295 778 q 549 767 493 778 q 660 733 606 755 z "},"Ŝ":{"ha":836,"x_min":94,"x_max":745,"o":"m 354 1289 l 482 1289 l 625 1109 l 530 1109 l 418 1230 l 306 1109 l 211 1109 l 354 1289 m 686 978 l 686 839 q 561 899 624 879 q 435 920 498 920 q 281 874 338 920 q 225 753 225 829 q 262 650 225 686 q 400 591 299 615 l 472 575 q 680 471 614 542 q 745 277 745 399 q 655 56 745 132 q 395 -20 566 -20 q 252 -4 323 -20 q 107 41 180 11 l 107 187 q 255 115 185 138 q 395 92 324 92 q 556 138 498 92 q 614 268 614 184 q 574 384 614 344 q 436 446 534 424 l 363 463 q 158 559 222 494 q 94 732 94 623 q 185 949 94 867 q 428 1031 277 1031 q 551 1018 486 1031 q 686 978 615 1004 z "},"ŝ":{"ha":836,"x_min":144,"x_max":699,"o":"m 368 1111 l 468 1111 l 635 856 l 541 856 l 418 1022 l 296 856 l 201 856 l 368 1111 m 660 733 l 660 611 q 552 658 606 642 q 441 673 498 673 q 315 646 357 673 q 273 562 273 618 q 304 486 273 511 q 460 437 336 461 l 510 428 q 651 357 603 410 q 699 220 699 304 q 618 44 699 107 q 396 -20 538 -20 q 278 -8 340 -20 q 144 28 216 4 l 144 157 q 278 103 214 121 q 399 85 342 85 q 527 118 481 85 q 572 212 572 152 q 406 332 572 299 l 401 334 l 354 343 q 197 414 246 364 q 147 550 147 464 q 221 719 147 659 q 432 778 295 778 q 549 767 493 778 q 660 733 606 755 z "},"Ş":{"ha":836,"x_min":94,"x_max":745,"o":"m 475 0 q 531 -78 513 -42 q 549 -146 549 -113 q 508 -237 549 -206 q 387 -268 467 -268 q 327 -264 357 -268 q 268 -252 298 -260 l 268 -163 q 316 -179 291 -174 q 374 -184 342 -184 q 434 -168 413 -184 q 454 -121 454 -152 q 439 -71 454 -100 q 395 0 425 -41 l 475 0 m 686 978 l 686 839 q 561 899 624 879 q 435 920 498 920 q 281 874 338 920 q 225 753 225 829 q 262 650 225 686 q 400 591 299 615 l 472 575 q 680 471 614 542 q 745 277 745 399 q 655 56 745 132 q 395 -20 566 -20 q 252 -4 323 -20 q 107 41 180 11 l 107 187 q 255 115 185 138 q 395 92 324 92 q 556 138 498 92 q 614 268 614 184 q 574 384 614 344 q 436 446 534 424 l 363 463 q 158 559 222 494 q 94 732 94 623 q 185 949 94 867 q 428 1031 277 1031 q 551 1018 486 1031 q 686 978 615 1004 z "},"ş":{"ha":836,"x_min":144,"x_max":699,"o":"m 475 0 q 531 -78 513 -42 q 549 -146 549 -113 q 508 -237 549 -206 q 387 -268 467 -268 q 327 -264 357 -268 q 268 -252 298 -260 l 268 -163 q 316 -179 291 -174 q 374 -184 342 -184 q 434 -168 413 -184 q 454 -121 454 -152 q 439 -71 454 -100 q 395 0 425 -41 l 475 0 m 660 733 l 660 611 q 552 658 606 642 q 441 673 498 673 q 315 646 357 673 q 273 562 273 618 q 304 486 273 511 q 460 437 336 461 l 510 428 q 651 357 603 410 q 699 220 699 304 q 618 44 699 107 q 396 -20 538 -20 q 278 -8 340 -20 q 144 28 216 4 l 144 157 q 278 103 214 121 q 399 85 342 85 q 527 118 481 85 q 572 212 572 152 q 406 332 572 299 l 401 334 l 354 343 q 197 414 246 364 q 147 550 147 464 q 221 719 147 659 q 432 778 295 778 q 549 767 493 778 q 660 733 606 755 z "},"Š":{"ha":836,"x_min":94,"x_max":745,"o":"m 686 978 l 686 839 q 561 899 624 879 q 435 920 498 920 q 281 874 338 920 q 225 753 225 829 q 262 650 225 686 q 400 591 299 615 l 472 575 q 680 471 614 542 q 745 277 745 399 q 655 56 745 132 q 395 -20 566 -20 q 252 -4 323 -20 q 107 41 180 11 l 107 187 q 255 115 185 138 q 395 92 324 92 q 556 138 498 92 q 614 268 614 184 q 574 384 614 344 q 436 446 534 424 l 363 463 q 158 559 222 494 q 94 732 94 623 q 185 949 94 867 q 428 1031 277 1031 q 551 1018 486 1031 q 686 978 615 1004 m 354 1109 l 211 1289 l 306 1289 l 418 1168 l 530 1289 l 625 1289 l 482 1109 l 354 1109 z "},"š":{"ha":836,"x_min":144,"x_max":699,"o":"m 660 733 l 660 611 q 552 658 606 642 q 441 673 498 673 q 315 646 357 673 q 273 562 273 618 q 304 486 273 511 q 460 437 336 461 l 510 428 q 651 357 603 410 q 699 220 699 304 q 618 44 699 107 q 396 -20 538 -20 q 278 -8 340 -20 q 144 28 216 4 l 144 157 q 278 103 214 121 q 399 85 342 85 q 527 118 481 85 q 572 212 572 152 q 406 332 572 299 l 401 334 l 354 343 q 197 414 246 364 q 147 550 147 464 q 221 719 147 659 q 432 778 295 778 q 549 767 493 778 q 660 733 606 755 m 368 856 l 201 1111 l 296 1111 l 418 945 l 541 1111 l 635 1111 l 468 856 l 368 856 z "},"Ţ":{"ha":836,"x_min":32,"x_max":804,"o":"m 475 0 q 531 -78 513 -42 q 549 -146 549 -113 q 508 -237 549 -206 q 387 -268 467 -268 q 327 -264 357 -268 q 268 -252 298 -260 l 268 -163 q 316 -179 291 -174 q 374 -184 342 -184 q 434 -168 413 -184 q 454 -121 454 -152 q 439 -71 454 -100 q 395 0 425 -41 l 475 0 m 32 1013 l 804 1013 l 804 897 l 488 897 l 488 0 l 350 0 l 350 897 l 32 897 l 32 1013 z "},"ţ":{"ha":836,"x_min":89,"x_max":700,"o":"m 557 0 q 613 -78 595 -42 q 631 -146 631 -113 q 590 -237 631 -206 q 469 -268 549 -268 q 409 -264 439 -268 q 350 -252 380 -260 l 350 -163 q 398 -179 373 -174 q 456 -184 424 -184 q 516 -168 495 -184 q 536 -121 536 -152 q 522 -71 536 -100 q 477 0 507 -41 l 557 0 m 416 975 l 416 760 l 700 760 l 700 663 l 416 663 l 416 250 q 448 133 416 166 q 559 100 480 100 l 700 100 l 700 0 l 547 0 q 349 56 407 0 q 292 250 292 113 l 292 663 l 89 663 l 89 760 l 292 760 l 292 975 l 416 975 z "},"Ť":{"ha":836,"x_min":32,"x_max":804,"o":"m 32 1013 l 804 1013 l 804 897 l 488 897 l 488 0 l 350 0 l 350 897 l 32 897 l 32 1013 m 354 1109 l 211 1289 l 306 1289 l 418 1168 l 530 1289 l 625 1289 l 482 1109 l 354 1109 z "},"ť":{"ha":836,"x_min":89,"x_max":700,"o":"m 416 975 l 416 760 l 700 760 l 700 663 l 416 663 l 416 250 q 448 133 416 166 q 559 100 480 100 l 700 100 l 700 0 l 547 0 q 349 56 407 0 q 292 250 292 113 l 292 663 l 89 663 l 89 760 l 292 760 l 292 975 l 416 975 m 556 1127 l 690 1127 l 614 872 l 509 872 l 556 1127 z "},"Ŧ":{"ha":836,"x_min":32,"x_max":804,"o":"m 32 1013 l 804 1013 l 804 897 l 488 897 l 488 507 l 667 507 l 667 391 l 488 391 l 488 0 l 350 0 l 350 391 l 170 391 l 170 507 l 350 507 l 350 897 l 32 897 l 32 1013 z "},"ŧ":{"ha":836,"x_min":89,"x_max":700,"o":"m 416 975 l 416 760 l 700 760 l 700 663 l 416 663 l 416 505 l 572 505 l 572 408 l 416 408 l 416 250 q 448 133 416 166 q 559 100 480 100 l 700 100 l 700 0 l 547 0 q 349 56 407 0 q 292 250 292 113 l 292 408 l 136 408 l 136 505 l 292 505 l 292 663 l 89 663 l 89 760 l 292 760 l 292 975 l 416 975 z "},"Ũ":{"ha":836,"x_min":100,"x_max":736,"o":"m 415 1160 l 376 1182 q 349 1195 359 1192 q 330 1199 338 1199 q 293 1182 307 1199 q 279 1135 279 1165 l 279 1131 l 195 1131 q 230 1239 195 1199 q 322 1279 264 1279 q 367 1274 347 1279 q 421 1250 388 1268 l 459 1230 q 486 1217 474 1221 q 508 1213 498 1213 q 543 1230 529 1213 q 556 1275 556 1247 l 556 1279 l 641 1279 q 605 1171 640 1211 q 513 1131 570 1131 q 470 1136 490 1131 q 415 1160 450 1141 m 100 389 l 100 1013 l 237 1013 l 237 326 q 241 221 237 252 q 256 172 245 189 q 318 112 277 132 q 418 92 359 92 q 517 112 477 92 q 581 172 558 132 q 595 220 591 189 q 599 325 599 252 l 599 1013 l 736 1013 l 736 389 q 716 168 736 233 q 650 60 697 102 q 547 0 605 20 q 418 -20 490 -20 q 289 0 347 -20 q 186 60 231 20 q 119 169 139 102 q 100 389 100 235 z "},"ũ":{"ha":836,"x_min":132,"x_max":713,"o":"m 420 929 l 381 966 q 356 986 367 980 q 335 993 345 993 q 297 968 309 993 q 283 888 285 943 l 199 888 q 235 1029 200 979 q 331 1079 269 1079 q 379 1069 357 1079 q 426 1038 401 1060 l 464 1000 q 489 980 478 987 q 509 974 500 974 q 548 999 536 974 q 561 1079 560 1024 l 646 1079 q 610 938 645 988 q 514 888 576 888 q 466 897 488 888 q 420 929 444 907 m 132 288 l 132 758 l 257 758 l 257 288 q 293 137 257 185 q 406 89 330 89 q 541 151 494 89 q 587 329 587 213 l 587 758 l 713 758 l 713 0 l 587 0 l 587 114 q 497 14 554 48 q 363 -20 439 -20 q 189 57 246 -20 q 132 288 132 133 z "},"Ū":{"ha":836,"x_min":100,"x_max":736,"o":"m 215 1248 l 621 1248 l 621 1147 l 215 1147 l 215 1248 m 100 389 l 100 1013 l 237 1013 l 237 326 q 241 221 237 252 q 256 172 245 189 q 318 112 277 132 q 418 92 359 92 q 517 112 477 92 q 581 172 558 132 q 595 220 591 189 q 599 325 599 252 l 599 1013 l 736 1013 l 736 389 q 716 168 736 233 q 650 60 697 102 q 547 0 605 20 q 418 -20 490 -20 q 289 0 347 -20 q 186 60 231 20 q 119 169 139 102 q 100 389 100 235 z "},"ū":{"ha":836,"x_min":132,"x_max":713,"o":"m 220 1035 l 625 1035 l 625 935 l 220 935 l 220 1035 m 132 288 l 132 758 l 257 758 l 257 288 q 293 137 257 185 q 406 89 330 89 q 541 151 494 89 q 587 329 587 213 l 587 758 l 713 758 l 713 0 l 587 0 l 587 114 q 497 14 554 48 q 363 -20 439 -20 q 189 57 246 -20 q 132 288 132 133 z "},"Ŭ":{"ha":836,"x_min":100,"x_max":736,"o":"m 205 1289 l 286 1289 q 328 1233 294 1253 q 418 1214 362 1214 q 506 1233 473 1214 q 549 1289 539 1251 l 630 1289 q 569 1167 623 1208 q 418 1125 515 1125 q 267 1166 320 1125 q 205 1289 213 1208 m 100 389 l 100 1013 l 237 1013 l 237 326 q 241 221 237 252 q 256 172 245 189 q 318 112 277 132 q 418 92 359 92 q 517 112 477 92 q 581 172 558 132 q 595 220 591 189 q 599 325 599 252 l 599 1013 l 736 1013 l 736 389 q 716 168 736 233 q 650 60 697 102 q 547 0 605 20 q 418 -20 490 -20 q 289 0 347 -20 q 186 60 231 20 q 119 169 139 102 q 100 389 100 235 z "},"ŭ":{"ha":836,"x_min":132,"x_max":713,"o":"m 210 1090 l 291 1090 q 331 1014 298 1039 q 422 989 363 989 q 512 1014 479 989 q 554 1090 545 1039 l 635 1090 q 574 945 627 994 q 422 896 520 896 q 271 945 325 896 q 210 1090 218 994 m 132 288 l 132 758 l 257 758 l 257 288 q 293 137 257 185 q 406 89 330 89 q 541 151 494 89 q 587 329 587 213 l 587 758 l 713 758 l 713 0 l 587 0 l 587 114 q 497 14 554 48 q 363 -20 439 -20 q 189 57 246 -20 q 132 288 132 133 z "},"Ů":{"ha":836,"x_min":100,"x_max":736,"o":"m 100 389 l 100 1013 l 237 1013 l 237 326 q 241 221 237 252 q 256 172 245 189 q 318 112 277 132 q 418 92 359 92 q 517 112 477 92 q 581 172 558 132 q 595 220 591 189 q 599 325 599 252 l 599 1013 l 736 1013 l 736 389 q 716 168 736 233 q 650 60 697 102 q 547 0 605 20 q 418 -20 490 -20 q 289 0 347 -20 q 186 60 231 20 q 119 169 139 102 q 100 389 100 235 m 611 1261 q 557 1128 611 1183 q 425 1074 503 1074 q 293 1128 347 1074 q 239 1261 239 1183 q 293 1393 239 1339 q 425 1447 347 1447 q 557 1393 503 1447 q 611 1261 611 1339 m 528 1261 q 498 1333 528 1303 q 425 1363 468 1363 q 352 1334 381 1363 q 322 1261 322 1304 q 352 1187 322 1217 q 425 1158 381 1158 q 498 1187 468 1158 q 528 1261 528 1217 z "},"ů":{"ha":836,"x_min":132,"x_max":713,"o":"m 132 288 l 132 758 l 257 758 l 257 288 q 293 137 257 185 q 406 89 330 89 q 541 151 494 89 q 587 329 587 213 l 587 758 l 713 758 l 713 0 l 587 0 l 587 114 q 497 14 554 48 q 363 -20 439 -20 q 189 57 246 -20 q 132 288 132 133 m 614 1004 q 561 871 614 926 q 428 817 507 817 q 296 871 350 817 q 242 1004 242 926 q 296 1136 242 1082 q 428 1190 350 1190 q 561 1136 507 1190 q 614 1004 614 1082 m 531 1004 q 501 1076 531 1046 q 428 1106 471 1106 q 355 1077 385 1106 q 326 1004 326 1047 q 355 930 326 960 q 428 901 385 901 q 501 930 471 901 q 531 1004 531 960 z "},"Ű":{"ha":836,"x_min":100,"x_max":736,"o":"m 583 1288 l 709 1288 l 554 1109 l 450 1109 l 583 1288 m 367 1288 l 493 1288 l 338 1109 l 233 1109 l 367 1288 m 100 389 l 100 1013 l 237 1013 l 237 326 q 241 221 237 252 q 256 172 245 189 q 318 112 277 132 q 418 92 359 92 q 517 112 477 92 q 581 172 558 132 q 595 220 591 189 q 599 325 599 252 l 599 1013 l 736 1013 l 736 389 q 716 168 736 233 q 650 60 697 102 q 547 0 605 20 q 418 -20 490 -20 q 289 0 347 -20 q 186 60 231 20 q 119 169 139 102 q 100 389 100 235 z "},"ű":{"ha":836,"x_min":132,"x_max":713,"o":"m 363 1111 l 478 1111 l 326 856 l 233 856 l 363 1111 m 589 1111 l 710 1111 l 542 856 l 450 856 l 589 1111 m 132 288 l 132 758 l 257 758 l 257 288 q 293 137 257 185 q 406 89 330 89 q 541 151 494 89 q 587 329 587 213 l 587 758 l 713 758 l 713 0 l 587 0 l 587 114 q 497 14 554 48 q 363 -20 439 -20 q 189 57 246 -20 q 132 288 132 133 z "},"Ų":{"ha":836,"x_min":100,"x_max":736,"o":"m 100 389 l 100 1013 l 237 1013 l 237 326 q 241 221 237 252 q 256 172 245 189 q 318 112 277 132 q 418 92 359 92 q 517 112 477 92 q 581 172 558 132 q 595 220 591 189 q 599 325 599 252 l 599 1013 l 736 1013 l 736 389 q 716 168 736 233 q 650 60 697 102 q 547 0 605 20 q 418 -20 490 -20 q 289 0 347 -20 q 186 60 231 20 q 119 169 139 102 q 100 389 100 235 m 377 -10 l 458 -10 q 413 -81 427 -52 q 398 -132 398 -111 q 417 -179 398 -163 q 472 -195 435 -195 q 515 -190 494 -195 q 557 -174 536 -184 l 557 -264 q 508 -275 531 -271 q 465 -278 485 -278 q 343 -249 382 -278 q 304 -156 304 -219 q 322 -88 304 -123 q 377 -10 340 -52 z "},"ų":{"ha":836,"x_min":132,"x_max":814,"o":"m 132 288 l 132 758 l 257 758 l 257 288 q 293 137 257 185 q 406 89 330 89 q 541 151 494 89 q 587 329 587 213 l 587 758 l 713 758 l 713 0 l 587 0 l 587 114 q 497 14 554 48 q 363 -20 439 -20 q 189 57 246 -20 q 132 288 132 133 m 634 0 l 715 0 q 670 -71 684 -41 q 655 -122 655 -101 q 674 -169 655 -153 q 729 -184 692 -184 q 772 -179 751 -184 q 814 -164 793 -174 l 814 -254 q 765 -264 788 -261 q 722 -268 742 -268 q 600 -238 639 -268 q 561 -146 561 -209 q 579 -78 561 -113 q 634 0 597 -42 z "},"Ŵ":{"ha":836,"x_min":0,"x_max":836,"o":"m 354 1294 l 482 1294 l 625 1114 l 530 1114 l 418 1234 l 306 1114 l 211 1114 l 354 1294 m 0 1013 l 134 1013 l 231 191 l 346 734 l 489 734 l 606 189 l 703 1013 l 836 1013 l 685 0 l 555 0 l 418 602 l 281 0 l 151 0 l 0 1013 z "},"ŵ":{"ha":836,"x_min":0,"x_max":836,"o":"m 368 1116 l 468 1116 l 635 861 l 541 861 l 418 1027 l 296 861 l 201 861 l 368 1116 m 0 760 l 123 760 l 256 146 l 364 538 l 471 538 l 581 146 l 713 760 l 836 760 l 659 0 l 539 0 l 418 416 l 297 0 l 178 0 l 0 760 z "},"Ŷ":{"ha":836,"x_min":25,"x_max":811,"o":"m 354 1294 l 482 1294 l 625 1114 l 530 1114 l 418 1234 l 306 1114 l 211 1114 l 354 1294 m 25 1013 l 171 1013 l 418 566 l 664 1013 l 811 1013 l 486 454 l 486 0 l 349 0 l 349 454 l 25 1013 z "},"ŷ":{"ha":836,"x_min":71,"x_max":782,"o":"m 376 1116 l 476 1116 l 643 861 l 549 861 l 426 1027 l 304 861 l 210 861 l 376 1116 m 582 244 q 503 35 551 165 q 412 -183 435 -144 q 334 -262 381 -236 q 225 -289 288 -289 l 125 -289 l 125 -184 l 199 -184 q 285 -153 254 -184 q 364 12 316 -121 l 71 760 l 203 760 l 428 165 l 650 760 l 782 760 l 582 244 z "},"Ÿ":{"ha":836,"x_min":25,"x_max":811,"o":"m 25 1013 l 171 1013 l 418 566 l 664 1013 l 811 1013 l 486 454 l 486 0 l 349 0 l 349 454 l 25 1013 m 217 1268 l 355 1268 l 355 1131 l 217 1131 l 217 1268 m 482 1268 l 619 1268 l 619 1131 l 482 1131 l 482 1268 z "},"Ź":{"ha":836,"x_min":106,"x_max":793,"o":"m 474 1288 l 600 1288 l 445 1109 l 340 1109 l 474 1288 m 121 1013 l 778 1013 l 778 908 l 249 115 l 793 115 l 793 0 l 106 0 l 106 104 l 621 897 l 121 897 l 121 1013 z "},"ź":{"ha":836,"x_min":138,"x_max":705,"o":"m 571 1116 l 705 1116 l 485 861 l 380 861 l 571 1116 m 154 761 l 705 761 l 705 647 l 269 102 l 705 102 l 705 0 l 138 0 l 138 115 l 574 661 l 154 661 l 154 761 z "},"Ż":{"ha":836,"x_min":106,"x_max":793,"o":"m 382 1270 l 521 1270 l 521 1131 l 382 1131 l 382 1270 m 121 1013 l 778 1013 l 778 908 l 249 115 l 793 115 l 793 0 l 106 0 l 106 104 l 621 897 l 121 897 l 121 1013 z "},"ż":{"ha":836,"x_min":138,"x_max":705,"o":"m 348 1053 l 487 1053 l 487 914 l 348 914 l 348 1053 m 154 761 l 705 761 l 705 647 l 269 102 l 705 102 l 705 0 l 138 0 l 138 115 l 574 661 l 154 661 l 154 761 z "},"Ž":{"ha":836,"x_min":106,"x_max":793,"o":"m 121 1013 l 778 1013 l 778 908 l 249 115 l 793 115 l 793 0 l 106 0 l 106 104 l 621 897 l 121 897 l 121 1013 m 354 1109 l 211 1289 l 306 1289 l 418 1168 l 530 1289 l 625 1289 l 482 1109 l 354 1109 z "},"ž":{"ha":836,"x_min":138,"x_max":705,"o":"m 154 761 l 705 761 l 705 647 l 269 102 l 705 102 l 705 0 l 138 0 l 138 115 l 574 661 l 154 661 l 154 761 m 368 856 l 201 1111 l 296 1111 l 418 945 l 541 1111 l 635 1111 l 468 856 l 368 856 z "},"ſ":{"ha":836,"x_min":132,"x_max":721,"o":"m 460 827 l 460 0 l 335 0 l 335 663 l 132 663 l 132 760 l 335 760 l 335 812 q 392 996 335 937 q 571 1055 450 1055 l 721 1055 l 721 951 l 579 951 q 486 924 512 951 q 460 827 460 897 z "},"ƀ":{"ha":836,"x_min":47,"x_max":754,"o":"m 256 663 q 338 748 286 718 q 460 778 391 778 q 675 672 597 778 q 754 382 754 567 q 675 87 754 194 q 458 -20 596 -20 q 339 10 391 -20 q 256 96 287 39 l 256 0 l 131 0 l 131 861 l 47 861 l 47 972 l 131 972 l 131 1055 l 256 1055 l 256 972 l 257 972 l 496 972 l 496 861 l 257 861 l 256 861 l 256 663 m 576 160 q 600 197 576 160 q 623 379 623 234 q 576 598 623 524 q 440 672 530 672 q 302 598 349 672 q 256 379 256 524 q 302 161 256 235 q 440 86 349 86 q 576 160 530 86 z "},"Ɓ":{"ha":836,"x_min":14,"x_max":806,"o":"m 366 484 l 366 113 l 448 113 q 618 154 567 113 q 669 292 669 196 q 615 437 669 391 q 448 484 562 484 l 366 484 m 366 900 l 366 595 l 445 595 q 588 633 544 595 q 633 755 633 671 q 589 866 633 832 q 445 900 545 900 l 366 900 m 229 1013 l 448 1013 q 687 945 603 1013 q 771 755 771 878 q 727 609 771 663 q 593 542 682 555 q 750 457 693 527 q 806 278 806 387 q 716 70 806 140 q 448 0 626 0 l 229 0 l 229 900 q 153 870 187 900 q 119 765 119 841 l 119 732 l 14 732 l 14 779 q 71 950 14 887 q 229 1013 128 1013 z "},"Ƃ":{"ha":836,"x_min":113,"x_max":771,"o":"m 250 484 l 250 113 l 412 113 q 583 154 532 113 q 633 292 633 196 q 580 437 633 391 q 412 484 526 484 l 250 484 m 724 900 l 250 900 l 250 595 l 410 595 q 735 455 667 585 q 771 278 771 387 q 681 71 771 140 q 412 0 591 0 l 113 0 l 113 1013 l 724 1013 l 724 900 z "},"ƃ":{"ha":836,"x_min":131,"x_max":754,"o":"m 256 663 q 338 748 286 718 q 460 778 391 778 q 675 672 597 778 q 754 382 754 567 q 675 87 754 194 q 458 -20 596 -20 q 339 10 391 -20 q 256 96 287 39 l 256 0 l 131 0 l 131 1055 l 641 1055 l 641 930 l 256 930 l 256 663 m 576 160 q 600 197 576 160 q 623 379 623 234 q 576 598 623 524 q 440 672 530 672 q 302 598 349 672 q 256 379 256 524 q 302 161 256 235 q 440 86 349 86 q 576 160 530 86 z "},"Ƅ":{"ha":836,"x_min":33,"x_max":804,"o":"m 283 484 l 283 113 l 445 113 q 615 155 564 113 q 666 292 666 196 q 612 437 666 391 q 445 484 559 484 l 283 484 m 283 595 l 442 595 q 768 455 699 585 q 804 278 804 387 q 713 71 804 140 q 445 0 623 0 l 145 0 l 145 643 l 33 798 l 283 1013 l 283 595 z "},"ƅ":{"ha":836,"x_min":41,"x_max":795,"o":"m 617 160 q 640 197 617 160 q 663 379 663 234 q 617 598 663 524 q 481 672 571 672 q 343 598 391 672 q 297 379 297 524 q 343 161 297 235 q 481 86 391 86 q 617 160 571 86 m 297 663 q 379 748 327 718 q 500 778 431 778 q 716 673 637 778 q 795 382 795 567 q 716 87 795 194 q 499 -20 637 -20 q 380 9 431 -20 q 297 96 328 39 l 297 0 l 172 0 l 172 643 l 41 798 l 297 1055 l 297 663 z "},"Ɔ":{"ha":836,"x_min":94,"x_max":728,"o":"m 94 975 q 201 1017 146 1003 q 318 1031 256 1031 q 620 892 511 1031 q 728 505 728 753 q 620 118 728 256 q 318 -20 513 -20 q 201 -6 256 -20 q 94 36 146 8 l 94 176 q 201 113 144 135 q 318 92 258 92 q 518 195 452 92 q 585 505 585 298 q 518 817 585 713 q 318 920 452 920 q 202 898 260 920 q 94 835 144 876 l 94 975 z "},"Ƈ":{"ha":836,"x_min":41,"x_max":795,"o":"m 674 36 q 567 -6 622 8 q 450 -20 512 -20 q 148 118 256 -20 q 41 505 41 256 q 149 846 41 707 q 450 985 257 985 q 565 971 511 985 q 609 1040 581 1006 q 782 1112 670 1112 l 795 1112 l 795 1006 q 704 964 739 1006 q 674 836 674 928 l 674 789 q 566 852 624 830 q 450 873 509 873 q 250 770 317 873 q 184 505 184 667 q 250 195 184 298 q 450 92 317 92 q 567 113 510 92 q 674 176 625 135 l 674 36 z "},"ƈ":{"ha":836,"x_min":64,"x_max":772,"o":"m 651 39 q 548 -5 601 9 q 439 -20 494 -20 q 163 86 262 -20 q 64 379 64 192 q 163 672 64 566 q 439 778 262 778 q 532 767 486 778 q 586 892 545 844 q 759 964 647 964 l 772 964 l 772 859 q 681 817 711 859 q 651 689 651 774 l 651 589 q 552 652 602 633 q 439 672 502 672 q 258 596 321 672 q 195 379 195 520 q 259 162 195 239 q 439 86 322 86 q 555 106 504 86 q 651 168 607 126 l 651 39 z "},"Ɖ":{"ha":836,"x_min":5,"x_max":747,"o":"m 296 1013 q 637 889 528 1013 q 747 505 747 766 q 637 123 747 246 q 296 0 527 0 l 90 0 l 90 481 l 5 481 l 5 582 l 90 582 l 90 1013 l 296 1013 m 296 113 q 537 198 469 113 q 606 505 606 283 q 537 815 606 730 q 296 900 469 900 l 231 900 l 231 582 l 410 582 l 410 481 l 231 481 l 231 113 l 296 113 z "},"Ɗ":{"ha":836,"x_min":5,"x_max":831,"o":"m 221 1013 l 379 1013 q 721 889 611 1013 q 831 505 831 766 q 721 123 831 246 q 379 0 611 0 l 221 0 l 221 900 q 144 868 184 900 q 111 765 111 842 l 111 732 l 5 732 l 5 779 q 71 957 5 902 q 221 1013 136 1013 m 376 113 q 618 198 549 113 q 686 505 686 283 q 618 815 686 730 q 376 900 550 900 l 359 900 l 359 113 l 376 113 z "},"Ƌ":{"ha":836,"x_min":89,"x_max":747,"o":"m 610 484 l 448 484 q 280 437 334 484 q 227 292 227 391 q 277 154 227 196 q 448 113 328 113 l 610 113 l 610 484 m 136 900 l 136 1013 l 747 1013 l 747 0 l 448 0 q 179 70 269 0 q 89 278 89 140 q 125 455 89 387 q 450 595 193 585 l 610 595 l 610 900 l 136 900 z "},"ƌ":{"ha":836,"x_min":106,"x_max":730,"o":"m 284 598 q 261 561 284 598 q 238 379 238 524 q 284 160 238 234 q 420 86 330 86 q 558 161 511 86 q 605 379 605 235 q 558 598 605 524 q 420 672 511 672 q 284 598 330 672 m 220 930 l 220 1055 l 730 1055 l 730 0 l 605 0 l 605 96 q 522 10 574 39 q 402 -20 470 -20 q 185 87 264 -20 q 106 382 106 194 q 185 672 106 567 q 401 778 264 778 q 523 748 470 778 q 605 663 575 718 l 605 930 l 220 930 z "},"ƍ":{"ha":836,"x_min":92,"x_max":743,"o":"m 418 86 q 562 160 513 86 q 610 379 610 234 q 562 598 610 524 q 418 672 513 672 q 273 598 322 672 q 224 379 224 524 q 273 160 224 234 q 418 86 322 86 m 609 35 q 649 1 622 28 q 691 -102 691 -40 q 611 -250 691 -195 q 397 -306 530 -306 q 294 -298 328 -306 l 191 -273 l 191 -156 q 283 -182 236 -172 q 384 -193 334 -193 q 397 -193 390 -193 l 418 -192 q 509 -161 468 -191 l 535 -142 q 553 -95 553 -126 q 545 -60 553 -73 q 505 -29 533 -43 q 418 -20 489 -20 q 176 83 258 -18 q 92 379 92 185 q 176 676 92 574 q 418 778 259 778 q 659 676 576 778 q 743 379 743 574 q 659 83 743 185 q 609 35 638 57 z "},"Ǝ":{"ha":836,"x_min":134,"x_max":747,"o":"m 747 1013 l 747 0 l 134 0 l 134 115 l 610 115 l 610 482 l 167 482 l 167 597 l 610 597 l 610 897 l 146 897 l 146 1013 l 747 1013 z "},"Ə":{"ha":836,"x_min":79,"x_max":757,"o":"m 79 505 l 79 562 l 613 562 l 613 567 q 566 825 613 730 q 418 920 519 920 q 302 898 359 920 q 194 835 244 876 l 194 975 q 301 1017 246 1003 q 418 1031 356 1031 q 673 901 589 1031 q 757 505 757 770 q 673 111 757 241 q 418 -20 589 -20 q 163 110 246 -20 q 79 505 79 239 m 225 437 q 273 180 225 269 q 420 92 320 92 q 564 178 521 92 q 612 437 606 264 l 225 437 z "},"Ɛ":{"ha":836,"x_min":93,"x_max":732,"o":"m 298 542 q 163 620 210 565 q 117 758 117 675 q 205 956 117 881 q 441 1031 294 1031 q 555 1020 491 1031 q 701 987 619 1009 l 701 861 q 566 902 631 888 q 441 916 502 916 q 301 874 351 916 q 252 754 252 832 q 305 639 252 680 q 452 597 358 597 l 557 597 l 557 485 l 452 485 q 289 433 349 485 q 229 293 229 381 q 289 146 229 197 q 462 96 349 96 q 595 113 528 96 q 732 167 663 131 l 732 31 q 589 -7 662 6 q 447 -20 517 -20 q 187 60 281 -20 q 93 279 93 140 q 146 448 93 380 q 298 542 199 515 z "},"Ƒ":{"ha":836,"x_min":43,"x_max":793,"o":"m 258 1013 l 793 1013 l 793 897 l 395 897 l 395 599 l 751 599 l 751 484 l 395 484 l 395 -14 q 335 -217 395 -146 q 162 -289 274 -289 l 43 -289 l 43 -183 l 136 -183 q 228 -141 197 -183 q 258 -14 258 -99 l 258 1013 z "},"ƒ":{"ha":836,"x_min":132,"x_max":721,"o":"m 721 1055 l 721 951 l 579 951 l 578 951 q 486 924 512 951 q 460 827 460 897 l 460 760 l 721 760 l 721 663 l 460 663 l 460 -14 q 405 -224 460 -159 q 227 -289 349 -289 l 179 -289 l 179 -183 l 212 -183 q 309 -151 283 -183 q 335 -14 335 -117 l 334 663 l 132 663 l 132 760 l 333 760 l 333 812 q 392 997 333 935 q 458 1038 417 1023 q 571 1055 505 1055 l 577 1055 l 579 1055 l 721 1055 z "},"Ɠ":{"ha":836,"x_min":35,"x_max":801,"o":"m 715 83 q 591 6 659 33 q 442 -20 522 -20 q 142 118 250 -20 q 35 505 35 256 q 144 892 35 753 q 445 1031 252 1031 q 567 1013 509 1031 q 590 1005 578 1009 q 614 1040 600 1023 q 788 1112 675 1112 l 801 1112 l 801 1006 q 709 964 744 1006 q 680 836 680 927 l 680 818 q 568 895 625 870 q 445 920 510 920 q 245 816 312 920 q 178 505 178 713 q 243 193 178 294 q 442 92 308 92 q 522 102 487 92 q 583 135 556 113 l 583 407 l 437 407 l 437 519 l 715 519 l 715 83 z "},"Ɣ":{"ha":836,"x_min":19,"x_max":818,"o":"m 495 441 q 715 -132 715 136 q 433 -292 715 -292 q 134 -132 134 -292 q 334 446 134 117 l 19 918 l 165 918 l 418 541 l 670 918 l 818 918 l 495 441 m 407 336 q 273 -88 273 132 q 419 -182 273 -182 q 557 -88 557 -182 q 407 336 557 132 z "},"ƕ":{"ha":836,"x_min":44,"x_max":792,"o":"m 512 471 l 512 275 l 511 275 q 534 138 511 172 q 597 106 560 103 q 647 157 610 107 q 679 307 679 201 l 679 586 l 792 586 l 792 307 q 741 76 792 153 q 585 0 689 0 q 448 65 498 0 q 399 275 399 130 l 399 471 q 367 621 399 573 q 290 669 334 669 q 199 607 241 669 q 157 429 157 545 l 157 0 l 44 0 l 44 1055 l 157 1055 l 157 646 q 220 745 209 736 q 329 778 271 778 q 460 702 409 778 q 512 471 512 625 z "},"Ɩ":{"ha":836,"x_min":136,"x_max":734,"o":"m 349 897 l 136 897 l 136 1013 l 699 1013 l 699 897 l 486 897 l 486 286 q 516 158 486 199 q 608 116 547 116 l 733 116 l 734 0 l 587 0 q 409 72 471 0 q 349 275 349 141 l 349 897 z "},"Ɨ":{"ha":836,"x_min":136,"x_max":699,"o":"m 136 1013 l 699 1013 l 699 897 l 486 897 l 486 507 l 488 507 l 667 507 l 667 391 l 488 391 l 486 391 l 486 115 l 699 115 l 699 0 l 136 0 l 136 115 l 349 115 l 349 391 l 170 391 l 170 507 l 349 507 l 349 897 l 136 897 l 136 1013 z "},"Ƙ":{"ha":836,"x_min":75,"x_max":827,"o":"m 439 800 q 619 924 548 916 q 647 926 633 926 q 795 859 732 926 l 827 824 l 755 747 l 732 772 q 661 806 702 806 q 637 804 650 806 q 518 715 592 793 l 407 599 l 812 0 l 647 0 l 317 507 l 212 396 l 212 0 l 75 0 l 75 1013 l 212 1013 l 212 562 l 439 800 z "},"ƙ":{"ha":836,"x_min":160,"x_max":815,"o":"m 160 680 l 160 780 q 220 983 160 912 q 393 1055 281 1055 l 532 1055 l 532 949 l 407 949 q 315 907 346 949 q 286 780 286 865 l 289 780 l 289 444 l 616 760 l 768 760 l 469 473 l 815 0 l 663 0 l 382 392 l 289 304 l 289 0 l 160 0 l 160 680 z "},"ƚ":{"ha":836,"x_min":109,"x_max":701,"o":"m 433 275 q 464 149 433 191 q 555 106 495 106 l 701 106 l 701 0 l 543 0 q 370 72 431 0 q 309 275 309 144 l 309 408 l 154 408 l 154 505 l 309 505 l 309 965 l 109 965 l 109 1063 l 433 1063 l 433 505 l 439 505 l 589 505 l 589 408 l 439 408 l 433 408 l 433 275 z "},"ƛ":{"ha":836,"x_min":33,"x_max":768,"o":"m 393 823 l 629 987 l 683 912 l 431 737 l 768 0 l 639 0 l 421 477 l 197 0 l 68 0 l 356 619 l 333 669 l 87 499 l 33 574 l 294 755 l 176 1013 l 306 1013 l 393 823 z "},"Ɯ":{"ha":836,"x_min":74,"x_max":770,"o":"m 385 77 q 327 5 362 28 q 241 -18 291 -18 q 112 53 149 -18 q 74 319 74 123 l 74 1013 l 188 1013 l 188 325 q 206 125 188 164 q 271 86 224 86 q 346 128 326 86 q 366 325 366 170 l 366 1013 l 479 1013 l 479 325 q 499 124 479 162 q 568 86 518 86 q 637 128 618 86 q 656 325 656 170 l 656 1013 l 770 1013 l 770 0 l 656 0 l 656 65 q 601 3 634 24 q 524 -18 567 -18 q 438 5 473 -18 q 385 77 404 29 z "},"Ɲ":{"ha":836,"x_min":20,"x_max":711,"o":"m 129 1013 l 285 1013 l 593 179 l 593 1013 l 711 1013 l 711 0 l 555 0 l 248 833 l 248 -14 q 193 -217 248 -146 q 38 -289 138 -289 l 20 -289 l 20 -183 q 102 -141 75 -183 q 129 -14 129 -100 l 129 1013 z "},"ƞ":{"ha":836,"x_min":132,"x_max":713,"o":"m 713 471 l 713 -292 l 587 -292 l 587 471 q 551 621 587 573 q 439 669 515 669 q 304 607 351 669 q 257 429 257 545 l 257 0 l 132 0 l 132 760 l 257 760 l 257 646 q 347 744 290 711 q 482 778 404 778 q 655 702 598 778 q 713 471 713 625 z "},"Ɵ":{"ha":836,"x_min":79,"x_max":757,"o":"m 757 505 q 673 111 757 241 q 418 -20 589 -20 q 163 110 246 -20 q 79 505 79 239 q 163 901 79 770 q 418 1031 247 1031 q 673 901 589 1031 q 757 505 757 770 m 613 562 q 568 824 608 741 q 418 920 522 920 q 269 824 314 920 q 223 562 229 741 l 613 562 m 224 437 q 269 187 230 267 q 418 92 314 92 q 568 187 522 92 q 612 437 606 267 l 224 437 z "},"Ơ":{"ha":836,"x_min":5,"x_max":808,"o":"m 540 876 l 540 957 q 611 912 581 926 q 662 897 641 897 q 709 916 693 897 q 724 971 724 935 q 719 1014 724 993 q 704 1056 714 1035 l 794 1056 q 804 1007 801 1030 q 808 964 808 984 q 778 842 808 881 q 686 803 749 803 q 617 821 653 803 q 540 876 582 839 m 539 505 q 493 824 539 728 q 343 920 448 920 q 194 824 239 920 q 148 505 148 728 q 194 187 148 283 q 343 92 239 92 q 493 187 448 92 q 539 505 539 282 m 682 505 q 598 111 682 241 q 343 -20 515 -20 q 88 110 172 -20 q 5 505 5 239 q 89 901 5 770 q 343 1031 172 1031 q 598 901 515 1031 q 682 505 682 770 z "},"ơ":{"ha":836,"x_min":22,"x_max":815,"o":"m 547 591 l 547 672 q 618 627 589 642 q 669 612 648 612 q 716 631 701 612 q 732 686 732 650 q 727 729 732 708 q 711 771 722 750 l 802 771 q 812 722 808 745 q 815 679 815 699 q 786 557 815 596 q 693 518 756 518 q 625 536 661 518 q 547 591 589 554 m 347 672 q 203 598 252 672 q 155 379 155 524 q 203 160 155 235 q 347 86 252 86 q 492 160 443 86 q 541 379 541 235 q 492 598 541 524 q 347 672 443 672 m 347 778 q 589 675 505 778 q 673 379 673 573 q 589 82 673 184 q 347 -20 506 -20 q 106 82 189 -20 q 22 379 22 184 q 106 675 22 573 q 347 778 189 778 z "},"Ƣ":{"ha":836,"x_min":31,"x_max":806,"o":"m 31 505 q 257 1021 31 961 q 335 1031 293 1031 q 550 924 475 1031 l 650 1013 l 806 1013 l 806 0 l 687 0 l 687 833 l 565 725 l 565 111 q 335 -20 490 -20 q 105 110 180 -20 q 31 505 31 239 m 470 824 q 335 920 429 920 q 200 824 241 920 q 159 505 159 728 q 200 187 159 283 q 335 92 241 92 q 470 187 429 92 l 470 824 z "},"ƣ":{"ha":836,"x_min":58,"x_max":810,"o":"m 58 379 q 228 753 58 675 q 351 778 282 778 q 568 675 493 778 l 568 646 l 654 721 l 810 721 l 810 -292 l 691 -292 l 691 542 l 568 435 l 568 83 q 351 -20 494 -20 q 117 108 192 -20 q 58 379 58 207 m 178 379 q 323 88 178 111 q 351 86 336 86 q 481 160 437 86 l 481 598 q 351 672 437 672 q 184 478 211 672 q 178 379 178 433 z "},"Ƥ":{"ha":836,"x_min":38,"x_max":798,"o":"m 798 710 q 587 422 798 474 q 454 407 528 407 l 391 407 l 391 0 l 254 0 l 254 900 q 176 868 217 900 q 144 765 144 842 l 144 732 l 38 732 l 38 779 q 103 958 38 902 q 254 1013 168 1013 l 454 1013 q 785 814 730 1013 q 798 710 798 768 m 454 519 q 640 626 597 519 q 655 710 655 664 q 602 850 655 800 q 454 900 549 900 l 391 900 l 391 519 l 454 519 z "},"ƥ":{"ha":836,"x_min":129,"x_max":751,"o":"m 254 379 q 396 91 254 125 q 439 86 416 86 q 575 160 529 86 q 621 379 621 234 q 450 672 621 663 q 439 672 444 672 q 262 487 294 672 q 254 379 254 439 m 254 663 q 448 778 316 774 q 457 778 452 778 q 673 671 595 778 q 751 376 751 565 q 673 86 751 191 q 457 -20 594 -20 q 336 10 388 -20 q 254 96 284 39 l 254 -289 l 129 -289 l 129 696 q 267 954 129 901 q 362 971 309 971 l 501 971 l 501 865 l 376 865 q 255 715 261 865 q 254 696 254 706 l 254 663 z "},"Ʀ":{"ha":836,"x_min":97,"x_max":836,"o":"m 515 299 q 606 248 568 286 q 699 98 642 211 l 836 -179 l 689 -179 l 568 77 q 474 217 516 186 q 366 249 433 249 l 235 249 l 235 0 l 97 0 l 97 1013 l 235 1013 l 235 833 l 379 833 q 635 758 546 833 q 724 541 724 683 q 669 377 724 440 q 515 299 614 313 m 235 721 l 235 361 l 385 361 q 531 406 483 361 q 579 541 579 450 q 528 674 579 628 q 379 721 477 721 l 235 721 z "},"Ƨ":{"ha":836,"x_min":94,"x_max":745,"o":"m 153 978 q 288 1018 224 1004 q 411 1031 353 1031 q 653 949 562 1031 q 745 732 745 867 q 681 559 745 623 q 476 463 617 494 l 403 446 q 265 384 304 424 q 225 268 225 344 q 283 138 225 184 q 444 92 340 92 q 584 115 515 92 q 732 187 654 138 l 732 41 q 587 -4 659 11 q 444 -20 515 -20 q 184 56 273 -20 q 94 277 94 132 q 159 471 94 399 q 367 575 224 542 l 439 591 q 577 650 540 615 q 614 753 614 686 q 557 874 614 829 q 404 920 501 920 q 278 899 340 920 q 153 839 215 879 l 153 978 z "},"ƨ":{"ha":836,"x_min":144,"x_max":699,"o":"m 183 733 q 294 767 237 755 q 411 778 350 778 q 622 719 548 778 q 696 550 696 659 q 646 414 696 464 q 489 343 597 364 l 442 334 l 437 332 q 271 212 271 299 q 316 118 271 152 q 444 85 361 85 q 565 103 501 85 q 699 157 629 121 l 699 28 q 565 -8 627 4 q 447 -20 503 -20 q 224 44 304 -20 q 144 220 144 107 q 192 357 144 304 q 333 428 240 410 l 383 437 q 538 486 507 461 q 570 562 570 511 q 528 646 570 618 q 401 673 486 673 q 291 658 345 673 q 183 611 237 642 l 183 733 z "},"Ʃ":{"ha":836,"x_min":81,"x_max":768,"o":"m 534 507 l 224 115 l 768 115 l 768 0 l 81 0 l 81 115 l 389 507 l 81 897 l 81 1013 l 768 1013 l 768 897 l 224 897 l 534 507 z "},"ƪ":{"ha":836,"x_min":80,"x_max":756,"o":"m 385 871 q 368 917 380 901 q 271 949 346 949 q 185 905 187 949 q 264 871 183 871 l 385 871 m 519 766 l 517 -60 q 544 -158 517 -130 q 637 -185 569 -185 l 756 -185 l 756 -289 l 638 -289 q 451 -231 506 -289 q 392 -46 392 -168 l 392 766 l 263 766 q 80 909 80 766 q 286 1055 80 1055 q 464 990 408 1055 q 512 871 500 947 l 642 871 l 642 766 l 519 766 z "},"ƫ":{"ha":836,"x_min":89,"x_max":700,"o":"m 416 975 l 416 760 l 700 760 l 700 663 l 416 663 l 416 250 q 448 133 416 166 q 559 100 480 100 l 700 100 l 700 0 l 700 -14 q 640 -217 700 -146 q 467 -289 578 -289 l 328 -289 l 328 -183 l 453 -183 q 545 -141 514 -183 q 574 -14 574 -99 l 574 0 l 547 0 q 349 56 407 0 q 292 250 292 113 l 292 663 l 89 663 l 89 760 l 292 760 l 292 975 l 416 975 z "},"Ƭ":{"ha":836,"x_min":32,"x_max":804,"o":"m 307 900 q 171 868 218 905 q 138 765 138 842 l 138 732 l 32 732 l 32 779 q 97 957 32 902 q 307 1013 162 1013 l 804 1013 l 804 897 l 488 897 l 488 0 l 350 0 l 350 897 l 307 900 z "},"ƭ":{"ha":836,"x_min":89,"x_max":700,"o":"m 416 760 l 700 760 l 700 663 l 416 663 l 416 250 q 448 133 416 166 q 559 100 480 100 l 700 100 l 700 0 l 547 0 q 349 56 407 0 q 292 250 292 113 l 292 663 l 89 663 l 89 760 l 291 760 l 291 780 q 351 983 291 912 q 524 1055 412 1055 l 663 1055 l 663 949 l 538 949 q 446 907 477 949 q 416 780 416 865 l 416 760 z "},"Ʈ":{"ha":836,"x_min":32,"x_max":804,"o":"m 32 1013 l 804 1013 l 804 897 l 488 897 l 488 -14 q 517 -141 488 -99 q 609 -183 548 -183 l 734 -183 l 734 -289 l 583 -289 q 410 -217 471 -289 q 350 -14 350 -146 l 350 897 l 32 897 l 32 1013 z "},"Ư":{"ha":836,"x_min":7,"x_max":830,"o":"m 562 879 l 562 960 q 633 915 604 929 q 684 900 663 900 q 731 919 715 900 q 747 974 747 937 q 742 1017 747 996 q 726 1059 736 1038 l 817 1059 q 827 1010 823 1033 q 830 966 830 987 q 801 845 830 884 q 708 806 771 806 q 640 824 675 806 q 562 879 604 842 m 7 389 l 7 1013 l 144 1013 l 144 326 q 149 221 144 252 q 163 172 153 189 q 225 112 184 132 q 325 92 267 92 q 425 112 384 92 q 488 172 465 132 q 502 220 498 189 q 506 325 506 252 l 506 1013 l 643 1013 l 643 389 q 624 168 643 233 q 557 60 604 102 q 454 0 512 20 q 325 -20 397 -20 q 196 0 254 -20 q 93 60 138 20 q 26 169 46 102 q 7 389 7 235 z "},"ư":{"ha":836,"x_min":27,"x_max":810,"o":"m 542 591 l 542 672 q 613 627 583 642 q 664 612 643 612 q 711 631 695 612 q 726 686 726 650 q 721 729 726 708 q 706 771 716 750 l 796 771 q 806 722 803 745 q 810 679 810 699 q 780 557 810 596 q 688 518 751 518 q 620 536 655 518 q 542 591 584 554 m 27 288 l 27 758 l 152 758 l 152 288 q 188 137 152 185 q 300 89 224 89 q 435 151 389 89 q 482 329 482 213 l 482 758 l 608 758 l 608 0 l 482 0 l 482 114 q 392 14 449 48 q 258 -20 334 -20 q 84 57 141 -20 q 27 288 27 133 z "},"Ʊ":{"ha":836,"x_min":50,"x_max":786,"o":"m 786 990 l 786 873 l 620 873 q 741 685 703 783 q 778 460 778 587 q 680 124 778 249 q 420 0 583 0 q 158 124 256 0 q 60 460 60 248 q 97 685 60 587 q 218 873 135 783 l 50 873 l 50 990 l 364 990 l 364 873 q 237 710 283 822 q 192 448 192 599 q 253 202 192 292 q 418 113 314 113 q 584 202 523 113 q 644 448 644 292 q 599 710 644 599 q 472 873 553 822 l 472 990 l 786 990 z "},"Ʋ":{"ha":836,"x_min":104,"x_max":723,"o":"m 343 0 q 165 72 228 0 q 104 275 104 141 l 104 1013 l 243 1013 l 243 286 q 273 158 243 200 q 363 116 302 116 q 529 206 468 116 q 590 452 590 296 q 545 714 590 602 q 418 877 499 825 l 566 877 q 686 688 648 786 q 723 463 723 591 q 625 127 723 252 q 343 0 526 0 z "},"Ƴ":{"ha":836,"x_min":12,"x_max":825,"o":"m 593 773 l 427 454 l 427 0 l 302 0 l 302 454 l 12 1013 l 142 1013 l 365 566 l 500 838 q 641 1002 567 973 q 703 1014 672 1014 q 808 975 757 1014 l 825 962 l 777 871 l 770 878 q 720 899 747 899 q 680 888 701 899 q 593 773 645 871 z "},"ƴ":{"ha":836,"x_min":16,"x_max":831,"o":"m 422 -71 q 319 -248 367 -208 q 184 -289 269 -289 l 85 -289 l 85 -184 l 158 -184 q 238 -160 210 -184 q 301 -45 267 -136 l 323 12 l 16 760 l 149 760 l 386 165 l 575 640 q 664 753 609 725 q 728 768 693 768 q 798 754 761 768 l 831 743 l 795 643 l 776 650 q 742 657 757 657 q 702 629 713 657 l 422 -71 z "},"Ƶ":{"ha":836,"x_min":106,"x_max":793,"o":"m 121 1013 l 778 1013 l 778 908 l 510 507 l 667 507 l 667 391 l 488 391 l 433 391 l 249 115 l 793 115 l 793 0 l 106 0 l 106 104 l 292 391 l 170 391 l 170 507 l 367 507 l 621 897 l 121 897 l 121 1013 z "},"ƶ":{"ha":836,"x_min":106,"x_max":730,"o":"m 151 761 l 702 761 l 702 647 l 519 418 l 730 418 l 730 307 l 490 307 l 430 307 l 266 102 l 702 102 l 702 0 l 134 0 l 134 115 l 287 307 l 106 307 l 106 418 l 376 418 l 570 661 l 151 661 l 151 761 z "},"Ʒ":{"ha":836,"x_min":18,"x_max":818,"o":"m 155 295 q 222 147 155 198 q 418 96 290 96 q 614 147 547 96 q 682 295 682 198 q 620 435 682 386 q 445 486 556 486 l 327 486 l 327 598 l 578 897 l 77 897 l 77 1013 l 735 1013 l 735 899 l 480 600 q 639 562 551 600 q 764 459 705 532 q 818 295 818 389 q 715 63 818 145 q 422 -19 612 -19 q 121 63 224 -19 q 18 295 18 145 l 155 295 z "},"Ƹ":{"ha":836,"x_min":18,"x_max":818,"o":"m 682 295 l 818 295 q 715 63 818 145 q 414 -19 612 -19 q 121 63 224 -19 q 18 295 18 145 q 73 459 18 389 q 198 562 131 532 q 357 600 286 600 l 102 899 l 102 1013 l 758 1013 l 758 897 l 259 897 l 510 598 l 510 486 l 392 486 q 217 435 279 486 q 155 295 155 386 q 222 147 155 198 q 418 96 290 96 q 614 147 547 96 q 682 295 682 198 z "},"ƹ":{"ha":836,"x_min":85,"x_max":751,"o":"m 423 323 l 144 646 l 144 760 l 737 760 l 737 660 l 285 660 l 576 321 l 576 209 l 458 209 q 283 159 347 209 q 221 18 221 108 q 289 -130 221 -79 q 485 -180 356 -180 q 627 -163 559 -180 q 751 -113 694 -146 l 751 -245 q 612 -283 680 -271 q 481 -296 545 -296 q 188 -214 291 -296 q 85 18 85 -132 q 140 182 85 112 q 264 285 198 256 q 423 323 351 323 z "},"ƺ":{"ha":836,"x_min":117,"x_max":719,"o":"m 474 -186 q 583 -172 531 -186 q 692 -127 637 -157 l 692 -249 q 578 -279 633 -271 q 454 -289 520 -289 q 129 -98 129 -289 q 404 99 129 63 q 597 191 597 124 q 437 275 597 275 q 241 275 437 275 l 570 660 l 117 660 l 117 760 l 710 760 l 710 646 l 470 366 q 719 211 719 366 q 404 -9 719 24 q 251 -92 251 -26 q 474 -186 251 -186 z "},"ƻ":{"ha":836,"x_min":103,"x_max":718,"o":"m 111 964 q 382 1031 252 1031 q 621 952 530 1031 q 711 745 711 873 q 681 614 711 680 q 613 507 658 564 l 667 507 l 667 391 l 511 391 l 473 349 l 253 115 l 718 115 l 718 0 l 103 0 l 103 115 l 362 391 l 170 391 l 170 507 l 465 507 q 556 652 536 595 q 571 734 571 692 q 469 901 571 860 q 385 916 431 916 q 111 825 262 916 l 111 964 z "},"Ƽ":{"ha":836,"x_min":18,"x_max":818,"o":"m 418 96 q 673 231 632 96 q 682 295 682 260 q 620 435 682 386 q 445 486 556 486 l 146 486 l 146 1013 l 772 1013 l 772 897 l 283 897 l 283 600 l 480 600 q 639 562 551 600 q 764 459 706 532 q 818 295 818 391 q 715 63 818 145 q 422 -19 612 -19 q 47 155 130 -19 q 18 295 18 216 l 155 295 q 262 124 155 172 q 418 96 323 96 z "},"ƽ":{"ha":836,"x_min":85,"x_max":751,"o":"m 351 -180 q 605 -48 562 -180 q 615 18 615 -18 q 553 159 615 109 q 378 209 490 209 l 174 209 l 174 760 l 684 760 l 684 635 l 299 635 l 299 322 l 413 323 q 572 285 483 323 q 696 182 639 256 q 751 18 751 112 q 648 -214 751 -132 q 355 -296 545 -296 q 85 -245 229 -296 l 85 -113 q 351 -180 200 -180 z "},"ƾ":{"ha":836,"x_min":132,"x_max":705,"o":"m 573 298 q 523 429 573 375 q 345 493 463 493 l 303 493 l 303 677 l 148 677 l 148 788 l 303 788 l 303 975 l 440 975 l 440 788 l 597 788 l 597 677 l 440 677 l 440 592 q 625 498 552 572 q 705 298 705 417 q 630 87 705 172 q 351 -20 536 -20 q 132 28 235 -20 l 132 144 q 345 86 237 86 q 534 163 467 86 q 573 298 572 208 z "},"ƿ":{"ha":836,"x_min":85,"x_max":764,"o":"m 210 -83 l 210 -289 l 85 -289 l 85 760 l 210 760 l 210 644 q 337 745 245 689 q 534 778 392 778 q 711 702 659 778 q 764 522 764 625 q 210 -83 764 233 m 210 41 q 635 481 635 312 q 596 616 635 571 q 477 660 558 660 q 210 498 328 660 l 210 41 z "},"ǀ":{"ha":836,"x_min":350,"x_max":487,"o":"m 350 1013 l 487 1013 l 487 0 l 350 0 l 350 1013 z "},"ǁ":{"ha":836,"x_min":214,"x_max":624,"o":"m 214 1013 l 351 1013 l 351 0 l 214 0 l 214 1013 m 487 1013 l 624 1013 l 624 0 l 487 0 l 487 1013 z "},"ǂ":{"ha":836,"x_min":111,"x_max":724,"o":"m 350 1013 l 487 1013 l 487 739 l 724 739 l 724 625 l 487 625 l 487 462 l 724 462 l 724 347 l 487 347 l 487 0 l 350 0 l 350 347 l 111 347 l 111 462 l 350 462 l 350 625 l 111 625 l 111 739 l 350 739 l 350 1013 z "},"ǃ":{"ha":836,"x_min":350,"x_max":528,"o":"m 370 1013 l 508 1013 l 508 568 l 494 360 l 385 360 l 370 568 l 370 1013 m 350 172 l 528 172 l 528 0 l 350 0 l 350 172 z "},"Ǎ":{"ha":836,"x_min":25,"x_max":811,"o":"m 418 892 l 273 374 l 562 374 l 418 892 m 335 1013 l 501 1013 l 811 0 l 669 0 l 595 264 l 240 264 l 167 0 l 25 0 l 335 1013 m 354 1109 l 211 1289 l 306 1289 l 418 1168 l 530 1289 l 625 1289 l 482 1109 l 354 1109 z "},"ǎ":{"ha":836,"x_min":90,"x_max":718,"o":"m 476 382 l 435 382 q 270 343 326 382 q 215 229 215 305 q 256 123 215 161 q 371 85 298 85 q 533 156 474 85 q 593 354 592 228 l 593 382 l 476 382 m 718 433 l 718 0 l 593 0 l 593 113 q 492 13 553 45 q 345 -20 431 -20 q 159 46 229 -20 q 90 221 90 111 q 175 414 90 348 q 425 479 260 479 l 593 479 l 593 499 q 547 631 592 590 q 401 672 501 672 q 273 654 338 672 q 146 600 208 635 l 146 725 q 278 765 215 751 q 401 778 342 778 q 563 750 496 778 q 671 667 629 722 q 707 583 696 633 q 718 433 718 533 m 368 856 l 201 1111 l 296 1111 l 418 945 l 541 1111 l 635 1111 l 468 856 l 368 856 z "},"Ǐ":{"ha":836,"x_min":136,"x_max":699,"o":"m 136 1013 l 699 1013 l 699 897 l 486 897 l 486 115 l 699 115 l 699 0 l 136 0 l 136 115 l 349 115 l 349 897 l 136 897 l 136 1013 m 354 1109 l 211 1289 l 306 1289 l 418 1168 l 530 1289 l 625 1289 l 482 1109 l 354 1109 z "},"ǐ":{"ha":836,"x_min":121,"x_max":741,"o":"m 174 760 l 493 760 l 493 97 l 741 97 l 741 0 l 121 0 l 121 97 l 368 97 l 368 663 l 174 663 l 174 760 m 368 856 l 201 1111 l 296 1111 l 418 945 l 541 1111 l 635 1111 l 468 856 l 368 856 z "},"Ǒ":{"ha":836,"x_min":79,"x_max":757,"o":"m 614 505 q 568 824 614 728 q 418 920 522 920 q 268 824 314 920 q 222 505 222 728 q 268 187 222 283 q 418 92 314 92 q 568 187 522 92 q 614 505 614 282 m 757 505 q 673 111 757 241 q 418 -20 589 -20 q 163 110 246 -20 q 79 505 79 239 q 163 901 79 770 q 418 1031 247 1031 q 673 901 589 1031 q 757 505 757 770 m 354 1109 l 211 1289 l 306 1289 l 418 1168 l 530 1289 l 625 1289 l 482 1109 l 354 1109 z "},"ǒ":{"ha":836,"x_min":93,"x_max":743,"o":"m 418 672 q 274 598 323 672 q 225 379 225 524 q 274 160 225 235 q 418 86 323 86 q 562 160 513 86 q 611 379 611 235 q 562 598 611 524 q 418 672 513 672 m 418 778 q 660 675 576 778 q 743 379 743 573 q 660 82 743 184 q 418 -20 576 -20 q 176 82 260 -20 q 93 379 93 184 q 176 675 93 573 q 418 778 260 778 m 368 856 l 201 1111 l 296 1111 l 418 945 l 541 1111 l 635 1111 l 468 856 l 368 856 z "},"Ǔ":{"ha":836,"x_min":100,"x_max":736,"o":"m 100 389 l 100 1013 l 237 1013 l 237 326 q 241 221 237 252 q 256 172 245 189 q 318 112 277 132 q 418 92 359 92 q 517 112 477 92 q 581 172 558 132 q 595 220 591 189 q 599 325 599 252 l 599 1013 l 736 1013 l 736 389 q 716 168 736 233 q 650 60 697 102 q 547 0 605 20 q 418 -20 490 -20 q 289 0 347 -20 q 186 60 231 20 q 119 169 139 102 q 100 389 100 235 m 354 1109 l 211 1289 l 306 1289 l 418 1168 l 530 1289 l 625 1289 l 481 1109 l 354 1109 z "},"ǔ":{"ha":836,"x_min":132,"x_max":713,"o":"m 132 288 l 132 758 l 257 758 l 257 288 q 293 137 257 185 q 406 89 330 89 q 541 151 494 89 q 587 329 587 213 l 587 758 l 713 758 l 713 0 l 587 0 l 587 114 q 497 14 554 48 q 363 -20 439 -20 q 189 57 246 -20 q 132 288 132 133 m 368 856 l 201 1111 l 296 1111 l 418 945 l 541 1111 l 635 1111 l 468 856 l 368 856 z "},"Ǖ":{"ha":836,"x_min":100,"x_max":736,"o":"m 216 1184 l 354 1184 l 354 1046 l 216 1046 l 216 1184 m 482 1184 l 619 1184 l 619 1046 l 482 1046 l 482 1184 m 100 389 l 100 1013 l 237 1013 l 237 326 q 241 221 237 252 q 256 172 245 189 q 318 112 277 132 q 418 92 359 92 q 517 112 477 92 q 581 172 558 132 q 595 220 591 189 q 599 325 599 252 l 599 1013 l 736 1013 l 736 389 q 716 168 736 233 q 650 60 697 102 q 547 0 605 20 q 418 -20 490 -20 q 289 0 347 -20 q 186 60 231 20 q 119 169 139 102 q 100 389 100 235 m 215 1324 l 621 1324 l 621 1223 l 215 1223 l 215 1324 z "},"ǖ":{"ha":836,"x_min":79,"x_max":756,"o":"m 216 1053 l 354 1053 l 354 916 l 216 916 l 216 1053 m 482 1053 l 619 1053 l 619 916 l 482 916 l 482 1053 m 132 288 l 132 758 l 257 758 l 257 288 q 293 137 257 185 q 406 89 330 89 q 541 151 494 89 q 587 329 587 213 l 587 758 l 713 758 l 713 0 l 587 0 l 587 114 q 497 14 554 48 q 363 -20 439 -20 q 189 57 246 -20 q 132 288 132 133 m 79 1249 l 756 1249 l 756 1149 l 79 1149 l 79 1249 z "},"Ǘ":{"ha":836,"x_min":100,"x_max":736,"o":"m 216 1184 l 354 1184 l 354 1046 l 216 1046 l 216 1184 m 482 1184 l 619 1184 l 619 1046 l 482 1046 l 482 1184 m 100 389 l 100 1013 l 237 1013 l 237 326 q 241 221 237 252 q 256 172 245 189 q 318 112 277 132 q 418 92 359 92 q 517 112 477 92 q 581 172 558 132 q 595 220 591 189 q 599 325 599 252 l 599 1013 l 736 1013 l 736 389 q 716 168 736 233 q 650 60 697 102 q 547 0 605 20 q 418 -20 490 -20 q 289 0 347 -20 q 186 60 231 20 q 119 169 139 102 q 100 389 100 235 m 456 1384 l 582 1384 l 427 1205 l 322 1205 l 456 1384 z "},"ǘ":{"ha":836,"x_min":132,"x_max":713,"o":"m 216 1053 l 354 1053 l 354 916 l 216 916 l 216 1053 m 482 1053 l 619 1053 l 619 916 l 482 916 l 482 1053 m 132 288 l 132 758 l 257 758 l 257 288 q 293 137 257 185 q 406 89 330 89 q 541 151 494 89 q 587 329 587 213 l 587 758 l 713 758 l 713 0 l 587 0 l 587 114 q 497 14 554 48 q 363 -20 439 -20 q 189 57 246 -20 q 132 288 132 133 m 513 1325 l 647 1325 l 427 1070 l 322 1070 l 513 1325 z "},"Ǚ":{"ha":836,"x_min":100,"x_max":736,"o":"m 216 1184 l 354 1184 l 354 1046 l 216 1046 l 216 1184 m 482 1184 l 619 1184 l 619 1046 l 482 1046 l 482 1184 m 100 389 l 100 1013 l 237 1013 l 237 326 q 241 221 237 252 q 256 172 245 189 q 318 112 277 132 q 418 92 359 92 q 517 112 477 92 q 581 172 558 132 q 595 220 591 189 q 599 325 599 252 l 599 1013 l 736 1013 l 736 389 q 716 168 736 233 q 650 60 697 102 q 547 0 605 20 q 418 -20 490 -20 q 289 0 347 -20 q 186 60 231 20 q 119 169 139 102 q 100 389 100 235 m 354 1205 l 211 1385 l 306 1385 l 418 1265 l 530 1385 l 625 1385 l 482 1205 l 354 1205 z "},"ǚ":{"ha":836,"x_min":132,"x_max":713,"o":"m 216 1053 l 354 1053 l 354 916 l 216 916 l 216 1053 m 482 1053 l 619 1053 l 619 916 l 482 916 l 482 1053 m 132 288 l 132 758 l 257 758 l 257 288 q 293 137 257 185 q 406 89 330 89 q 541 151 494 89 q 587 329 587 213 l 587 758 l 713 758 l 713 0 l 587 0 l 587 114 q 497 14 554 48 q 363 -20 439 -20 q 189 57 246 -20 q 132 288 132 133 m 368 1070 l 201 1325 l 296 1325 l 418 1159 l 541 1325 l 635 1325 l 468 1070 l 368 1070 z "},"Ǜ":{"ha":836,"x_min":100,"x_max":736,"o":"m 216 1184 l 354 1184 l 354 1046 l 216 1046 l 216 1184 m 482 1184 l 619 1184 l 619 1046 l 482 1046 l 482 1184 m 100 389 l 100 1013 l 237 1013 l 237 326 q 241 221 237 252 q 256 172 245 189 q 318 112 277 132 q 418 92 359 92 q 517 112 477 92 q 581 172 558 132 q 595 220 591 189 q 599 325 599 252 l 599 1013 l 736 1013 l 736 389 q 716 168 736 233 q 650 60 697 102 q 547 0 605 20 q 418 -20 490 -20 q 289 0 347 -20 q 186 60 231 20 q 119 169 139 102 q 100 389 100 235 m 380 1384 l 514 1205 l 410 1205 l 256 1384 l 380 1384 z "},"ǜ":{"ha":836,"x_min":132,"x_max":713,"o":"m 323 1325 l 514 1070 l 410 1070 l 189 1325 l 323 1325 m 132 288 l 132 758 l 257 758 l 257 288 q 293 137 257 185 q 406 89 330 89 q 541 151 494 89 q 587 329 587 213 l 587 758 l 713 758 l 713 0 l 587 0 l 587 114 q 497 14 554 48 q 363 -20 439 -20 q 189 57 246 -20 q 132 288 132 133 m 216 1053 l 354 1053 l 354 916 l 216 916 l 216 1053 m 482 1053 l 619 1053 l 619 916 l 482 916 l 482 1053 z "},"ǝ":{"ha":836,"x_min":83,"x_max":753,"o":"m 83 347 l 83 408 l 623 408 l 623 412 q 558 604 623 536 q 376 672 494 672 q 251 653 316 672 q 112 595 186 634 l 112 720 q 249 763 183 749 q 377 778 315 778 q 654 672 554 778 q 753 379 753 566 q 656 89 753 197 q 395 -20 558 -20 q 166 79 250 -20 q 83 347 83 177 m 208 311 q 258 144 208 201 q 401 86 309 86 q 549 146 491 86 q 618 311 608 205 l 208 311 z "},"Ǟ":{"ha":836,"x_min":25,"x_max":811,"o":"m 216 1184 l 354 1184 l 354 1046 l 216 1046 l 216 1184 m 482 1184 l 619 1184 l 619 1046 l 482 1046 l 482 1184 m 215 1324 l 621 1324 l 621 1223 l 215 1223 l 215 1324 m 418 892 l 273 374 l 562 374 l 418 892 m 335 1013 l 501 1013 l 811 0 l 669 0 l 595 264 l 240 264 l 167 0 l 25 0 l 335 1013 z "},"ǟ":{"ha":836,"x_min":79,"x_max":756,"o":"m 79 1249 l 756 1249 l 756 1149 l 79 1149 l 79 1249 m 476 382 l 435 382 q 270 343 326 382 q 215 229 215 305 q 256 123 215 161 q 371 85 298 85 q 533 156 474 85 q 593 354 592 228 l 593 382 l 476 382 m 718 433 l 718 0 l 593 0 l 593 113 q 492 13 553 45 q 345 -20 431 -20 q 159 46 229 -20 q 90 221 90 111 q 175 414 90 348 q 425 479 260 479 l 593 479 l 593 499 q 547 631 592 590 q 401 672 501 672 q 273 654 338 672 q 146 600 208 635 l 146 725 q 278 765 215 751 q 401 778 342 778 q 563 750 496 778 q 671 667 629 722 q 707 583 696 633 q 718 433 718 533 m 216 1053 l 354 1053 l 354 916 l 216 916 l 216 1053 m 482 1053 l 619 1053 l 619 916 l 482 916 l 482 1053 z "},"Ǡ":{"ha":836,"x_min":25,"x_max":811,"o":"m 215 1324 l 621 1324 l 621 1223 l 215 1223 l 215 1324 m 348 1186 l 487 1186 l 487 1047 l 348 1047 l 348 1186 m 418 892 l 273 374 l 562 374 l 418 892 m 335 1013 l 501 1013 l 811 0 l 669 0 l 595 264 l 240 264 l 167 0 l 25 0 l 335 1013 z "},"ǡ":{"ha":836,"x_min":79,"x_max":756,"o":"m 79 1249 l 756 1249 l 756 1149 l 79 1149 l 79 1249 m 348 1053 l 487 1053 l 487 914 l 348 914 l 348 1053 m 476 382 l 435 382 q 270 343 326 382 q 215 229 215 305 q 256 123 215 161 q 371 85 298 85 q 533 156 474 85 q 593 354 592 228 l 593 382 l 476 382 m 718 433 l 718 0 l 593 0 l 593 113 q 492 13 553 45 q 345 -20 431 -20 q 159 46 229 -20 q 90 221 90 111 q 175 414 90 348 q 425 479 260 479 l 593 479 l 593 499 q 547 631 592 590 q 401 672 501 672 q 273 654 338 672 q 146 600 208 635 l 146 725 q 278 765 215 751 q 401 778 342 778 q 563 750 496 778 q 671 667 629 722 q 707 583 696 633 q 718 433 718 533 z "},"Ǣ":{"ha":836,"x_min":0,"x_max":800,"o":"m 330 1248 l 736 1248 l 736 1147 l 330 1147 l 330 1248 m 787 1013 l 787 897 l 558 897 l 558 597 l 766 597 l 766 482 l 558 482 l 558 115 l 800 115 l 800 0 l 432 0 l 432 260 l 193 260 l 125 0 l 0 0 l 278 1013 l 787 1013 m 359 897 l 222 374 l 432 374 l 432 897 l 359 897 z "},"ǣ":{"ha":836,"x_min":28,"x_max":814,"o":"m 215 1035 l 621 1035 l 621 935 l 215 935 l 215 1035 m 368 300 l 368 349 l 335 349 q 180 318 220 349 q 139 211 139 288 q 169 118 139 151 q 256 85 199 85 q 343 130 318 85 q 368 300 368 175 m 703 446 l 703 481 q 676 628 703 583 q 591 673 650 673 q 507 627 532 673 q 481 475 481 581 l 481 446 l 703 446 m 814 349 l 481 349 q 480 327 480 338 q 479 292 479 315 q 514 134 479 182 q 624 85 548 85 q 721 102 677 85 q 799 154 765 119 l 799 37 q 717 -5 762 9 q 624 -20 672 -20 q 499 8 549 -20 q 427 89 448 36 q 355 7 400 35 q 244 -20 310 -20 q 83 39 138 -20 q 28 208 28 97 q 96 385 28 324 q 293 446 163 446 l 372 446 l 372 505 q 339 630 372 587 q 241 673 305 673 q 159 659 203 673 q 72 618 114 644 l 72 732 q 169 767 124 755 q 254 778 214 778 q 358 756 316 778 q 425 692 400 735 q 492 755 448 733 q 597 778 537 778 q 765 697 715 778 q 814 410 814 617 l 814 349 z "},"Ǧ":{"ha":836,"x_min":69,"x_max":749,"o":"m 354 1109 l 211 1289 l 306 1289 l 418 1168 l 530 1289 l 625 1289 l 482 1109 l 354 1109 m 749 83 q 625 6 694 33 q 476 -20 556 -20 q 176 118 283 -20 q 69 505 69 256 q 178 892 69 753 q 479 1031 286 1031 q 602 1013 543 1031 q 714 958 660 995 l 714 818 q 602 895 659 870 q 479 920 544 920 q 279 816 346 920 q 212 505 212 713 q 277 193 212 294 q 476 92 342 92 q 556 102 522 92 q 618 135 590 113 l 618 407 l 471 407 l 471 519 l 749 519 l 749 83 z "},"ǧ":{"ha":836,"x_min":83,"x_max":707,"o":"m 368 856 l 201 1111 l 296 1111 l 418 945 l 541 1111 l 635 1111 l 468 856 l 368 856 m 582 386 q 536 599 582 526 q 403 672 490 672 q 263 599 311 672 q 215 386 215 526 q 263 172 215 245 q 404 98 312 98 q 536 172 490 98 q 582 386 582 246 m 707 49 q 626 -210 707 -122 q 389 -298 545 -298 q 281 -289 337 -298 q 168 -261 224 -279 l 168 -138 q 289 -184 235 -169 q 389 -199 343 -199 q 536 -144 490 -199 q 582 31 582 -89 l 582 36 l 582 121 q 500 26 552 57 q 375 -5 449 -5 q 163 101 242 -5 q 83 386 83 208 q 163 671 83 565 q 375 778 242 778 q 499 749 448 778 q 582 659 550 720 l 582 757 l 707 757 l 707 49 z "},"Ǩ":{"ha":836,"x_min":93,"x_max":831,"o":"m 354 1109 l 211 1289 l 306 1289 l 418 1168 l 530 1289 l 625 1289 l 482 1109 l 354 1109 m 93 1013 l 231 1013 l 231 562 l 659 1013 l 819 1013 l 425 599 l 831 0 l 665 0 l 335 507 l 231 396 l 231 0 l 93 0 l 93 1013 z "},"ǩ":{"ha":836,"x_min":160,"x_max":815,"o":"m 354 1109 l 211 1289 l 306 1289 l 418 1168 l 530 1289 l 625 1289 l 482 1109 l 354 1109 m 160 1055 l 289 1055 l 289 444 l 616 760 l 768 760 l 469 473 l 815 0 l 663 0 l 382 392 l 289 304 l 289 0 l 160 0 l 160 1055 z "},"Ǫ":{"ha":836,"x_min":79,"x_max":757,"o":"m 377 -10 l 458 -10 q 413 -81 427 -52 q 398 -132 398 -111 q 417 -179 398 -163 q 472 -195 435 -195 q 515 -190 494 -195 q 557 -174 536 -184 l 557 -264 q 508 -275 531 -271 q 465 -278 485 -278 q 343 -249 382 -278 q 304 -156 304 -219 q 322 -88 304 -123 q 377 -10 340 -52 m 614 505 q 568 824 614 728 q 418 920 522 920 q 268 824 314 920 q 222 505 222 728 q 268 187 222 283 q 418 92 314 92 q 568 187 522 92 q 614 505 614 282 m 757 505 q 673 111 757 241 q 418 -20 589 -20 q 163 110 246 -20 q 79 505 79 239 q 163 901 79 770 q 418 1031 247 1031 q 673 901 589 1031 q 757 505 757 770 z "},"ǫ":{"ha":836,"x_min":93,"x_max":743,"o":"m 377 -10 l 458 -10 q 413 -81 427 -52 q 398 -132 398 -111 q 417 -179 398 -163 q 472 -195 435 -195 q 515 -190 494 -195 q 557 -174 536 -184 l 557 -264 q 508 -275 531 -271 q 465 -278 485 -278 q 343 -249 382 -278 q 304 -156 304 -219 q 322 -88 304 -123 q 377 -10 340 -52 m 418 672 q 274 598 323 672 q 225 379 225 524 q 274 160 225 235 q 418 86 323 86 q 562 160 513 86 q 611 379 611 235 q 562 598 611 524 q 418 672 513 672 m 418 778 q 660 675 576 778 q 743 379 743 573 q 660 82 743 184 q 418 -20 576 -20 q 176 82 260 -20 q 93 379 93 184 q 176 675 93 573 q 418 778 260 778 z "},"Ǭ":{"ha":836,"x_min":79,"x_max":757,"o":"m 215 1248 l 621 1248 l 621 1147 l 215 1147 l 215 1248 m 377 -10 l 458 -10 q 413 -81 427 -52 q 398 -132 398 -111 q 417 -179 398 -163 q 472 -195 435 -195 q 515 -190 494 -195 q 557 -174 536 -184 l 557 -264 q 508 -275 531 -271 q 465 -278 485 -278 q 343 -249 382 -278 q 304 -156 304 -219 q 322 -88 304 -123 q 377 -10 340 -52 m 614 505 q 568 824 614 728 q 418 920 522 920 q 268 824 314 920 q 222 505 222 728 q 268 187 222 283 q 418 92 314 92 q 568 187 522 92 q 614 505 614 282 m 757 505 q 673 111 757 241 q 418 -20 589 -20 q 163 110 246 -20 q 79 505 79 239 q 163 901 79 770 q 418 1031 247 1031 q 673 901 589 1031 q 757 505 757 770 z "},"ǭ":{"ha":836,"x_min":93,"x_max":743,"o":"m 215 1035 l 621 1035 l 621 935 l 215 935 l 215 1035 m 377 -10 l 458 -10 q 413 -81 427 -52 q 398 -132 398 -111 q 417 -179 398 -163 q 472 -195 435 -195 q 515 -190 494 -195 q 557 -174 536 -184 l 557 -264 q 508 -275 531 -271 q 465 -278 485 -278 q 343 -249 382 -278 q 304 -156 304 -219 q 322 -88 304 -123 q 377 -10 340 -52 m 418 672 q 274 598 323 672 q 225 379 225 524 q 274 160 225 235 q 418 86 323 86 q 562 160 513 86 q 611 379 611 235 q 562 598 611 524 q 418 672 513 672 m 418 778 q 660 675 576 778 q 743 379 743 573 q 660 82 743 184 q 418 -20 576 -20 q 176 82 260 -20 q 93 379 93 184 q 176 675 93 573 q 418 778 260 778 z "},"Ǯ":{"ha":836,"x_min":18,"x_max":818,"o":"m 354 1109 l 211 1289 l 306 1289 l 418 1168 l 530 1289 l 625 1289 l 482 1109 l 354 1109 m 155 295 q 222 147 155 198 q 418 96 290 96 q 614 147 547 96 q 682 295 682 198 q 620 435 682 386 q 445 486 556 486 l 327 486 l 327 598 l 578 897 l 77 897 l 77 1013 l 735 1013 l 735 899 l 480 600 q 639 562 551 600 q 764 459 705 532 q 818 295 818 389 q 715 63 818 145 q 422 -19 612 -19 q 121 63 224 -19 q 18 295 18 145 l 155 295 z "},"ǯ":{"ha":836,"x_min":85,"x_max":751,"o":"m 368 856 l 201 1111 l 296 1111 l 418 945 l 541 1111 l 635 1111 l 468 856 l 368 856 m 413 323 q 572 285 485 323 q 696 182 638 256 q 751 18 751 112 q 648 -214 751 -132 q 355 -296 545 -296 q 224 -283 292 -296 q 85 -245 157 -271 l 85 -113 q 210 -163 142 -146 q 351 -180 277 -180 q 547 -130 480 -180 q 615 18 615 -79 q 553 159 615 108 q 378 209 490 209 l 260 209 l 260 321 l 551 660 l 99 660 l 99 760 l 692 760 l 692 646 l 413 323 z "},"ǰ":{"ha":836,"x_min":126,"x_max":659,"o":"m 392 853 l 225 1108 l 319 1108 l 441 942 l 564 1108 l 659 1108 l 492 853 l 392 853 m 407 -14 l 407 663 l 192 663 l 192 760 l 532 760 l 532 -14 q 471 -217 532 -146 q 298 -289 410 -289 l 126 -289 l 126 -183 l 285 -183 q 376 -141 346 -183 q 407 -14 407 -98 z "},"Ǵ":{"ha":836,"x_min":69,"x_max":749,"o":"m 517 1288 l 643 1288 l 488 1109 l 383 1109 l 517 1288 m 749 83 q 625 6 694 33 q 476 -20 556 -20 q 176 118 283 -20 q 69 505 69 256 q 178 892 69 753 q 479 1031 286 1031 q 602 1013 543 1031 q 714 958 660 995 l 714 818 q 602 895 659 870 q 479 920 544 920 q 279 816 346 920 q 212 505 212 713 q 277 193 212 294 q 476 92 342 92 q 556 102 522 92 q 618 135 590 113 l 618 407 l 471 407 l 471 519 l 749 519 l 749 83 z "},"ǵ":{"ha":836,"x_min":83,"x_max":707,"o":"m 513 1111 l 647 1111 l 427 856 l 322 856 l 513 1111 m 582 386 q 536 599 582 526 q 403 672 490 672 q 263 599 311 672 q 215 386 215 526 q 263 172 215 245 q 404 98 312 98 q 536 172 490 98 q 582 386 582 246 m 707 49 q 626 -210 707 -122 q 389 -298 545 -298 q 281 -289 337 -298 q 168 -261 224 -279 l 168 -138 q 289 -184 235 -169 q 389 -199 343 -199 q 536 -144 490 -199 q 582 31 582 -89 l 582 36 l 582 121 q 500 26 552 57 q 375 -5 449 -5 q 163 101 242 -5 q 83 386 83 208 q 163 671 83 565 q 375 778 242 778 q 499 749 448 778 q 582 659 550 720 l 582 757 l 707 757 l 707 49 z "},"Ƕ":{"ha":836,"x_min":42,"x_max":794,"o":"m 595 92 q 648 145 631 92 q 671 397 671 214 l 671 597 l 794 597 l 794 380 q 724 33 794 127 q 595 -20 685 -20 q 459 37 508 -20 q 368 380 368 140 l 368 482 l 165 482 l 165 0 l 42 0 l 42 1013 l 165 1013 l 165 597 l 368 597 l 368 1013 l 492 1013 l 492 397 q 548 118 492 212 q 595 92 564 92 z "},"Ǹ":{"ha":836,"x_min":13,"x_max":742,"o":"m 380 1288 l 514 1109 l 410 1109 l 256 1288 l 380 1288 m 13 1009 l 200 1009 l 596 178 l 596 1009 l 742 1009 l 742 0 l 555 0 l 159 831 l 159 0 l 13 0 l 13 1009 z "},"ǹ":{"ha":836,"x_min":132,"x_max":713,"o":"m 323 1111 l 514 856 l 410 856 l 189 1111 l 323 1111 m 713 471 l 713 0 l 587 0 l 587 471 q 551 621 587 573 q 439 669 515 669 q 304 607 351 669 q 257 429 257 545 l 257 0 l 132 0 l 132 760 l 257 760 l 257 646 q 347 744 290 711 q 482 778 404 778 q 655 702 598 778 q 713 471 713 625 z "},"Ǽ":{"ha":836,"x_min":0,"x_max":800,"o":"m 618 1288 l 745 1288 l 589 1109 l 485 1109 l 618 1288 m 787 1013 l 787 897 l 558 897 l 558 597 l 766 597 l 766 482 l 558 482 l 558 115 l 800 115 l 800 0 l 432 0 l 432 260 l 193 260 l 125 0 l 0 0 l 278 1013 l 787 1013 m 359 897 l 222 374 l 432 374 l 432 897 l 359 897 z "},"ǽ":{"ha":836,"x_min":28,"x_max":814,"o":"m 513 1111 l 647 1111 l 427 856 l 322 856 l 513 1111 m 368 300 l 368 349 l 335 349 q 180 318 220 349 q 139 211 139 288 q 169 118 139 151 q 256 85 199 85 q 343 130 318 85 q 368 300 368 175 m 703 446 l 703 481 q 676 628 703 583 q 591 673 650 673 q 507 627 532 673 q 481 475 481 581 l 481 446 l 703 446 m 814 349 l 481 349 q 480 327 480 338 q 479 292 479 315 q 514 134 479 182 q 624 85 548 85 q 721 102 677 85 q 799 154 765 119 l 799 37 q 717 -5 762 9 q 624 -20 672 -20 q 499 8 549 -20 q 427 89 448 36 q 355 7 400 35 q 244 -20 310 -20 q 83 39 138 -20 q 28 208 28 97 q 96 385 28 324 q 293 446 163 446 l 372 446 l 372 505 q 339 630 372 587 q 241 673 305 673 q 159 659 203 673 q 72 618 114 644 l 72 732 q 169 767 124 755 q 254 778 214 778 q 358 756 316 778 q 425 692 400 735 q 492 755 448 733 q 597 778 537 778 q 765 697 715 778 q 814 410 814 617 l 814 349 z "},"Ǿ":{"ha":836,"x_min":5,"x_max":814,"o":"m 456 1288 l 582 1288 l 427 1109 l 322 1109 l 456 1288 m 252 205 q 316 122 272 153 q 418 92 361 92 q 568 187 522 92 q 614 505 614 282 q 610 626 614 580 q 600 703 607 672 l 252 205 m 229 319 l 571 807 q 515 891 554 862 q 418 920 476 920 q 267 821 311 920 q 222 465 222 722 q 224 377 222 411 q 229 319 226 342 m 700 846 q 742 703 728 791 q 757 505 757 616 q 673 111 757 241 q 418 -20 589 -20 q 275 8 336 -20 q 172 90 214 35 l 75 -47 l 5 0 l 126 171 q 92 309 104 220 q 79 505 79 398 q 163 901 79 770 q 418 1031 247 1031 q 554 1003 496 1031 q 652 921 613 975 l 746 1057 l 814 1007 l 700 846 z "},"ǿ":{"ha":836,"x_min":32,"x_max":796,"o":"m 513 1111 l 647 1111 l 427 856 l 322 856 l 513 1111 m 595 529 l 281 150 q 339 102 305 118 q 418 86 374 86 q 562 160 513 86 q 611 379 611 235 q 607 452 611 414 q 595 529 603 490 m 554 608 q 497 656 530 641 q 418 672 463 672 q 273 600 323 672 q 222 390 222 527 q 227 318 222 357 q 241 231 232 279 l 554 608 m 147 122 q 107 236 121 170 q 93 379 93 302 q 176 675 93 573 q 418 778 260 778 q 539 759 486 778 q 633 703 593 741 l 733 822 l 796 770 l 685 637 q 728 527 713 593 q 743 379 743 462 q 660 82 743 184 q 418 -20 576 -20 q 295 0 348 -20 q 203 61 241 20 l 94 -65 l 32 -14 l 147 122 z "},"Ȁ":{"ha":836,"x_min":25,"x_max":811,"o":"m 253 1288 l 387 1109 l 282 1109 l 127 1288 l 253 1288 m 469 1288 l 603 1109 l 498 1109 l 343 1288 l 469 1288 m 418 892 l 273 374 l 562 374 l 418 892 m 335 1013 l 501 1013 l 811 0 l 669 0 l 595 264 l 240 264 l 167 0 l 25 0 l 335 1013 z "},"ȁ":{"ha":836,"x_min":90,"x_max":718,"o":"m 263 1111 l 402 856 l 311 856 l 142 1111 l 263 1111 m 490 1111 l 618 856 l 526 856 l 374 1111 l 490 1111 m 476 382 l 435 382 q 270 343 326 382 q 215 229 215 305 q 256 123 215 161 q 371 85 298 85 q 533 156 474 85 q 593 354 592 228 l 593 382 l 476 382 m 718 433 l 718 0 l 593 0 l 593 113 q 492 13 553 45 q 345 -20 431 -20 q 159 46 229 -20 q 90 221 90 111 q 175 414 90 348 q 425 479 260 479 l 593 479 l 593 499 q 547 631 592 590 q 401 672 501 672 q 273 654 338 672 q 146 600 208 635 l 146 725 q 278 765 215 751 q 401 778 342 778 q 563 750 496 778 q 671 667 629 722 q 707 583 696 633 q 718 433 718 533 z "},"Ȃ":{"ha":836,"x_min":25,"x_max":811,"o":"m 205 1125 q 267 1248 213 1206 q 418 1289 320 1289 q 569 1247 515 1289 q 631 1125 623 1206 l 550 1125 q 507 1182 540 1163 q 418 1200 474 1200 q 328 1181 362 1200 q 286 1125 294 1162 l 205 1125 m 418 892 l 273 374 l 562 374 l 418 892 m 335 1013 l 501 1013 l 811 0 l 669 0 l 595 264 l 240 264 l 167 0 l 25 0 l 335 1013 z "},"ȃ":{"ha":836,"x_min":90,"x_max":718,"o":"m 205 896 q 267 1042 213 993 q 418 1090 320 1090 q 570 1042 516 1090 q 631 896 623 993 l 550 896 q 508 972 541 947 q 418 998 475 998 q 326 972 359 998 q 286 896 294 947 l 205 896 m 476 382 l 435 382 q 270 343 326 382 q 215 229 215 305 q 256 123 215 161 q 371 85 298 85 q 533 156 474 85 q 593 354 592 228 l 593 382 l 476 382 m 718 433 l 718 0 l 593 0 l 593 113 q 492 13 553 45 q 345 -20 431 -20 q 159 46 229 -20 q 90 221 90 111 q 175 414 90 348 q 425 479 260 479 l 593 479 l 593 499 q 547 631 592 590 q 401 672 501 672 q 273 654 338 672 q 146 600 208 635 l 146 725 q 278 765 215 751 q 401 778 342 778 q 563 750 496 778 q 671 667 629 722 q 707 583 696 633 q 718 433 718 533 z "},"Ȅ":{"ha":836,"x_min":127,"x_max":747,"o":"m 253 1288 l 387 1109 l 282 1109 l 127 1288 l 253 1288 m 469 1288 l 603 1109 l 498 1109 l 343 1288 l 469 1288 m 134 1013 l 734 1013 l 734 897 l 271 897 l 271 625 l 714 625 l 714 509 l 271 509 l 271 115 l 747 115 l 747 0 l 134 0 l 134 1013 z "},"ȅ":{"ha":836,"x_min":83,"x_max":760,"o":"m 273 1111 l 412 856 l 320 856 l 152 1111 l 273 1111 m 499 1111 l 628 856 l 535 856 l 384 1111 l 499 1111 m 760 442 l 760 381 l 219 381 l 219 377 q 278 154 214 222 q 461 86 343 86 q 586 105 521 86 q 725 163 651 124 l 725 39 q 588 -5 654 9 q 460 -20 522 -20 q 183 86 283 -20 q 83 379 83 193 q 181 669 83 561 q 441 778 279 778 q 670 680 587 778 q 760 442 754 581 m 635 479 q 577 615 627 557 q 436 672 528 672 q 288 612 346 672 q 224 478 229 553 l 635 479 z "},"Ȇ":{"ha":836,"x_min":134,"x_max":747,"o":"m 205 1125 q 267 1248 213 1206 q 418 1289 320 1289 q 569 1247 515 1289 q 631 1125 623 1206 l 550 1125 q 507 1182 540 1163 q 418 1200 474 1200 q 328 1181 362 1200 q 286 1125 294 1162 l 205 1125 m 134 1013 l 734 1013 l 734 897 l 271 897 l 271 625 l 714 625 l 714 509 l 271 509 l 271 115 l 747 115 l 747 0 l 134 0 l 134 1013 z "},"ȇ":{"ha":836,"x_min":83,"x_max":760,"o":"m 215 896 q 276 1042 222 993 q 427 1090 330 1090 q 579 1042 526 1090 q 640 896 633 993 l 559 896 q 517 972 550 947 q 427 998 485 998 q 336 972 368 998 q 296 896 303 947 l 215 896 m 760 442 l 760 381 l 219 381 l 219 377 q 278 154 214 222 q 461 86 343 86 q 586 105 521 86 q 725 163 651 124 l 725 39 q 588 -5 654 9 q 460 -20 522 -20 q 183 86 283 -20 q 83 379 83 193 q 181 669 83 561 q 441 778 279 778 q 670 680 587 778 q 760 442 754 581 m 635 479 q 577 615 627 557 q 436 672 528 672 q 288 612 346 672 q 224 478 229 553 l 635 479 z "},"Ȉ":{"ha":836,"x_min":127,"x_max":699,"o":"m 253 1288 l 387 1109 l 282 1109 l 127 1288 l 253 1288 m 469 1288 l 603 1109 l 498 1109 l 343 1288 l 469 1288 m 136 1013 l 699 1013 l 699 897 l 486 897 l 486 115 l 699 115 l 699 0 l 136 0 l 136 115 l 349 115 l 349 897 l 136 897 l 136 1013 z "},"ȉ":{"ha":836,"x_min":121,"x_max":741,"o":"m 263 1111 l 402 856 l 311 856 l 142 1111 l 263 1111 m 490 1111 l 618 856 l 526 856 l 374 1111 l 490 1111 m 174 760 l 493 760 l 493 97 l 741 97 l 741 0 l 121 0 l 121 97 l 368 97 l 368 663 l 174 663 l 174 760 z "},"Ȋ":{"ha":836,"x_min":136,"x_max":699,"o":"m 205 1125 q 267 1248 213 1206 q 418 1289 320 1289 q 569 1247 515 1289 q 631 1125 623 1206 l 550 1125 q 507 1182 540 1163 q 418 1200 474 1200 q 328 1181 362 1200 q 286 1125 294 1162 l 205 1125 m 136 1013 l 699 1013 l 699 897 l 486 897 l 486 115 l 699 115 l 699 0 l 136 0 l 136 115 l 349 115 l 349 897 l 136 897 l 136 1013 z "},"ȋ":{"ha":836,"x_min":121,"x_max":741,"o":"m 205 896 q 267 1042 213 993 q 418 1090 320 1090 q 570 1042 516 1090 q 631 896 623 993 l 550 896 q 508 972 541 947 q 418 998 475 998 q 326 972 359 998 q 286 896 294 947 l 205 896 m 174 760 l 493 760 l 493 97 l 741 97 l 741 0 l 121 0 l 121 97 l 368 97 l 368 663 l 174 663 l 174 760 z "},"Ȍ":{"ha":836,"x_min":79,"x_max":757,"o":"m 253 1288 l 387 1109 l 282 1109 l 127 1288 l 253 1288 m 469 1288 l 603 1109 l 498 1109 l 343 1288 l 469 1288 m 614 505 q 568 824 614 728 q 418 920 522 920 q 268 824 314 920 q 222 505 222 728 q 268 187 222 283 q 418 92 314 92 q 568 187 522 92 q 614 505 614 282 m 757 505 q 673 111 757 241 q 418 -20 589 -20 q 163 110 246 -20 q 79 505 79 239 q 163 901 79 770 q 418 1031 247 1031 q 673 901 589 1031 q 757 505 757 770 z "},"ȍ":{"ha":836,"x_min":93,"x_max":743,"o":"m 263 1111 l 402 856 l 311 856 l 142 1111 l 263 1111 m 490 1111 l 618 856 l 526 856 l 374 1111 l 490 1111 m 418 672 q 274 598 323 672 q 225 379 225 524 q 274 160 225 235 q 418 86 323 86 q 562 160 513 86 q 611 379 611 235 q 562 598 611 524 q 418 672 513 672 m 418 778 q 660 675 576 778 q 743 379 743 573 q 660 82 743 184 q 418 -20 576 -20 q 176 82 260 -20 q 93 379 93 184 q 176 675 93 573 q 418 778 260 778 z "},"Ȏ":{"ha":836,"x_min":79,"x_max":757,"o":"m 205 1125 q 267 1248 213 1206 q 418 1289 320 1289 q 569 1247 515 1289 q 631 1125 623 1206 l 550 1125 q 507 1182 540 1163 q 418 1200 474 1200 q 328 1181 362 1200 q 286 1125 294 1162 l 205 1125 m 614 505 q 568 824 614 728 q 418 920 522 920 q 268 824 314 920 q 222 505 222 728 q 268 187 222 283 q 418 92 314 92 q 568 187 522 92 q 614 505 614 282 m 757 505 q 673 111 757 241 q 418 -20 589 -20 q 163 110 246 -20 q 79 505 79 239 q 163 901 79 770 q 418 1031 247 1031 q 673 901 589 1031 q 757 505 757 770 z "},"ȏ":{"ha":836,"x_min":93,"x_max":743,"o":"m 205 896 q 267 1042 213 993 q 418 1090 320 1090 q 570 1042 516 1090 q 631 896 623 993 l 550 896 q 508 972 541 947 q 418 998 475 998 q 326 972 359 998 q 286 896 294 947 l 205 896 m 418 672 q 274 598 323 672 q 225 379 225 524 q 274 160 225 235 q 418 86 323 86 q 562 160 513 86 q 611 379 611 235 q 562 598 611 524 q 418 672 513 672 m 418 778 q 660 675 576 778 q 743 379 743 573 q 660 82 743 184 q 418 -20 576 -20 q 176 82 260 -20 q 93 379 93 184 q 176 675 93 573 q 418 778 260 778 z "},"Ȑ":{"ha":836,"x_min":94,"x_max":836,"o":"m 220 1288 l 353 1109 l 249 1109 l 94 1288 l 220 1288 m 436 1288 l 570 1109 l 465 1109 l 310 1288 l 436 1288 m 515 478 q 606 427 568 465 q 699 277 643 389 l 836 0 l 689 0 l 568 256 q 474 396 516 365 q 366 428 433 428 l 235 428 l 235 0 l 97 0 l 97 1013 l 379 1013 q 635 937 546 1013 q 724 720 724 862 q 669 556 724 619 q 515 478 614 492 m 235 900 l 235 541 l 385 541 q 531 585 483 541 q 579 720 579 629 q 528 853 579 807 q 379 900 477 900 l 235 900 z "},"ȑ":{"ha":836,"x_min":244,"x_max":783,"o":"m 365 1111 l 504 856 l 412 856 l 244 1111 l 365 1111 m 591 1111 l 720 856 l 627 856 l 476 1111 l 591 1111 m 783 603 q 702 648 743 634 q 611 663 661 663 q 433 589 494 663 q 371 378 371 516 l 371 0 l 245 0 l 245 760 l 371 760 l 371 611 q 467 735 402 692 q 621 778 532 778 q 707 766 667 778 q 783 730 747 755 l 783 603 z "},"Ȓ":{"ha":836,"x_min":97,"x_max":836,"o":"m 172 1125 q 233 1248 180 1206 q 385 1289 287 1289 q 536 1247 482 1289 q 597 1125 590 1206 l 517 1125 q 474 1182 507 1163 q 385 1200 441 1200 q 295 1181 329 1200 q 253 1125 261 1162 l 172 1125 m 515 478 q 606 427 568 465 q 699 277 643 389 l 836 0 l 689 0 l 568 256 q 474 396 516 365 q 366 428 433 428 l 235 428 l 235 0 l 97 0 l 97 1013 l 379 1013 q 635 937 546 1013 q 724 720 724 862 q 669 556 724 619 q 515 478 614 492 m 235 900 l 235 541 l 385 541 q 531 585 483 541 q 579 720 579 629 q 528 853 579 807 q 379 900 477 900 l 235 900 z "},"ȓ":{"ha":836,"x_min":245,"x_max":783,"o":"m 307 896 q 368 1042 315 993 q 519 1090 422 1090 q 671 1042 618 1090 q 732 896 725 993 l 652 896 q 610 972 642 947 q 519 998 577 998 q 428 972 460 998 q 388 896 395 947 l 307 896 m 783 603 q 702 648 743 634 q 611 663 661 663 q 433 589 494 663 q 371 378 371 516 l 371 0 l 245 0 l 245 760 l 371 760 l 371 611 q 467 735 402 692 q 621 778 532 778 q 707 766 667 778 q 783 730 747 755 l 783 603 z "},"Ȕ":{"ha":836,"x_min":100,"x_max":736,"o":"m 253 1288 l 387 1109 l 282 1109 l 127 1288 l 253 1288 m 469 1288 l 603 1109 l 498 1109 l 343 1288 l 469 1288 m 100 389 l 100 1013 l 237 1013 l 237 326 q 241 221 237 252 q 256 172 245 189 q 318 112 277 132 q 418 92 359 92 q 517 112 477 92 q 581 172 558 132 q 595 220 591 189 q 599 325 599 252 l 599 1013 l 736 1013 l 736 389 q 716 168 736 233 q 650 60 697 102 q 547 0 605 20 q 418 -20 490 -20 q 289 0 347 -20 q 186 60 231 20 q 119 169 139 102 q 100 389 100 235 z "},"ȕ":{"ha":836,"x_min":132,"x_max":713,"o":"m 263 1111 l 402 856 l 311 856 l 142 1111 l 263 1111 m 490 1111 l 618 856 l 526 856 l 374 1111 l 490 1111 m 132 288 l 132 758 l 257 758 l 257 288 q 293 137 257 185 q 406 89 330 89 q 541 151 494 89 q 587 329 587 213 l 587 758 l 713 758 l 713 0 l 587 0 l 587 114 q 497 14 554 48 q 363 -20 439 -20 q 189 57 246 -20 q 132 288 132 133 z "},"Ȗ":{"ha":836,"x_min":100,"x_max":736,"o":"m 205 1125 q 267 1248 213 1206 q 418 1289 320 1289 q 569 1247 515 1289 q 631 1125 623 1206 l 550 1125 q 507 1182 540 1163 q 418 1200 474 1200 q 328 1181 362 1200 q 286 1125 294 1162 l 205 1125 m 100 389 l 100 1013 l 237 1013 l 237 326 q 241 221 237 252 q 256 172 245 189 q 318 112 277 132 q 418 92 359 92 q 517 112 477 92 q 581 172 558 132 q 595 220 591 189 q 599 325 599 252 l 599 1013 l 736 1013 l 736 389 q 716 168 736 233 q 650 60 697 102 q 547 0 605 20 q 418 -20 490 -20 q 289 0 347 -20 q 186 60 231 20 q 119 169 139 102 q 100 389 100 235 z "},"ȗ":{"ha":836,"x_min":132,"x_max":713,"o":"m 205 896 q 267 1042 213 993 q 418 1090 320 1090 q 570 1042 516 1090 q 631 896 623 993 l 550 896 q 508 972 541 947 q 418 998 475 998 q 326 972 359 998 q 286 896 294 947 l 205 896 m 132 288 l 132 758 l 257 758 l 257 288 q 293 137 257 185 q 406 89 330 89 q 541 151 494 89 q 587 329 587 213 l 587 758 l 713 758 l 713 0 l 587 0 l 587 114 q 497 14 554 48 q 363 -20 439 -20 q 189 57 246 -20 q 132 288 132 133 z "},"Ș":{"ha":836,"x_min":94,"x_max":745,"o":"m 340 -134 l 503 -134 l 376 -368 l 277 -368 l 340 -134 m 686 978 l 686 839 q 561 899 624 879 q 435 920 498 920 q 281 874 338 920 q 225 753 225 829 q 262 650 225 686 q 400 591 299 615 l 472 575 q 680 471 614 542 q 745 277 745 399 q 655 56 745 132 q 395 -20 566 -20 q 252 -4 323 -20 q 107 41 180 11 l 107 187 q 255 115 185 138 q 395 92 324 92 q 556 138 498 92 q 614 268 614 184 q 574 384 614 344 q 436 446 534 424 l 363 463 q 158 559 222 494 q 94 732 94 623 q 185 949 94 867 q 428 1031 277 1031 q 551 1018 486 1031 q 686 978 615 1004 z "},"ș":{"ha":836,"x_min":144,"x_max":699,"o":"m 340 -134 l 503 -134 l 376 -368 l 277 -368 l 340 -134 m 660 733 l 660 611 q 552 658 606 642 q 441 673 498 673 q 315 646 357 673 q 273 562 273 618 q 304 486 273 511 q 460 437 336 461 l 510 428 q 651 357 603 410 q 699 220 699 304 q 618 44 699 107 q 396 -20 538 -20 q 278 -8 340 -20 q 144 28 216 4 l 144 157 q 278 103 214 121 q 399 85 342 85 q 527 118 481 85 q 572 212 572 152 q 406 332 572 299 l 401 334 l 354 343 q 197 414 246 364 q 147 550 147 464 q 221 719 147 659 q 432 778 295 778 q 549 767 493 778 q 660 733 606 755 z "},"Ț":{"ha":836,"x_min":32,"x_max":804,"o":"m 340 -134 l 503 -134 l 376 -368 l 277 -368 l 340 -134 m 32 1013 l 804 1013 l 804 897 l 488 897 l 488 0 l 350 0 l 350 897 l 32 897 l 32 1013 z "},"ț":{"ha":836,"x_min":89,"x_max":700,"o":"m 401 -134 l 563 -134 l 436 -368 l 337 -368 l 401 -134 m 416 975 l 416 760 l 700 760 l 700 663 l 416 663 l 416 250 q 448 133 416 166 q 559 100 480 100 l 700 100 l 700 0 l 547 0 q 349 56 407 0 q 292 250 292 113 l 292 663 l 89 663 l 89 760 l 292 760 l 292 975 l 416 975 z "},"Ȝ":{"ha":836,"x_min":85,"x_max":751,"o":"m 543 457 q 751 213 751 412 q 714 67 751 137 q 613 -57 676 -3 q 464 -157 551 -111 q 283 -236 377 -203 q 85 -292 189 -269 l 85 -183 q 324 -98 220 -146 q 490 1 427 -51 q 584 106 553 53 q 615 213 615 159 q 573 326 615 281 q 454 371 530 371 q 312 336 390 371 l 201 288 l 201 404 l 370 475 q 445 515 410 493 q 515 571 479 537 q 571 651 550 604 q 591 754 591 699 q 579 821 591 791 q 549 867 568 850 q 505 896 530 884 q 455 911 479 907 q 405 916 431 916 q 115 791 280 916 l 115 920 q 417 1031 277 1031 q 575 1002 506 1031 q 686 911 644 972 q 728 762 728 849 q 720 687 728 722 q 692 614 712 652 q 635 536 673 576 q 543 457 598 497 z "},"ȝ":{"ha":836,"x_min":118,"x_max":718,"o":"m 530 313 q 616 284 578 307 q 675 231 654 261 q 707 170 696 200 q 718 115 718 140 q 696 18 718 64 q 637 -66 673 -29 q 549 -135 600 -102 q 444 -192 497 -168 q 330 -236 391 -216 q 219 -270 269 -257 q 118 -294 168 -283 l 118 -205 q 311 -142 228 -174 q 448 -78 394 -109 q 535 -14 501 -47 q 582 50 568 19 q 595 115 595 81 q 555 213 595 175 q 452 251 515 251 q 370 234 412 251 l 223 176 l 223 270 l 374 328 q 419 347 397 336 q 471 378 441 358 q 522 422 500 399 q 558 480 543 446 q 574 553 574 515 q 563 607 574 583 q 536 645 553 631 q 497 668 519 659 q 452 681 474 677 q 406 684 430 684 q 302 664 359 684 q 146 583 245 644 l 146 688 q 417 778 326 778 q 555 754 493 778 q 657 680 618 730 q 696 565 696 631 q 662 438 696 490 q 530 313 627 387 z "},"Ȟ":{"ha":836,"x_min":93,"x_max":743,"o":"m 354 1109 l 211 1289 l 306 1289 l 418 1168 l 530 1289 l 625 1289 l 482 1109 l 354 1109 m 93 1013 l 231 1013 l 231 625 l 606 625 l 606 1013 l 743 1013 l 743 0 l 606 0 l 606 509 l 231 509 l 231 0 l 93 0 l 93 1013 z "},"ȟ":{"ha":836,"x_min":132,"x_max":713,"o":"m 354 1109 l 211 1289 l 306 1289 l 418 1168 l 530 1289 l 625 1289 l 482 1109 l 354 1109 m 713 471 l 713 0 l 587 0 l 587 471 q 551 621 587 573 q 439 669 515 669 q 304 607 351 669 q 257 429 257 545 l 257 0 l 132 0 l 132 1055 l 257 1055 l 257 646 q 347 744 290 711 q 482 778 404 778 q 655 702 598 778 q 713 471 713 625 z "},"Ƞ":{"ha":836,"x_min":100,"x_max":736,"o":"m 736 677 l 736 -292 l 598 -292 l 598 684 q 559 864 598 806 q 435 921 519 921 q 288 847 340 921 q 237 635 237 773 l 237 0 l 100 0 l 100 1013 l 237 1013 l 237 878 q 336 993 273 954 q 484 1032 398 1032 q 673 944 610 1032 q 736 677 736 855 z "},"ȡ":{"ha":836,"x_min":12,"x_max":802,"o":"m 595 98 q 648 86 603 85 q 733 191 731 86 q 692 233 736 233 q 595 98 649 233 m 534 275 q 543 173 534 197 q 691 339 621 338 q 802 193 802 340 q 633 -20 802 -20 q 552 -8 585 -20 q 518 -100 532 -62 l 437 -100 l 484 31 q 436 100 462 40 l 425 125 q 368 28 406 64 q 248 -20 316 -20 q 75 87 138 -18 q 12 382 12 194 q 76 672 12 567 q 248 778 139 778 q 344 748 302 778 q 410 663 386 719 l 410 1055 l 534 1055 l 534 275 m 154 598 q 136 561 154 598 q 117 379 117 524 q 154 160 117 234 q 262 86 191 86 q 372 161 334 86 q 410 379 410 235 q 372 598 410 524 q 262 672 334 672 q 154 598 191 672 z "},"Ȥ":{"ha":836,"x_min":106,"x_max":793,"o":"m 121 1013 l 778 1013 l 778 908 l 249 115 l 793 115 l 793 87 l 793 87 l 793 -14 q 733 -217 793 -146 q 560 -289 672 -289 l 421 -289 l 421 -183 l 547 -183 q 638 -141 608 -183 q 668 -14 668 -99 l 668 0 l 106 0 l 106 104 l 621 897 l 121 897 l 121 1013 z "},"ȥ":{"ha":836,"x_min":138,"x_max":705,"o":"m 154 761 l 705 761 l 705 647 l 269 102 l 705 102 l 705 0 l 700 0 l 700 -14 q 640 -217 700 -146 q 467 -289 578 -289 l 328 -289 l 328 -183 l 453 -183 q 545 -141 514 -183 q 574 -14 574 -99 l 574 0 l 138 0 l 138 115 l 574 661 l 154 661 l 154 761 z "},"Ȧ":{"ha":836,"x_min":25,"x_max":811,"o":"m 348 1270 l 487 1270 l 487 1131 l 348 1131 l 348 1270 m 418 892 l 273 374 l 562 374 l 418 892 m 335 1013 l 501 1013 l 811 0 l 669 0 l 595 264 l 240 264 l 167 0 l 25 0 l 335 1013 z "},"ȧ":{"ha":836,"x_min":90,"x_max":718,"o":"m 348 1053 l 487 1053 l 487 914 l 348 914 l 348 1053 m 476 382 l 435 382 q 270 343 326 382 q 215 229 215 305 q 256 123 215 161 q 371 85 298 85 q 533 156 474 85 q 593 354 592 228 l 593 382 l 476 382 m 718 433 l 718 0 l 593 0 l 593 113 q 492 13 553 45 q 345 -20 431 -20 q 159 46 229 -20 q 90 221 90 111 q 175 414 90 348 q 425 479 260 479 l 593 479 l 593 499 q 547 631 592 590 q 401 672 501 672 q 273 654 338 672 q 146 600 208 635 l 146 725 q 278 765 215 751 q 401 778 342 778 q 563 750 496 778 q 671 667 629 722 q 707 583 696 633 q 718 433 718 533 z "},"Ȩ":{"ha":836,"x_min":134,"x_max":747,"o":"m 509 0 q 565 -78 547 -42 q 583 -146 583 -113 q 542 -237 583 -206 q 421 -268 501 -268 q 361 -264 391 -268 q 302 -252 332 -260 l 302 -163 q 350 -179 325 -174 q 408 -184 376 -184 q 468 -168 447 -184 q 488 -121 488 -152 q 473 -71 488 -100 q 429 0 458 -41 l 509 0 m 134 1013 l 734 1013 l 734 897 l 271 897 l 271 625 l 714 625 l 714 509 l 271 509 l 271 115 l 747 115 l 747 0 l 134 0 l 134 1013 z "},"ȩ":{"ha":836,"x_min":83,"x_max":760,"o":"m 509 0 q 565 -78 547 -42 q 583 -146 583 -113 q 542 -237 583 -206 q 421 -268 501 -268 q 361 -264 391 -268 q 302 -252 332 -260 l 302 -163 q 350 -179 325 -174 q 408 -184 376 -184 q 468 -168 447 -184 q 488 -121 488 -152 q 473 -71 488 -100 q 429 0 458 -41 l 509 0 m 760 442 l 760 381 l 219 381 l 219 377 q 278 154 214 222 q 461 86 343 86 q 586 105 521 86 q 725 163 651 124 l 725 39 q 588 -5 654 9 q 460 -20 522 -20 q 183 86 283 -20 q 83 379 83 193 q 181 669 83 561 q 441 778 279 778 q 670 680 587 778 q 760 442 754 581 m 635 479 q 577 615 627 557 q 436 672 528 672 q 288 612 346 672 q 224 478 229 553 l 635 479 z "},"Ȫ":{"ha":836,"x_min":79,"x_max":757,"o":"m 216 1184 l 354 1184 l 354 1046 l 216 1046 l 216 1184 m 482 1184 l 619 1184 l 619 1046 l 482 1046 l 482 1184 m 215 1324 l 621 1324 l 621 1223 l 215 1223 l 215 1324 m 614 505 q 568 824 614 728 q 418 920 522 920 q 268 824 314 920 q 222 505 222 728 q 268 187 222 283 q 418 92 314 92 q 568 187 522 92 q 614 505 614 282 m 757 505 q 673 111 757 241 q 418 -20 589 -20 q 163 110 246 -20 q 79 505 79 239 q 163 901 79 770 q 418 1031 247 1031 q 673 901 589 1031 q 757 505 757 770 z "},"ȫ":{"ha":836,"x_min":79,"x_max":756,"o":"m 79 1249 l 756 1249 l 756 1149 l 79 1149 l 79 1249 m 418 672 q 274 598 323 672 q 225 379 225 524 q 274 160 225 235 q 418 86 323 86 q 562 160 513 86 q 611 379 611 235 q 562 598 611 524 q 418 672 513 672 m 418 778 q 660 675 576 778 q 743 379 743 573 q 660 82 743 184 q 418 -20 576 -20 q 176 82 260 -20 q 93 379 93 184 q 176 675 93 573 q 418 778 260 778 m 216 1053 l 354 1053 l 354 916 l 216 916 l 216 1053 m 482 1053 l 619 1053 l 619 916 l 482 916 l 482 1053 z "},"Ȭ":{"ha":836,"x_min":79,"x_max":757,"o":"m 614 505 q 568 824 614 728 q 418 920 522 920 q 268 824 314 920 q 222 505 222 728 q 268 187 222 283 q 418 92 314 92 q 568 187 522 92 q 614 505 614 282 m 757 505 q 673 111 757 241 q 418 -20 589 -20 q 163 110 246 -20 q 79 505 79 239 q 163 901 79 770 q 418 1031 247 1031 q 673 901 589 1031 q 757 505 757 770 m 415 1073 l 376 1095 q 349 1108 359 1105 q 330 1112 338 1112 q 293 1095 307 1112 q 279 1048 279 1078 l 279 1044 l 195 1044 q 230 1152 195 1112 q 322 1192 264 1192 q 367 1187 347 1192 q 421 1163 388 1181 l 460 1143 q 487 1130 475 1134 q 509 1126 498 1126 q 543 1143 530 1126 q 557 1188 557 1160 l 557 1192 l 642 1192 q 606 1084 640 1124 q 514 1044 571 1044 q 471 1049 491 1044 q 415 1073 450 1055 m 215 1324 l 621 1324 l 621 1223 l 215 1223 l 215 1324 z "},"ȭ":{"ha":836,"x_min":82,"x_max":759,"o":"m 82 1249 l 759 1249 l 759 1149 l 82 1149 l 82 1249 m 418 672 q 274 598 323 672 q 225 379 225 524 q 274 160 225 235 q 418 86 323 86 q 562 160 513 86 q 611 379 611 235 q 562 598 611 524 q 418 672 513 672 m 418 778 q 660 675 576 778 q 743 379 743 573 q 660 82 743 184 q 418 -20 576 -20 q 176 82 260 -20 q 93 379 93 184 q 176 675 93 573 q 418 778 260 778 m 415 929 l 376 966 q 351 986 362 980 q 330 993 340 993 q 292 968 304 993 q 279 888 280 943 l 195 888 q 230 1029 195 979 q 326 1079 264 1079 q 374 1069 353 1079 q 421 1038 396 1060 l 460 1000 q 485 980 474 987 q 505 974 496 974 q 544 999 532 974 q 557 1079 556 1024 l 642 1079 q 606 938 641 988 q 510 888 572 888 q 462 897 484 888 q 415 929 440 907 z "},"Ȯ":{"ha":836,"x_min":79,"x_max":757,"o":"m 348 1270 l 487 1270 l 487 1131 l 348 1131 l 348 1270 m 614 505 q 568 824 614 728 q 418 920 522 920 q 268 824 314 920 q 222 505 222 728 q 268 187 222 283 q 418 92 314 92 q 568 187 522 92 q 614 505 614 282 m 757 505 q 673 111 757 241 q 418 -20 589 -20 q 163 110 246 -20 q 79 505 79 239 q 163 901 79 770 q 418 1031 247 1031 q 673 901 589 1031 q 757 505 757 770 z "},"ȯ":{"ha":836,"x_min":93,"x_max":743,"o":"m 348 1053 l 487 1053 l 487 914 l 348 914 l 348 1053 m 418 672 q 274 598 323 672 q 225 379 225 524 q 274 160 225 235 q 418 86 323 86 q 562 160 513 86 q 611 379 611 235 q 562 598 611 524 q 418 672 513 672 m 418 778 q 660 675 576 778 q 743 379 743 573 q 660 82 743 184 q 418 -20 576 -20 q 176 82 260 -20 q 93 379 93 184 q 176 675 93 573 q 418 778 260 778 z "},"Ȱ":{"ha":836,"x_min":79,"x_max":757,"o":"m 215 1324 l 621 1324 l 621 1223 l 215 1223 l 215 1324 m 348 1186 l 487 1186 l 487 1047 l 348 1047 l 348 1186 m 614 505 q 568 824 614 728 q 418 920 522 920 q 268 824 314 920 q 222 505 222 728 q 268 187 222 283 q 418 92 314 92 q 568 187 522 92 q 614 505 614 282 m 757 505 q 673 111 757 241 q 418 -20 589 -20 q 163 110 246 -20 q 79 505 79 239 q 163 901 79 770 q 418 1031 247 1031 q 673 901 589 1031 q 757 505 757 770 z "},"ȱ":{"ha":836,"x_min":79,"x_max":756,"o":"m 79 1249 l 756 1249 l 756 1149 l 79 1149 l 79 1249 m 348 1053 l 487 1053 l 487 914 l 348 914 l 348 1053 m 418 672 q 274 598 323 672 q 225 379 225 524 q 274 160 225 235 q 418 86 323 86 q 562 160 513 86 q 611 379 611 235 q 562 598 611 524 q 418 672 513 672 m 418 778 q 660 675 576 778 q 743 379 743 573 q 660 82 743 184 q 418 -20 576 -20 q 176 82 260 -20 q 93 379 93 184 q 176 675 93 573 q 418 778 260 778 z "},"Ȳ":{"ha":836,"x_min":25,"x_max":811,"o":"m 215 1248 l 621 1248 l 621 1147 l 215 1147 l 215 1248 m 25 1013 l 171 1013 l 418 566 l 664 1013 l 811 1013 l 486 454 l 486 0 l 349 0 l 349 454 l 25 1013 z "},"ȳ":{"ha":836,"x_min":71,"x_max":782,"o":"m 215 1035 l 621 1035 l 621 935 l 215 935 l 215 1035 m 582 244 q 503 35 551 165 q 412 -183 435 -144 q 334 -262 381 -236 q 225 -289 288 -289 l 125 -289 l 125 -184 l 199 -184 q 285 -153 254 -184 q 364 12 316 -121 l 71 760 l 203 760 l 428 165 l 650 760 l 782 760 l 582 244 z "},"ȴ":{"ha":836,"x_min":109,"x_max":701,"o":"m 494 98 q 547 86 502 85 q 632 191 630 86 q 591 233 635 233 q 494 98 548 233 m 450 -8 q 417 -100 431 -62 l 336 -100 l 382 31 q 335 100 370 35 q 309 275 309 151 l 309 965 l 109 965 l 109 1063 l 433 1063 l 433 275 q 442 173 433 197 q 590 339 519 338 q 701 193 701 340 q 532 -20 701 -20 q 450 -8 484 -20 z "},"ȵ":{"ha":836,"x_min":73,"x_max":764,"o":"m 556 98 q 609 86 564 85 q 694 191 692 86 q 654 233 697 233 q 556 98 610 233 m 485 275 q 500 167 485 198 q 652 339 583 338 q 764 201 760 340 q 764 193 764 197 q 594 -20 764 -19 q 513 -8 546 -20 q 479 -100 493 -62 l 399 -100 l 445 31 q 397 100 432 35 q 371 275 371 151 l 371 435 q 353 634 371 595 q 274 673 335 673 q 205 632 224 673 q 186 435 186 590 l 186 0 l 73 0 l 73 760 l 186 760 l 186 694 q 242 756 208 735 q 318 778 275 778 q 447 707 408 778 q 485 440 485 638 l 485 275 z "},"ȶ":{"ha":836,"x_min":89,"x_max":700,"o":"m 477 98 q 530 86 485 85 q 615 191 613 86 q 574 233 618 233 q 477 98 531 233 m 416 275 q 425 173 416 197 q 573 339 503 338 q 684 193 684 340 q 515 -20 684 -20 q 434 -8 467 -20 q 400 -100 414 -62 l 319 -100 l 366 31 q 318 100 353 35 q 292 275 292 151 l 292 663 l 89 663 l 89 760 l 292 760 l 292 975 l 416 975 l 416 760 l 700 760 l 700 663 l 416 663 l 416 275 z "},"ȷ":{"ha":836,"x_min":126,"x_max":532,"o":"m 407 -14 l 407 663 l 192 663 l 192 760 l 532 760 l 532 -14 q 471 -217 532 -146 q 298 -289 410 -289 l 126 -289 l 126 -183 l 285 -183 q 376 -141 346 -183 q 407 -14 407 -98 z "},"ȸ":{"ha":836,"x_min":81,"x_max":755,"o":"m 188 598 q 174 561 188 598 q 161 379 161 524 q 188 160 161 234 q 270 86 216 86 q 352 161 324 86 q 380 379 380 235 q 352 598 380 524 q 270 672 324 672 q 188 598 216 672 m 648 160 q 662 197 648 160 q 675 379 675 234 q 648 598 675 524 q 566 672 621 672 q 484 598 511 672 q 456 379 456 524 q 484 161 456 235 q 566 86 511 86 q 648 160 621 86 m 456 663 q 505 748 473 718 q 578 778 536 778 q 708 672 661 778 q 755 382 755 567 q 707 87 755 194 q 577 -20 660 -20 q 505 10 536 -20 q 456 96 474 39 l 456 0 l 380 0 l 380 96 q 331 10 362 39 q 259 -20 300 -20 q 129 87 176 -20 q 81 382 81 194 q 129 672 81 567 q 259 778 177 778 q 331 748 300 778 q 380 663 363 719 l 380 1055 l 456 1055 l 456 663 z "},"ȹ":{"ha":836,"x_min":81,"x_max":755,"o":"m 648 160 q 662 197 648 160 q 675 379 675 234 q 648 598 675 524 q 566 672 621 672 q 484 597 512 672 q 456 379 456 523 q 484 160 456 235 q 566 86 512 86 q 648 160 621 86 m 188 598 q 174 561 188 598 q 161 379 161 524 q 188 160 161 234 q 270 86 216 86 q 352 160 324 86 q 380 379 380 235 q 352 597 380 523 q 270 672 324 672 q 188 598 216 672 m 380 96 q 331 10 363 40 q 258 -20 300 -20 q 129 86 176 -20 q 81 376 81 191 q 129 671 81 564 q 259 778 176 778 q 331 748 300 778 q 380 663 362 719 l 380 758 l 456 758 l 456 663 q 505 748 474 719 q 577 778 536 778 q 707 671 660 778 q 755 376 755 564 q 707 86 755 191 q 577 -20 659 -20 q 505 10 536 -20 q 456 96 473 39 l 456 -297 l 380 -297 l 380 96 z "},"Ⱥ":{"ha":836,"x_min":5,"x_max":814,"o":"m 335 1013 l 501 1013 l 566 800 l 746 1057 l 814 1007 l 597 698 l 811 0 l 669 0 l 595 264 l 293 264 l 205 138 l 167 0 l 109 0 l 75 -47 l 5 0 l 41 50 l 335 1013 m 370 374 l 562 374 l 507 570 l 370 374 m 478 675 l 418 892 l 277 388 l 478 675 z "},"Ȼ":{"ha":836,"x_min":5,"x_max":814,"o":"m 250 349 l 632 894 l 620 898 q 504 920 562 920 q 304 817 370 920 q 237 505 237 713 q 250 349 237 420 m 728 36 q 621 -6 675 8 q 504 -20 566 -20 q 202 118 309 -20 l 196 125 l 75 -47 l 5 0 l 149 205 q 94 505 94 327 q 202 892 94 753 q 504 1031 311 1031 q 621 1017 566 1031 q 699 989 661 1007 l 746 1057 l 814 1007 l 728 884 l 728 835 q 705 852 717 844 l 279 243 q 304 195 290 216 q 504 92 370 92 q 621 113 564 92 q 728 176 678 135 l 728 36 z "},"ȼ":{"ha":836,"x_min":32,"x_max":796,"o":"m 275 275 l 597 660 q 507 672 555 672 q 327 596 390 672 q 264 379 264 520 q 275 275 264 323 m 720 39 q 616 -5 669 9 q 507 -20 563 -20 q 232 86 331 -20 l 227 92 l 94 -65 l 32 -14 l 178 161 q 132 379 132 251 q 232 672 132 566 q 507 778 331 778 q 614 764 562 778 q 669 745 642 756 l 733 822 l 796 770 l 720 679 l 720 589 q 674 624 696 609 l 308 189 q 327 163 317 175 q 507 86 391 86 q 624 106 572 86 q 720 168 675 126 l 720 39 z "},"Ƚ":{"ha":836,"x_min":14,"x_max":822,"o":"m 195 1013 l 333 1013 l 333 507 l 511 507 l 511 391 l 333 391 l 333 115 l 822 115 l 822 0 l 195 0 l 195 391 l 14 391 l 14 507 l 195 507 l 195 1013 z "},"Ⱦ":{"ha":836,"x_min":22,"x_max":831,"o":"m 486 662 l 651 897 l 486 897 l 486 662 m 349 466 l 349 897 l 32 897 l 32 1013 l 732 1013 l 763 1057 l 831 1007 l 804 969 l 804 897 l 754 897 l 486 515 l 486 0 l 349 0 l 349 319 l 92 -47 l 22 0 l 349 466 z "},"ȿ":{"ha":836,"x_min":144,"x_max":711,"o":"m 660 733 l 660 611 q 552 658 606 642 q 441 673 498 673 q 315 646 357 673 q 273 562 273 618 q 304 486 273 511 q 460 437 336 461 l 510 428 q 651 357 603 410 q 699 220 699 304 q 618 43 699 107 q 429 -19 548 -12 l 532 -122 l 631 -208 q 711 -232 660 -232 l 711 -336 l 685 -336 q 551 -295 628 -336 q 442 -208 503 -269 l 281 -43 q 178 17 247 -7 l 144 28 l 144 157 q 311 95 228 160 q 399 85 357 85 q 527 118 481 85 q 572 212 572 152 q 406 332 572 299 l 401 334 l 354 343 q 197 414 245 366 q 147 550 147 464 q 221 719 147 659 q 432 778 295 778 q 549 767 493 778 q 660 733 606 755 z "},"ɀ":{"ha":836,"x_min":138,"x_max":705,"o":"m 154 761 l 705 761 l 705 647 l 256 90 q 311 57 290 79 l 490 -122 l 590 -208 q 670 -232 618 -232 l 705 -232 l 705 -336 l 644 -336 q 509 -295 587 -336 q 401 -208 461 -269 l 240 -43 q 138 0 199 0 l 138 106 l 138 115 l 574 661 l 154 661 l 154 761 z "},"Ɂ":{"ha":836,"x_min":38,"x_max":798,"o":"m 254 900 q 176 868 217 900 q 144 765 144 842 l 144 732 l 38 732 l 38 779 q 103 957 38 902 q 254 1013 168 1013 l 454 1013 q 711 936 623 1013 q 798 710 798 859 q 711 484 798 560 q 454 407 624 407 l 454 0 l 317 0 l 317 519 l 454 519 q 602 570 549 519 q 655 710 655 620 q 602 850 655 800 q 454 900 549 900 l 254 900 z "},"Ʉ":{"ha":836,"x_min":14,"x_max":822,"o":"m 14 391 l 14 507 l 100 507 l 100 1013 l 237 1013 l 237 507 l 599 507 l 599 1013 l 736 1013 l 736 507 l 822 507 l 822 391 l 736 391 l 736 389 q 716 168 736 233 q 650 60 697 102 q 547 0 605 20 q 418 -20 490 -20 q 289 0 347 -20 q 186 60 231 20 q 119 169 139 102 q 100 389 100 235 l 100 391 l 14 391 m 599 391 l 237 391 l 237 326 q 241 221 237 252 q 256 172 245 189 q 318 112 277 132 q 418 92 359 92 q 517 112 477 92 q 581 172 558 132 q 595 220 591 189 q 599 325 599 252 l 599 391 z "},"Ʌ":{"ha":836,"x_min":39,"x_max":798,"o":"m 418 897 l 180 0 l 39 0 l 335 1013 l 501 1013 l 798 0 l 656 0 l 418 897 z "},"Ɍ":{"ha":836,"x_min":14,"x_max":836,"o":"m 154 1013 l 379 1013 q 635 937 546 1013 q 724 720 724 862 q 669 556 724 619 q 515 478 614 492 q 606 427 568 465 q 699 277 642 390 l 836 0 l 689 0 l 568 256 q 474 396 516 365 q 366 428 433 428 l 292 428 l 292 0 l 154 0 l 154 428 l 14 428 l 14 541 l 154 541 l 154 1013 m 292 900 l 292 541 l 385 541 q 531 585 483 541 q 579 720 579 629 q 528 853 579 807 q 379 900 477 900 l 292 900 z "},"ɍ":{"ha":836,"x_min":96,"x_max":783,"o":"m 783 603 q 702 648 743 634 q 611 663 661 663 q 433 589 494 663 q 372 418 380 527 l 720 418 l 720 307 l 371 307 l 371 0 l 245 0 l 245 307 l 96 307 l 96 418 l 245 418 l 245 760 l 371 760 l 371 611 q 467 735 402 692 q 621 778 532 778 q 707 766 667 778 q 783 730 747 755 l 783 603 z "},"ɐ":{"ha":836,"x_min":104,"x_max":732,"o":"m 346 376 l 388 376 q 552 415 496 376 q 608 529 608 453 q 566 635 608 597 q 452 673 525 673 q 289 602 349 673 q 229 404 229 530 l 229 376 l 346 376 m 104 325 l 104 758 l 229 758 l 229 646 q 330 746 270 713 q 477 778 391 778 q 663 712 594 778 q 732 537 732 647 q 647 345 732 410 q 397 279 562 279 l 229 279 l 229 259 q 275 127 229 168 q 420 86 321 86 q 549 104 484 86 q 677 158 614 123 l 677 33 q 544 -6 608 7 q 420 -20 480 -20 q 260 8 327 -20 q 152 92 193 36 q 115 175 126 125 q 104 325 104 225 z "},"ɑ":{"ha":836,"x_min":83,"x_max":707,"o":"m 582 663 l 582 758 l 707 758 l 707 0 l 582 0 l 582 96 q 499 10 551 39 q 379 -20 447 -20 q 162 87 241 -20 q 83 382 83 194 q 163 672 83 567 q 379 778 242 778 q 500 748 448 778 q 582 663 552 719 m 215 379 q 261 160 215 234 q 397 86 307 86 q 535 161 488 86 q 582 379 582 235 q 535 598 582 524 q 397 672 488 672 q 261 598 307 672 q 215 379 215 524 z "},"ɒ":{"ha":836,"x_min":130,"x_max":753,"o":"m 622 378 q 576 597 622 523 q 439 671 530 671 q 302 596 349 671 q 255 378 255 522 q 302 159 255 233 q 439 85 349 85 q 576 159 530 85 q 622 378 622 233 m 255 661 q 338 747 286 718 q 458 777 390 777 q 674 670 595 777 q 753 375 753 563 q 674 84 753 190 q 458 -21 595 -21 q 337 8 389 -21 q 255 94 285 38 l 255 0 l 130 0 l 130 758 l 255 758 l 255 661 z "},"ɓ":{"ha":836,"x_min":131,"x_max":754,"o":"m 623 379 q 576 598 623 524 q 440 672 530 672 q 302 598 349 672 q 256 379 256 524 q 302 161 256 235 q 440 86 349 86 q 576 160 530 86 q 623 379 623 234 m 256 663 q 338 748 286 718 q 460 778 391 778 q 675 672 597 778 q 754 382 754 567 q 675 87 754 194 q 458 -20 596 -20 q 339 10 391 -20 q 256 96 287 39 l 256 0 l 131 0 l 131 780 q 192 984 131 912 q 364 1055 252 1055 l 503 1055 l 503 949 l 378 949 q 286 907 317 949 q 256 780 256 865 l 256 663 z "},"ɔ":{"ha":836,"x_min":125,"x_max":712,"o":"m 125 720 q 228 763 175 749 q 336 778 281 778 q 612 672 513 778 q 712 379 712 566 q 612 86 712 192 q 336 -20 513 -20 q 230 -5 282 -20 q 125 39 178 9 l 125 170 q 224 106 174 125 q 336 86 274 86 q 517 162 454 86 q 581 379 581 238 q 517 596 581 519 q 336 672 453 672 q 220 652 271 672 q 125 590 168 632 l 125 720 z "},"ɕ":{"ha":836,"x_min":132,"x_max":734,"o":"m 296 -96 q 304 30 296 -25 q 233 88 266 54 q 132 379 132 197 q 232 672 132 566 q 507 778 331 778 q 614 764 562 778 q 720 720 667 749 l 720 589 q 620 652 670 633 q 507 672 570 672 q 327 596 390 672 q 264 379 264 520 q 331 163 264 230 q 340 153 336 158 q 530 273 397 273 q 734 106 734 273 q 507 -22 734 -22 q 404 -11 452 -22 q 399 -96 399 -50 l 296 -96 m 429 99 q 519 86 469 86 q 618 125 618 86 q 529 176 618 176 q 429 99 460 176 z "},"ɖ":{"ha":836,"x_min":83,"x_max":732,"o":"m 251 598 q 233 561 251 598 q 214 379 214 524 q 251 160 214 234 q 360 86 288 86 q 471 161 433 86 q 509 379 509 235 q 471 598 509 524 q 360 672 433 672 q 251 598 288 672 m 509 663 l 509 1055 l 631 1055 l 631 -14 q 655 -141 631 -99 q 728 -183 680 -183 l 732 -183 l 732 -289 l 694 -289 q 556 -217 605 -289 q 508 -14 508 -146 l 508 96 q 441 9 483 39 q 346 -20 400 -20 q 154 87 224 -20 q 83 382 83 194 q 154 672 83 567 q 346 778 224 778 q 443 748 401 778 q 509 663 484 719 z "},"ɗ":{"ha":836,"x_min":83,"x_max":732,"o":"m 251 598 q 232 561 251 598 q 214 379 214 524 q 251 160 214 234 q 359 86 288 86 q 470 161 432 86 q 507 379 507 235 q 470 598 507 524 q 359 672 432 672 q 251 598 288 672 m 507 680 l 507 780 q 555 983 507 912 q 694 1055 604 1055 l 732 1055 l 732 949 l 728 949 q 655 907 680 949 q 631 780 631 865 l 631 0 l 507 0 l 507 96 q 441 10 483 39 q 345 -20 399 -20 q 153 87 223 -20 q 83 382 83 194 q 154 672 83 567 q 345 778 224 778 q 442 748 400 778 q 507 663 484 719 l 507 680 z "},"ɘ":{"ha":836,"x_min":83,"x_max":753,"o":"m 83 411 q 166 680 83 581 q 395 778 250 778 q 656 669 558 778 q 753 379 753 561 q 654 86 753 193 q 377 -20 554 -20 q 249 -5 315 -20 q 112 39 183 9 l 112 163 q 251 105 186 124 q 376 86 316 86 q 558 154 494 86 q 623 346 623 222 l 623 350 l 83 350 l 83 411 m 208 447 l 618 447 q 549 612 608 553 q 401 672 491 672 q 258 614 309 672 q 208 447 208 557 z "},"ə":{"ha":836,"x_min":83,"x_max":753,"o":"m 83 347 l 83 408 l 623 408 l 623 412 q 558 604 623 536 q 376 672 494 672 q 251 653 316 672 q 112 595 186 634 l 112 720 q 249 763 183 749 q 377 778 315 778 q 654 672 554 778 q 753 379 753 566 q 656 89 753 197 q 395 -20 558 -20 q 166 79 250 -20 q 83 347 83 177 m 208 311 q 258 144 208 201 q 401 86 309 86 q 549 146 491 86 q 618 311 608 205 l 208 311 z "},"ɚ":{"ha":836,"x_min":20,"x_max":816,"o":"m 392 145 q 444 379 444 239 q 439 459 444 421 l 121 218 q 153 147 136 171 q 274 86 195 86 q 392 145 352 86 m 250 778 q 501 621 420 778 l 606 700 l 701 700 l 701 600 q 720 463 701 496 q 793 430 739 430 l 816 430 l 816 324 l 783 324 q 649 387 693 324 q 606 586 606 450 l 534 531 q 549 386 549 466 q 473 90 549 199 q 273 -20 396 -20 q 82 79 149 -20 q 20 254 34 149 l 415 555 q 391 605 405 582 q 244 672 352 672 q 37 602 136 672 l 37 720 q 250 778 141 778 z "},"ɛ":{"ha":836,"x_min":115,"x_max":722,"o":"m 304 412 q 180 473 224 429 q 136 580 136 516 q 219 724 136 671 q 444 778 302 778 q 560 770 498 778 q 694 745 623 762 l 694 632 q 564 659 623 650 q 454 667 506 667 q 311 638 361 667 q 260 559 260 609 q 309 488 260 517 q 450 458 358 458 l 562 458 l 562 361 l 454 361 q 296 323 353 361 q 239 231 239 286 q 300 129 239 165 q 479 94 361 94 q 608 106 546 94 q 722 140 669 117 l 722 23 q 595 -5 656 4 q 475 -15 533 -15 q 208 47 302 -15 q 115 222 115 109 q 165 346 115 296 q 304 412 215 396 z "},"ɜ":{"ha":836,"x_min":115,"x_max":722,"o":"m 531 412 q 671 346 621 396 q 722 222 722 296 q 628 47 722 109 q 361 -15 534 -15 q 241 -5 303 -15 q 115 23 180 4 l 115 140 q 228 105 166 117 q 357 94 290 94 q 536 129 475 94 q 597 231 597 165 q 540 323 597 286 q 381 361 483 361 l 274 361 l 274 458 l 386 458 q 527 488 478 458 q 576 559 576 517 q 525 638 576 609 q 381 667 475 667 q 272 659 330 667 q 142 632 213 650 l 142 745 q 276 770 214 762 q 392 778 338 778 q 617 724 534 778 q 700 580 700 671 q 656 472 700 516 q 531 412 612 429 z "},"ɝ":{"ha":836,"x_min":39,"x_max":798,"o":"m 351 412 q 456 346 418 396 q 494 222 494 296 q 423 47 494 109 q 223 -15 353 -15 q 134 -5 180 -15 q 39 23 87 4 l 39 140 q 123 106 77 117 q 220 94 170 94 q 354 129 309 94 q 401 231 401 165 q 357 323 401 286 q 238 361 315 361 l 158 361 l 158 458 l 242 458 q 348 488 311 458 q 385 559 385 517 q 347 638 385 609 q 238 667 309 667 q 156 659 200 667 q 59 632 112 650 l 59 745 q 159 770 113 762 q 246 778 205 778 q 415 724 353 778 q 475 611 466 680 l 590 700 l 684 700 l 684 600 q 703 463 684 496 q 776 430 722 430 l 798 430 l 798 324 l 765 324 q 632 389 676 324 q 591 586 591 450 l 448 476 l 448 477 l 444 473 q 351 412 411 429 z "},"ɞ":{"ha":836,"x_min":119,"x_max":718,"o":"m 454 667 q 224 384 224 667 q 454 81 224 81 q 575 121 534 81 q 615 212 615 161 q 575 300 615 264 q 458 321 553 321 l 366 321 l 366 427 l 458 427 q 575 448 553 427 q 615 537 615 485 q 574 628 615 589 q 454 667 533 667 m 306 745 q 473 777 363 777 q 649 718 581 777 q 718 559 718 659 q 681 441 718 489 q 578 374 645 393 q 681 307 645 355 q 718 189 718 259 q 649 30 718 89 q 471 -29 580 -29 q 306 12 363 -29 q 119 377 119 144 q 306 745 119 644 z "},"ɟ":{"ha":836,"x_min":126,"x_max":771,"o":"m 771 418 l 771 307 l 532 307 l 532 -14 q 471 -217 532 -146 q 298 -289 410 -289 l 126 -289 l 126 -183 l 285 -183 q 376 -141 346 -183 q 407 -14 407 -98 l 407 307 l 147 307 l 147 418 l 407 418 l 407 661 l 192 661 l 192 758 l 532 758 l 532 418 l 771 418 z "}}}
